<?xml version="1.0" encoding="utf-8"?>
<!-- Generator: Adobe Illustrator 17.0.0, SVG Export Plug-In . SVG Version: 6.00 Build 0)  -->
<svg version="1.2" baseProfile="tiny" id="Capa_1" xmlns="http://www.w3.org/2000/svg" xmlns:xlink="http://www.w3.org/1999/xlink"
	 x="0px" y="0px" width="211px" height="228.77px" viewBox="0 0 211 228.77" xml:space="preserve">
<g>
	<path fill-rule="evenodd" fill="#AA5B2A" d="M151.859,110.542c0.806-0.232,1.626,0.045,2.354,0.738
		c0.075-3.311-0.654-6.33-2.828-9.736c-1.428-2.236-3.32-3.458-6.233-2.256c-9.723,3.615-18.681,6.959-28.402,10.575
		c-1.04,0.439-2.63-0.417-3.699-1.143c-0.765,2.961-0.6,6.364,2.759,8.283"/>
	<path fill-rule="evenodd" fill="#AA5B2A" d="M65.093,108.329c-0.794-0.274-1.626-0.038-2.389,0.617
		c0.094-3.311,0.976-6.288,3.321-9.579c1.539-2.159,3.49-3.284,6.34-1.935c9.525,4.106,18.301,7.903,27.826,12.009
		c1.017,0.492,2.648-0.282,3.752-0.952c0.613,2.995,0.274,6.384-3.178,8.131"/>
	<path fill-rule="evenodd" imag="0" fill="#44210C" d="M63.726,107.349c0.805-2.698,1.768-5.351,4.003-7.519
		c1.252-1.214,2.624-1.495,4.453-0.862c9.39,3.253,18.134,7.653,27.622,11.517c1.037,0.423,2.21,0.233,3.297-0.713
		c-0.07,1.593-0.506,3.773-1.995,5.266c-0.723,0.726-1.674,0.462-2.575,0.201c-10.724-3.111-20.8-5.831-31.593-8.694
		C65.671,106.209,64.539,106.446,63.726,107.349z"/>
	<path fill-rule="evenodd" imag="0" fill="#44210C" d="M153.275,109.633c-0.667-2.735-1.493-5.435-3.614-7.714
		c-1.188-1.276-2.545-1.627-4.403-1.087c-9.545,2.77-18.501,6.718-28.173,10.092c-1.059,0.37-2.219,0.121-3.257-0.88
		c-0.011,1.594,0.313,3.793,1.724,5.361c0.685,0.761,1.648,0.546,2.561,0.331c10.869-2.56,21.071-4.763,31.995-7.071
		C151.389,108.396,152.509,108.69,153.275,109.633z"/>
	<path fill-rule="evenodd" fill="#FFFFFF" d="M99.557,116.682c-9.659-2.344-19.318-4.687-28.977-7.031"/>
	<path fill-rule="evenodd" fill="#FFFFFF" d="M117.015,117.127c9.765-1.849,19.531-3.696,29.298-5.545"/>
	<path fill-rule="evenodd" fill="#000001" d="M131.612,116.348"/>
	<path fill-rule="evenodd" fill="#F69466" d="M69.358,109.438c-1.163-0.242-2.071-0.478-3.234-0.721"/>
	<path fill-rule="evenodd" fill="#AA5B2A" d="M101.775,115.404c-0.401,0.456-0.737,0.662-1.425,1.203"/>
</g>
</svg>
