<?xml version="1.0" encoding="utf-8"?>
<!-- Generator: Adobe Illustrator 17.0.0, SVG Export Plug-In . SVG Version: 6.00 Build 0)  -->
<svg version="1.2" baseProfile="tiny" id="Capa_1" xmlns="http://www.w3.org/2000/svg" xmlns:xlink="http://www.w3.org/1999/xlink"
	 x="0px" y="0px" width="211px" height="228.77px" viewBox="0 0 211 228.77" xml:space="preserve">
<g>
	<g>
		<path  imag="0" d="M64.577,113.027c-2.099-0.662-3.58-1.638-3.912-4.066c2.736-3.21,4.97-6.011,9.465-8.318
			c8.365,0.326,16.404,1.303,24.77,1.63c3.23,4.209,5.551,8.722,7.496,13.362c-2.498-0.109-4.997-0.217-7.496-0.326
			c-6.233-1.895-11.898-4.322-17.273-7.501c-2.282,0.109-3.92,0.056-6.202,0.165C68.384,110.037,67.62,110.963,64.577,113.027z"/>
		<path  imag="0" d="M103.472,114.917c-2.25-4.658-4.337-8.515-6.586-13.173c0.534-0.107,1.071-0.214,1.606-0.321
			c2.195,4.016,4.231,7.229,6.426,11.245C104.436,113.419,103.954,114.167,103.472,114.917z"/>
		<path  imag="0" d="M105.561,111.705c-2.25-4.659-3.053-5.624-5.303-10.281c0.535-0.107,1.072-0.214,1.607-0.321
			c2.195,4.016,2.946,4.337,5.14,8.354C106.524,110.205,106.043,110.955,105.561,111.705z"/>
	</g>
	<g>
		<path  imag="0" d="M156.546,114.109c2.099-0.662,3.58-1.638,3.912-4.066c-2.736-3.21-4.971-6.011-9.465-8.318
			c-8.365,0.326-16.404,1.303-24.77,1.63c-3.23,4.209-5.551,8.722-7.496,13.362c2.498-0.109,4.997-0.217,7.496-0.326
			c6.233-1.895,11.898-4.322,17.273-7.501c2.282,0.109,3.92,0.056,6.201,0.165C152.739,111.119,153.504,112.044,156.546,114.109z"/>
		<path  imag="0"d="M117.651,115.998c2.25-4.658,4.337-8.515,6.586-13.173c-0.534-0.107-1.071-0.214-1.606-0.321
			c-2.195,4.016-4.231,7.229-6.426,11.245C116.687,114.5,117.17,115.249,117.651,115.998z"/>
		<path  imag="0" d="M115.563,112.786c2.25-4.659,3.053-5.624,5.303-10.281c-0.535-0.107-1.072-0.214-1.607-0.321
			c-2.195,4.016-2.946,4.337-5.14,8.354C114.599,111.286,115.08,112.037,115.563,112.786z"/>
	</g>
</g>
</svg>
