<?xml version="1.0" encoding="utf-8"?>
<!-- Generator: Adobe Illustrator 17.0.0, SVG Export Plug-In . SVG Version: 6.00 Build 0)  -->
<svg version="1.2" baseProfile="tiny" id="Capa_1" xmlns="http://www.w3.org/2000/svg" xmlns:xlink="http://www.w3.org/1999/xlink"
	 x="0px" y="0px" width="211px" height="228.77px" viewBox="0 0 211 228.77" xml:space="preserve">
<g>
	<g>
		<path fill="#1D0D0A" imag="0" d="M102.325,100.942v19.064c-12.977-0.992-22.514-4.742-29.291-10.693c-3.876-0.75-7.748,0.129-11.624,1.859
			l3.72-7.44c3.434-2.74,7.749-6.41,12.088-4.649c7.252,2.943,13.107,9.098,21.853,12.554l-0.001-10.695L102.325,100.942
			L102.325,100.942z"/>
		<polygon fill="#1D0D0A" imag="0" points="63.829,102.606 59.679,111.369 57.217,111.722 61.533,102.708 		"/>
		<polygon fill="#1D0D0A" imag="0" points="59.997,102.606 55.847,111.369 53.384,111.722 57.7,102.708 		"/>
	</g>
	<g>
		<path fill="#1D0D0A"  imag="0" d="M115.397,100.942v19.064c12.976-0.992,22.514-4.742,29.291-10.693c3.876-0.75,7.748,0.129,11.624,1.859
			l-3.72-7.44c-3.434-2.74-7.749-6.41-12.089-4.649c-7.252,2.943-13.107,9.098-21.853,12.554l0.001-10.695L115.397,100.942
			L115.397,100.942z"/>
		<polygon fill="#1D0D0A" imag="0" points="153.893,102.606 158.043,111.369 160.506,111.722 156.189,102.708 		"/>
		<polygon fill="#1D0D0A" imag="0" points="157.725,102.606 161.875,111.369 164.338,111.722 160.022,102.708 		"/>
	</g>
</g>
</svg>
