<?xml version="1.0" encoding="utf-8"?>
<!-- Generator: Adobe Illustrator 17.0.0, SVG Export Plug-In . SVG Version: 6.00 Build 0)  -->
<svg version="1.2" baseProfile="tiny" id="Capa_1" xmlns="http://www.w3.org/2000/svg" xmlns:xlink="http://www.w3.org/1999/xlink"
	 x="0px" y="0px" width="211px" height="228.77px" viewBox="0 0 211 228.77" xml:space="preserve">
<g>
	<path fill="#3B140A" d="M102.548,103.791l-2.15-0.372l-0.035,6.822c-6.785-1.453-13.591-3.545-20.431-6.552
		c-3.257-0.557-6.501-0.783-9.73-0.562l-2.164,7.372c3.873-0.409,7.759-0.494,11.66-0.126c7.738,2.675,15.444,4.419,23.126,5.545
		L102.548,103.791z"/>
	<path fill="#3B140A" d="M115.913,104.791l2.15-0.372l0.035,6.822c6.785-1.453,13.591-3.545,20.431-6.552
		c3.257-0.557,6.501-0.783,9.731-0.562l2.163,7.372c-3.873-0.409-7.759-0.494-11.66-0.126c-7.738,2.675-15.444,4.419-23.126,5.545
		L115.913,104.791z"/>
	<polygon fill="#3B140A" points="68.983,103.074 66.911,110.286 65.159,110.204 67.231,102.991 	"/>
	<polygon fill="#3B140A" points="149.479,104.074 151.55,111.286 153.303,111.204 151.23,103.991 	"/>
	<polygon fill="#3B140A" points="65.82,104.228 64.191,109.895 62.815,109.83 64.444,104.163 	"/>
	<polygon fill="#3B140A" points="152.642,105.228 154.27,110.895 155.647,110.83 154.018,105.163 	"/>
</g>
</svg>
