<?xml version="1.0" encoding="utf-8"?>
<!-- Generator: Adobe Illustrator 17.0.0, SVG Export Plug-In . SVG Version: 6.00 Build 0)  -->
<svg version="1.2" baseProfile="tiny" id="Capa_1" xmlns="http://www.w3.org/2000/svg" xmlns:xlink="http://www.w3.org/1999/xlink"
	 x="0px" y="0px" width="211px" height="228.77px" viewBox="0 0 211 228.77" xml:space="preserve">
<g>
	<path fill="#231F20" d="M115.386,116.481c0.242-4.499,0.482-8.275,0.723-12.774c1.044-0.081,2.089-0.161,3.133-0.242
		c-0.161,1.768-0.322,3.535-0.482,5.303c7.532-4.931,17.454-8.245,27.238-8.677c0.803,3.374,1.848,6.99,2.652,10.364
		c-3.374,0.161-6.991,0.081-10.366,0.242C128.894,114.091,122.645,115.606,115.386,116.481z"/>
	<path fill="#231F20" d="M101.653,116.481c-0.242-4.499-0.482-8.275-0.723-12.774c-1.044-0.081-2.089-0.161-3.133-0.242
		c0.16,1.768,0.322,3.535,0.482,5.303c-7.532-4.931-17.454-8.245-27.237-8.677c-0.803,3.374-1.848,6.99-2.652,10.364
		c3.374,0.161,6.991,0.081,10.366,0.242C88.145,114.091,94.394,115.606,101.653,116.481z"/>
	<polygon fill="#041723" points="146.645,100.218 149.51,110.193 151.934,110.08 149.067,100.103 	"/>
	<polygon fill="#041723" points="70.395,100.218 67.529,110.193 65.105,110.08 67.973,100.103 	"/>
	<polygon fill="#041723" points="150.31,101.407 152.561,109.246 154.465,109.156 152.213,101.318 	"/>
	<polygon fill="#041723" points="66.729,101.407 64.478,109.246 62.574,109.156 64.827,101.318 	"/>
</g>
</svg>
