<?xml version="1.0" encoding="utf-8"?>
<!-- Generator: Adobe Illustrator 17.0.0, SVG Export Plug-In . SVG Version: 6.00 Build 0)  -->
<svg version="1.2" baseProfile="tiny" id="Capa_1" xmlns="http://www.w3.org/2000/svg" xmlns:xlink="http://www.w3.org/1999/xlink"
	 x="0px" y="0px" width="211px" height="228.77px" viewBox="0 0 211 228.77" xml:space="preserve">
<g>
	<g>
		<path imag="0" d="M62.713,109.192c0.01-5.057,2.467-10.443,7.219-12.951c7.903,9.472,16.442,15.578,28.873,16.559
			c0.566-3.61,0.283-7.005-0.849-10.402c2.761,3.466,3.537,7.642,2.76,13.163c-9.536,1.718-22.88-2.271-31.421-11.889
			C66.322,104.875,64.623,106.715,62.713,109.192z"/>
		<path imag="1"  d="M97.319,107.123c-0.309-3.654-1.325-6.729-3.185-9.395c0.681,2.903,1.344,4.99,1.243,7.972
			C95.912,106.613,96.076,106.683,97.319,107.123z"/>
	</g>
	<g>
		<path imag="0" d="M152.977,109.192c-0.01-5.057-2.467-10.443-7.218-12.951c-7.903,9.472-16.442,15.578-28.873,16.559
			c-0.567-3.61-0.283-7.005,0.849-10.402c-2.761,3.466-3.537,7.642-2.76,13.163c9.536,1.718,22.88-2.271,31.421-11.889
			C149.368,104.875,151.067,106.715,152.977,109.192z"/>
		<path imag="1" d="M118.372,107.123c0.309-3.654,1.325-6.729,3.185-9.395c-0.681,2.903-1.344,4.99-1.243,7.972
			C119.778,106.613,119.615,106.683,118.372,107.123z"/>
	</g>
</g>
</svg>
