<?xml version="1.0" encoding="utf-8"?>
<!-- Generator: Adobe Illustrator 17.0.0, SVG Export Plug-In . SVG Version: 6.00 Build 0)  -->
<svg version="1.2" baseProfile="tiny" id="Capa_1" xmlns="http://www.w3.org/2000/svg" xmlns:xlink="http://www.w3.org/1999/xlink"
	 x="0px" y="0px" width="211px" height="228.77px" viewBox="0 0 211 228.77" xml:space="preserve">
<path fill-rule="evenodd" fill="#F79A6C" d="M41.434,101.762c2.337-0.351,4.781,0.37,6.004,2.039
	c1.99,4.02,0.745,9.225-0.397,11.724C47.414,108.703,46.319,105.118,41.434,101.762z"/>
<path fill-rule="evenodd" fill="#F79A6C" d="M176.83,101.762c-2.338-0.351-4.781,0.37-6.004,2.039
	c-1.99,4.02-0.745,9.225,0.396,11.724C170.849,108.703,171.944,105.118,176.83,101.762z"/>
<g>
	<path fill-rule="evenodd" fill="#041723" d="M42.753,113.238c-0.302-9.464-0.645-16.399-2.539-28.418
		c1.228,0.29,1.777,0.513,2.879,1.311c-0.726-6.368-1.424-12.286-3.209-18.762c1.878,0.856,2.996,1.581,4.684,2.753
		c0.15-4.921-0.144-10.223-0.373-15.081c1.373,0.627,3.509,1.382,5.074,1.756c1.041-5.049,3.222-10.098,3.186-15.334
		c3.354,1.314,6.898,4.088,10.694,3.88c2.744-4.374-0.854-10.776-2.93-13.628c3.19,1.732,6.189,4.414,9.125,4.624
		c1.478-1.565,3.207-4.778,5.32-9.385c1.327,1.631,2.973,4.088,4.808,4.134c4.812-1.224,6.834-6.253,7.335-9.95
		c3.224,0.299,4.607,1.806,6.245,3.627c1.518-1.414,2.91-4.35,4.508-8.195c0.777,1.561,1.294,2.871,2.745,3.754
		c2.179-1.216,3.101-3.272,3.754-5.505c-0.023,2.94-0.617,5.813,0.373,9.071c0.41-3.417,0.864-9.232,2.344-9.658
		c1.678,0.15,3.002,9.626,4.79,10.096c0.49-2.862,0.518-5.566,0.501-8.257c1.709,1.039,2.645,3.928,3.503,7.007
		c0.193-2.568,0.056-5.271,0.25-8.008c2.622,2.116,4.167,5.204,5.756,8.011c1.284-2.188,3.426-5.07,6.576-6.581
		c0.163,3.313-0.434,8.781,1.188,11.842c0.861-2.634,2.595-5.066,4.747-5.014c-0.421,3.925,1.094,8.249,6.951,8.072
		c0.681-2.225,2.181-4.734,3.815-6.387c1.561,3.675,2.997,7.156,4.749,10.576c1.907,1.663,4.927-1.156,7.505-3.002
		c-1.073,4.17-1.534,8.341-1.25,12.512c4.237,1.484,9.934-2.749,15.207-2.566c-0.592,4.986-0.611,9.405-0.694,14.075
		c1.923-0.963,3.334-1.42,5.132-0.545c-0.624,4.919-1.148,8.509-0.058,13.114c1.585-0.12,2.853-0.368,4.184-1.947
		c-0.572,4.727-1.943,11.565-2.869,18.084c1.103-0.017,1.701-0.097,2.869-0.431c-2.164,7.169-2.543,17.123-2.501,27.341
		c-4.137,6.909-6.064,13.911-6.623,21.204c-1.753,1.501-3.06,2.496-4.812,3.997c0.577-8.181,0.873-15.929,0.925-24.266
		c-2.213-3.761-4.871-6.522-7.757-8.758c-1.75-10.509,1.232-25.023-6.005-31.528c-6.812-6.123-28.803,8.634-42.039,9.508
		c-19.22,1.27-38.368-18.571-46.042-8.007c-5.923,8.152-2.669,19.934-5.005,30.528c-2.252,2.169-4.85,4.816-6.757,7.446
		c-0.578,7.591,0.863,14.327,0.831,22.225c-1.252-1-2.998-2.003-4.249-3.003C48.757,125.078,46.781,118.312,42.753,113.238z"/>
	<path fill-rule="evenodd" fill="#6B5C72" d="M109.719,33.13c0.461,13.821,0.921,27.643,1.383,41.463
		c4.775-2.741,8.636-6.854,11.287-12.785c0.461,2.918,0.921,5.836,1.382,8.754c5.895-3.473,10.785-8.618,15.087-14.743
		c-1.948,4.129-2.781,8.034-2.072,11.633c4.751-3.006,8.638-11.612,12.323-21.538c-7.204,12.193-8.952,7.991-5.989-2.995
		c-3.343,3.824-7.994,11.817-13.015,9.675c-3.587-1.53,0.86-9.628,2.188-13.246c-1.843,1.345-3.686,2.688-5.528,4.032
		c-1.043-0.484-1.587-1.364-1.931-2.447C116.29,64.909,112.621,47.905,109.719,33.13z"/>
	<path fill-rule="evenodd" fill="#6B5C72" d="M84.15,41.768c-2.09,4.253-3.518,8.607-3.11,13.246
		c0.658,0.83,1.458,1.373,2.404,1.267c-0.048-1.454,0.335-3.193,0.648-4.145c-0.069,6.636,0.758,11.411,3.859,17.043
		c0.208-1.92,0.673-3.838,1.267-5.758c0.457,2.018,1.117,3.933,1.958,5.758c0.522-4.455,1.103-8.913,2.893-12.856
		c1.585,1.225,2.832,2.927,4.016,4.91c-1.054-7.672-1.939-15.402-2.419-23.265c-1.16,3.341-2.029,6.68-2.418,10.019
		c-2.577-3.282-3.178-7.172-2.879-11.171c-2.539,4.388-4.444,9.011-5.687,14.238C84.218,47.55,83.968,44.983,84.15,41.768z"/>
	<path fill-rule="evenodd" fill="#6B5C72" d="M58.928,61.693c0.442-3.975,1.363-7.661,2.764-11.057
		c0.466,1.956,0.934,3.912,1.401,5.868c1.509-4.078,3.542-7.894,6.201-11.397c-0.59,7.082,0.707,13.536,3.57,19.466
		c-2.091-1.508-3.499-3.557-4.046-5.592c-0.742-0.207-1.632-0.059-2.231,0.019c-1.526,4.224-2.29,8.179-2.908,13.201
		c-1.827-5.648-2.09-9.051-1.757-14.913C60.707,58.403,59.853,60.051,58.928,61.693z"/>
	<path fill-rule="evenodd" fill="#6B5C72" d="M158.322,49.139c-0.285,6.966-2.127,12.693-6.175,16.903
		c1.776-0.092,4.349-0.494,5.93-1.93c-0.049,1.1-0.383,1.694-0.792,2.649c0.92-0.385,2.01-0.888,2.548-1.655
		c-0.164,2.405-1.046,4.445-2.087,6.723c3.306-3.28,5.717-7.008,6.335-11.633c-1.23,1.31-2.675,2.122-4.046,2.259
		C159.919,57.872,159.228,53.363,158.322,49.139z"/>
	<path fill-rule="evenodd" fill="#6B5C72" d="M162.267,78.783c2.02-2.015,3.683-3.312,6.421-4.824
		c-1.105,1.997-1.202,3.778-1.541,5.774c1.747-0.268,3.59-0.73,5.529-1.382c-0.772,1.612-2.445,3.226-4.031,5.053
		c1.229-0.273,3.246-1.455,4.476-2.304c-1.375,2.901-3.98,5.939-6.838,7.644C165.496,83.793,164.278,81.073,162.267,78.783z"/>
	<path fill-rule="evenodd" fill="#6B5C72" d="M51.671,92.445c-1.942-2.39-2.801-5.573-3.326-8.61
		c1.191,0.742,2.298,0.873,2.547-1.239c4.015,7.674,1.926-6.589,0.504-10.94c3.492,4.376,4.011-1.441,3.845-4.896
		c2.371,5.289,1.66,7.585-1.512,7.69c1.355,4.345,3.815,11.925-1.698,11.66C51.625,88.294,51.72,90.405,51.671,92.445z"/>
</g>
</svg>
