<?xml version="1.0" encoding="utf-8"?>
<!-- Generator: Adobe Illustrator 17.0.0, SVG Export Plug-In . SVG Version: 6.00 Build 0)  -->
<svg version="1.2" baseProfile="tiny" id="Capa_1" xmlns="http://www.w3.org/2000/svg" xmlns:xlink="http://www.w3.org/1999/xlink"
	 x="0px" y="0px" width="211px" height="228.77px" viewBox="0 0 211 228.77" xml:space="preserve">
<path fill-rule="evenodd" fill="#F79A6C" d="M41.434,101.762c2.337-0.351,4.781,0.37,6.004,2.039
	c1.99,4.02,0.745,9.225-0.397,11.724C47.414,108.703,46.319,105.118,41.434,101.762z"/>
<g>
	<path fill-rule="evenodd" fill="#231F20" imag="0" d="M51.933,154.521c-4.819-20.276-13.363-46.781-21.758-63.725
		c1.63,0.251,3.259,0.501,4.889,0.752c-0.983-4.941-2.082-9.944-4.137-15.42c1.378,0.25,2.759,0.502,4.137,0.752
		c-1.414-12.987,0.408-24.126,6.018-33.099c0.377,3.636,0.752,7.271,1.129,10.909c5.087-7.602,8.455-16.349,10.531-25.954
		c0.752,2.006,1.506,12.309,2.256,14.317C65.258,25.916,83.313,13.393,99.448,11c-5.722,3.598-9.337,8.259-12.376,12.964
		c30.897-15.471,62.711-12.211,87.215,15.327c-3.51-0.15-6.269,0.101-9.778,0.352c9.042,7.897,19.873,27.037,26.679,48.281
		c1.442,4.504,5.434,6.21,8.027,4.161c4.586-3.623,4.397-7.532,0.752-10.908c6.422,2.663,8.217,12.746,4.842,22.721
		c-2.95,8.714-11.187,10.048-18.583,10.156c-12.27,0.178-24.702-4.098-32.178-11.989c2.935,7.912,7.369,12.58,18.911,14.221
		c-16.823,2.623-27.947-15.639-36.452-28.422c-9.39-14.113-20.518-21.269-30.297-20.227c14.686,7.009,25.373,16.904,30.465,30.842
		c-10.709-15.192-26.18-23.865-47.015-25.2c3.888,2.363,6.994,5.06,7.147,9.027c-8.569-12.38-25.096-8.173-32.722,0.376
		c-4.978,5.578-6.697,12.642-7.347,20.863c-0.584,7.392-3.913,11.681-6.57,15.621C49.24,130.951,51.79,142.736,51.933,154.521z"/>
	<path fill-rule="evenodd" fill="#6B5C72" imag="1" d="M51.451,60.144c7.637-19.303,18.106-34.48,34.54-40.966
		c-9.353,8.006-11.583,12.101-12.117,17.966c-0.6-5.438-2.947-5.736-4.846-3.91C60.654,41.288,57.126,51.083,51.451,60.144z"/>
	<path fill-rule="evenodd" fill="#6B5C72" imag="1"  d="M82.438,31.889c27.969-12.981,59.685-17.862,82.445,2.674
		c-14.914-8.505-30.659-9.119-46.671-7.196c3.983-1.571,8.761-2.881,14.393-3.907C115.574,22.883,98.919,26.433,82.438,31.889z"/>
	<path fill-rule="evenodd" fill="#6B5C72" imag="1"  d="M83.466,38.074c21.067-5.672,45.135-3.882,61.68,9.243
		c-2.527-3.54-5.836-6.733-9.457-9.786c35.964,16.595,29.013,49.98,46.876,59.395c-4.462-4.618-6.436-8.746-6.784-13.131
		c6.341,11.353,16.889,18.339,27.344,8.742c-3.863,9.533-12.116,12.117-21.998,6.775c-18.239-9.86-25.623-36.486-39.682-48.091
		C124.01,36.828,102.724,34.907,83.466,38.074z"/>
	<path fill-rule="evenodd" fill="#6B5C72" imag="1"  d="M67.447,58.998c17.069-11.378,37.033-16.61,60.966-5.996
		C126.08,53,124.749,53,122.616,53.601c14.153,9.504,21.3,25.072,26.386,40.978C129.243,53.291,101.599,43.248,67.447,58.998z"/>
	<path fill-rule="evenodd" fill="#6B5C72" imag="1"  d="M82.239,65.394c13.926,0.038,24.019,2.316,33.581,11.594
		C104.911,71.305,93.682,68.01,82.239,65.394z"/>
	<path fill-rule="evenodd" fill="#6B5C72" imag="1"  d="M171.464,69.574c-4.32-19.287-15.693-30.193-31.046-36.597
		C164.285,35.981,169.446,49.367,171.464,69.574z"/>
</g>
</svg>
