<?xml version="1.0" encoding="utf-8"?>
<!-- Generator: Adobe Illustrator 17.0.0, SVG Export Plug-In . SVG Version: 6.00 Build 0)  -->
<svg version="1.2" baseProfile="tiny" id="Capa_1" xmlns="http://www.w3.org/2000/svg" xmlns:xlink="http://www.w3.org/1999/xlink"
	 x="0px" y="0px" width="211px" height="228.77px" viewBox="0 0 211 228.77" xml:space="preserve">
<g>
	<path fill-rule="evenodd" fill="none" stroke="#3F1112" stroke-width="2.126" stroke-miterlimit="22.9256" d="M52.149,138.171
		c-0.942-6.937-3.47-13.581-9.575-15.286c-2.825-6.662-6.63-12.936-13.994-16.462c4.542,0,9.084,1.96,13.626,1.96
		c-5.195-2.962-9.78-6.575-13.994-10.583c3.191,0.13,6.383,0.262,9.574,0.392c-6.405-4.942-11.763-10.999-16.203-18.03
		c4.868,1.481,9.984,2.701,15.835,3.136c-3.927-2.649-7.857-5.712-11.784-9.407c1.723,0.244,3.446,0.448,5.167,0.391
		c0.977-0.032,1.957-0.149,2.935-0.391C26.175,62.768,21.9,50.648,21.215,37.438c7.732,8.1,14.73,5.226,22.095,7.84
		c-1.764-5.308-2.779-11.415-2.578-18.814c2.652,3.802,6.063,6.388,10.68,7.055c-6.659-11.475-9.177-26.282-9.943-41.547
		C54.236,8.434,64.792,4.514,76.454,10.786c-3.622-5.39-4.726-12.118-4.419-19.598c4.4,4.332,9.471,7.95,15.835,10.191
		c1.898-18.217,8.044-30.91,18.782-37.628c-0.281,13.57,4.087,26.15,13.625,37.628c3.624-3.13,6.564-7.714,9.207-12.935
		c2.301,6.687,3.842,13.564,2.578,19.206c10.131-3.322,19.086-9.613,27.252-19.206c4.086,10.505,4.385,22.157-0.737,34.1
		c4.418-0.495,8.837-1.596,13.257-3.136c-0.739,4.791-2.577,9.189-6.26,12.935c7.752,0.333,16.305-1.895,25.041-4.704
		c0.106,10.975-3.298,21.949-13.994,32.925c4.911,2.937,9.819,4.64,14.731,5.487c-4.101,3.566-8.665,6.886-14.731,9.407
		c5.033-0.405,10.065-0.249,15.099,0.392c-5.12,2.829-9.736,5.924-12.889,9.799c6.479-0.205,12.805-0.085,17.308,3.92
		c-4.174,4.442-8.347,8.883-12.521,13.326c2.823,0.13,5.647,0.262,8.471,0.392c-4.174,5.879-9.453,12.15-13.626,18.03
		c-7.12,2.351-10.557,6.665-11.784,14.503c-3.56,0.13-6.751,0.654-10.311,0.784c1.228-3.92,2.454-7.84,3.682-11.759
		c-0.982-1.567-1.964-3.136-2.946-4.703c1.474-0.392,2.946-0.784,4.42-1.176c-1.964-3.658-3.928-7.316-5.892-10.974
		c1.964-2.743,3.928-5.488,5.892-8.232c-1.719-4.312-3.437-8.623-5.156-12.935c-1.596-0.653-3.192-1.306-4.788-1.959
		c1.105-1.437,2.21-2.874,3.314-4.311c-1.718,0-3.437,0-5.155,0c-0.123-2.221-0.246-4.442-0.368-6.664
		c-11.015,1.184-16.812,1.537-27.29,3.474c-3.24,1.202-6.213,4.544-8.47,7.839c-0.491-1.306-0.983-2.612-1.474-3.919
		c-0.905,2.826-1.809,5.438-2.914,8.051c-0.982-2.743-2.365-5.7-3.347-8.443c-0.491,1.437-0.982,2.661-1.473,4.098
		c-1.228-1.567-2.423-3.706-3.651-5.274c-9.944-1.829-24.299-3.606-34.242-5.043c-1.104,0.915-2.21,1.83-3.314,2.744
		c1.719,0.523,3.437,1.045,5.155,1.567c-1.473,1.437-2.946,2.875-4.419,4.312c1.35,1.437,2.301,3.088,3.651,4.525
		c-2.733,0.523-5.032,0.44-7.365,0.963c0.982,1.306,2.132,2.365,3.114,3.672c-2.75,3.102-3.938,6.716-4.924,10.438
		c1.35,1.959,2.5,3.707,3.85,5.666c-3.598,3.398-4.381,7.433-4.05,10.83c1.35,0,2.901-0.214,4.251-0.214
		c-1.35,1.699-2.701,3.185-4.051,4.883c1.228,0.13,2.455-0.166,3.683-0.035c-1.014,1.486-1.627,3.61-1.841,5.522
		c0.737,2.351,1.473,4.704,2.21,7.055C58.489,135.986,55.139,136.696,52.149,138.171z"/>
	<path fill-rule="evenodd" fill="#781113" d="M52.149,138.171c-0.942-6.937-3.47-13.581-9.575-15.286
		c-2.825-6.662-6.63-12.936-13.994-16.462c4.542,0,9.084,1.96,13.626,1.96c-5.195-2.962-9.78-6.575-13.994-10.583
		c3.191,0.13,6.383,0.262,9.574,0.392c-6.405-4.942-11.763-10.999-16.203-18.03c4.868,1.481,9.984,2.701,15.835,3.136
		c-3.927-2.649-7.857-5.712-11.784-9.407c1.723,0.244,3.446,0.448,5.167,0.391c0.977-0.032,1.957-0.149,2.935-0.391
		C26.175,62.768,21.9,50.648,21.215,37.438c7.732,8.1,14.73,5.226,22.095,7.84c-1.764-5.308-2.779-11.415-2.578-18.814
		c2.652,3.802,6.063,6.388,10.68,7.055c-6.659-11.475-9.177-26.282-9.943-41.547C54.236,8.434,64.792,4.514,76.454,10.786
		c-3.622-5.39-4.726-12.118-4.419-19.598c4.4,4.332,9.471,7.95,15.835,10.191c1.898-18.217,8.044-30.91,18.782-37.628
		c-0.281,13.57,4.087,26.15,13.625,37.628c3.624-3.13,6.564-7.714,9.207-12.935c2.301,6.687,3.842,13.564,2.578,19.206
		c10.131-3.322,19.086-9.613,27.252-19.206c4.086,10.505,4.385,22.157-0.737,34.1c4.418-0.495,8.837-1.596,13.257-3.136
		c-0.739,4.791-2.577,9.189-6.26,12.935c7.752,0.333,16.305-1.895,25.041-4.704c0.106,10.975-3.298,21.949-13.994,32.925
		c4.911,2.937,9.819,4.64,14.731,5.487c-4.101,3.566-8.665,6.886-14.731,9.407c5.033-0.405,10.065-0.249,15.099,0.392
		c-5.12,2.829-9.736,5.924-12.889,9.799c6.479-0.205,12.805-0.085,17.308,3.92c-4.174,4.442-8.347,8.883-12.521,13.326
		c2.823,0.13,5.647,0.262,8.471,0.392c-4.174,5.879-9.453,12.15-13.626,18.03c-7.12,2.351-10.557,6.665-11.784,14.503
		c-3.56,0.13-6.751,0.654-10.311,0.784c1.228-3.92,2.454-7.84,3.682-11.759c-0.982-1.567-1.964-3.136-2.946-4.703
		c1.474-0.392,2.946-0.784,4.42-1.176c-1.964-3.658-3.928-7.316-5.892-10.974c1.964-2.743,3.928-5.488,5.892-8.232
		c-1.719-4.312-3.437-8.623-5.156-12.935c-1.596-0.653-3.192-1.306-4.788-1.959c1.105-1.437,2.21-2.874,3.314-4.311
		c-1.718,0-3.437,0-5.155,0c-0.123-2.221-0.246-4.442-0.368-6.664c-11.015,1.184-16.812,1.537-27.29,3.474
		c-3.24,1.202-6.213,4.544-8.47,7.839c-0.491-1.306-0.983-2.612-1.474-3.919c-0.905,2.826-1.809,5.438-2.914,8.051
		c-0.982-2.743-2.365-5.7-3.347-8.443c-0.491,1.437-0.982,2.661-1.473,4.098c-1.228-1.567-2.423-3.706-3.651-5.274
		c-9.944-1.829-24.299-3.606-34.242-5.043c-1.104,0.915-2.21,1.83-3.314,2.744c1.719,0.523,3.437,1.045,5.155,1.567
		c-1.473,1.437-2.946,2.875-4.419,4.312c1.35,1.437,2.301,3.088,3.651,4.525c-2.733,0.523-5.032,0.44-7.365,0.963
		c0.982,1.306,2.132,2.365,3.114,3.672c-2.75,3.102-3.938,6.716-4.924,10.438c1.35,1.959,2.5,3.707,3.85,5.666
		c-3.598,3.398-4.381,7.433-4.05,10.83c1.35,0,2.901-0.214,4.251-0.214c-1.35,1.699-2.701,3.185-4.051,4.883
		c1.228,0.13,2.455-0.166,3.683-0.035c-1.014,1.486-1.627,3.61-1.841,5.522c0.737,2.351,1.473,4.704,2.21,7.055
		C58.489,135.986,55.139,136.696,52.149,138.171z"/>
	<g>
		<path fill="none" d="M109.223,89.336c0.248-0.586,0.482-1.172,0.712-1.76c-0.354,0.281-0.709,0.561-1.063,0.842
			C108.988,88.723,109.115,89.034,109.223,89.336z"/>
		<path fill="none" d="M196.139,89.569c-4.503-4.005-10.829-4.124-17.308-3.92c3.154-3.875,7.77-6.971,12.889-9.799
			c-5.034-0.641-10.066-0.797-15.099-0.392c6.066-2.521,10.63-5.841,14.731-9.407c-4.912-0.847-9.82-2.55-14.731-5.487
			c10.696-10.976,14.1-21.95,13.994-32.925c-8.737,2.809-17.289,5.037-25.041,4.704c3.683-3.745,5.52-8.144,6.26-12.935
			c-4.419,1.539-8.839,2.641-13.257,3.136c5.122-11.943,4.823-23.595,0.737-34.1c-8.166,9.593-17.12,15.884-27.252,19.206
			c1.264-5.642-0.277-12.518-2.578-19.206c-2.642,5.221-5.583,9.805-9.207,12.935c-9.539-11.478-13.907-24.058-13.625-37.628
			C95.915-29.531,89.768-16.839,87.87,1.379C81.506-0.863,76.435-4.48,72.035-8.813c-0.307,7.48,0.797,14.208,4.419,19.598
			C64.792,4.514,54.236,8.434,41.469-8.028c0.766,15.266,3.284,30.073,9.943,41.547c-4.617-0.667-8.028-3.253-10.68-7.055
			c-0.201,7.398,0.814,13.506,2.578,18.814c-7.365-2.613-14.363,0.261-22.095-7.84c0.685,13.209,4.96,25.33,12.521,36.452
			c-0.978,0.242-1.958,0.359-2.935,0.391c-1.722,0.056-3.445-0.147-5.167-0.391c3.928,3.695,7.857,6.758,11.784,9.407
			c-5.85-0.435-10.967-1.654-15.835-3.136c4.44,7.031,9.798,13.087,16.203,18.03c-3.191-0.13-6.383-0.262-9.574-0.392
			c4.214,4.008,8.799,7.621,13.994,10.583c-4.542,0-9.084-1.96-13.626-1.96c7.364,3.527,11.169,9.8,13.994,16.462
			c2.152,0.601,3.851,1.824,5.201,3.449c0.899-1.211,1.798-2.423,2.696-3.634c-2.751-4.092-6.187-7.619-10.003-10.007
			c3.401-0.71,6.202-0.143,9.202-0.001c-1.848-5.982-4.353-11.266-7.802-15.542c3.023,0.023,5.711,0.758,8.202,1.916
			c-1.964-2.734-4.373-5-7.402-6.6c2.601-0.656,5.201-1.05,7.802,0c-1.544-3.113-3.791-5.476-6.401-7.452
			c3.268-2.087,6.535-2.529,9.803-2.342c-4.126-2.343-8.543-4.685-13.203-7.027c4.069-0.306,8.135-0.189,12.202,0.639
			c-8.687-5.091-15.719-11.944-21.205-20.44c5.267,1.632,10.536,3.265,15.803,4.897c-3.763-2.51-7.311-5.363-10.002-9.581
			c6.189,1.114,12.48,1.801,19.205,0.639c-3.721-2.362-6.414-6.367-8.002-12.137c6.038,2.723,12.232,4.942,18.804,5.962
			c-6.584-8.478-10.887-18.776-13.203-30.66c11.308,5.884,23.102,10.724,36.009,13.201c-3.628-4.912-5.711-11.057-7.202-17.673
			c5.402,4.258,11.136,8.161,17.604,11.285c-4.451-10.521-3.752-21.773-0.2-33.428c3.951,11.5,9.317,22.354,17.004,32.151
			c3.609-3.546,5.727-7.883,7.201-12.563c1.826,5.811,2.441,11.363,1.601,16.608c8.497-3.928,16.643-9.343,24.606-15.542
			c-0.975,9.762-2.557,19.265-6.201,27.892c4.688-0.818,8.78-2.589,12.403-5.11c-1.135,5.085-2.865,9.961-5.601,14.479
			c6.567-0.02,13.305-1.327,20.405-5.323c-2.785,7.849-7.419,14.717-13.403,20.867c4.135-0.769,8.267-2.354,12.403-4.258
			c-2.753,4.024-5.782,7.759-9.603,10.645c5.055,0.525,10.417,0.397,16.004-0.213c-3.05,3.78-6.487,7.148-10.603,9.795
			c1.867,0.071,3.734,0.142,5.601,0.213c-0.933,1.703-1.867,3.408-2.8,5.111c2.4-0.71,4.801-1.419,7.201-2.13
			c-1.667,3.335-3.334,6.672-5.001,10.007c4.334-0.213,8.668-0.426,13.002-0.639c-1.467,1.419-2.934,2.839-4.4,4.258
			c2.201,0.355,4.4,0.71,6.601,1.065c-5.009,4.535-9.864,9.23-13.804,14.904c2.934-0.142,5.869-0.284,8.803-0.426
			c-3.001,3.335-6.002,6.672-9.003,10.007c-0.032,1.338-0.065,2.676-0.097,4.014c1.554-1.172,3.425-2.104,5.659-2.842
			c4.174-5.879,9.453-12.151,13.626-18.03c-2.823-0.13-5.647-0.262-8.471-0.392C187.792,98.452,191.966,94.011,196.139,89.569z"/>
		<path fill="none" d="M113.61,85.203c0.282-0.412,0.576-0.825,0.88-1.234c-0.345,0.273-0.69,0.547-1.036,0.82
			C113.506,84.927,113.558,85.065,113.61,85.203z"/>
		<path fill="#5F090E" d="M181.903,110.137c-2.934,0.142-5.869,0.284-8.803,0.426c3.94-5.674,8.795-10.369,13.804-14.904
			c-2.201-0.355-4.4-0.71-6.601-1.065c1.466-1.419,2.934-2.839,4.4-4.258c-4.334,0.213-8.668,0.426-13.002,0.639
			c1.667-3.335,3.333-6.672,5.001-10.007c-2.4,0.71-4.801,1.419-7.201,2.13c0.933-1.703,1.867-3.408,2.8-5.111
			c-1.867-0.071-3.734-0.142-5.601-0.213c4.116-2.647,7.553-6.014,10.603-9.795c-5.587,0.609-10.949,0.738-16.004,0.213
			c3.821-2.886,6.849-6.621,9.603-10.645c-4.135,1.904-8.268,3.489-12.403,4.258c5.984-6.149,10.618-13.018,13.403-20.867
			c-7.1,3.996-13.838,5.303-20.405,5.323c2.736-4.518,4.466-9.394,5.601-14.479c-3.623,2.521-7.715,4.292-12.403,5.11
			c3.645-8.626,5.227-18.13,6.201-27.892c-7.962,6.199-16.109,11.614-24.606,15.542c0.84-5.245,0.225-10.797-1.601-16.608
			c-1.474,4.68-3.592,9.017-7.201,12.563c-7.687-9.797-13.053-20.651-17.004-32.151c-3.553,11.655-4.251,22.907,0.2,33.428
			c-6.468-3.123-12.202-7.027-17.604-11.285c1.492,6.616,3.574,12.761,7.202,17.673c-12.907-2.477-24.701-7.317-36.009-13.201
			c2.316,11.884,6.619,22.182,13.203,30.66c-6.572-1.02-12.766-3.238-18.804-5.962c1.587,5.769,4.281,9.775,8.002,12.137
			c-6.724,1.162-13.015,0.475-19.205-0.639c2.691,4.218,6.24,7.071,10.002,9.581c-5.268-1.632-10.536-3.265-15.803-4.897
			c5.486,8.496,12.518,15.349,21.205,20.44c-4.068-0.828-8.134-0.945-12.202-0.639c4.66,2.341,9.077,4.683,13.203,7.027
			c-3.268-0.187-6.535,0.255-9.803,2.342c2.611,1.976,4.858,4.34,6.401,7.452c-2.601-1.05-5.201-0.656-7.802,0
			c3.029,1.601,5.438,3.866,7.402,6.6c-2.491-1.157-5.18-1.893-8.202-1.916c3.449,4.277,5.954,9.561,7.802,15.542
			c-3.001-0.142-5.801-0.709-9.202,0.001c3.816,2.388,7.252,5.915,10.003,10.007c-0.898,1.211-1.797,2.423-2.696,3.634
			c2.481,2.985,3.764,7.345,4.373,11.837c2.99-1.475,6.341-2.185,10.312-1.567c-0.737-2.352-1.473-4.704-2.209-7.055
			c0.214-1.912,0.827-4.037,1.841-5.522c-1.227-0.13-2.455,0.165-3.683,0.035c1.35-1.699,2.701-3.185,4.051-4.883
			c-1.35,0-2.901,0.214-4.251,0.214c-0.331-3.397,0.453-7.433,4.05-10.83c-1.35-1.959-2.5-3.707-3.85-5.666
			c0.986-3.722,2.174-7.336,4.924-10.438c-0.982-1.306-2.132-2.365-3.114-3.672c2.333-0.523,4.632-0.44,7.365-0.963
			c-1.35-1.437-2.301-3.088-3.651-4.525c1.473-1.437,2.946-2.875,4.419-4.312c-1.719-0.522-3.437-1.045-5.155-1.567
			c1.104-0.914,2.209-1.83,3.313-2.744c9.943,1.437,24.299,3.214,34.242,5.043c1.228,1.567,2.423,3.706,3.651,5.274
			c0.491-1.437,0.982-2.661,1.473-4.098c0.874,2.443,2.052,5.046,2.996,7.525c0.354-0.281,0.709-0.561,1.063-0.842
			c0.795-2.035,1.5-4.099,2.202-6.291c0.439,1.168,0.879,2.336,1.318,3.504c0.345-0.273,0.69-0.547,1.036-0.82
			c2.125-2.863,4.755-5.552,7.59-6.604c10.478-1.937,16.275-2.29,27.29-3.474c0.122,2.221,0.246,4.442,0.368,6.664
			c1.719,0,3.437,0,5.155,0c-1.105,1.437-2.209,2.874-3.314,4.311c1.596,0.653,3.192,1.307,4.788,1.959
			c1.719,4.312,3.437,8.623,5.156,12.935c-1.964,2.744-3.928,5.488-5.892,8.232c1.964,3.658,3.928,7.316,5.892,10.974
			c-1.474,0.392-2.946,0.784-4.42,1.176c0.982,1.567,1.964,3.136,2.946,4.703c-1.227,3.92-2.454,7.84-3.682,11.759
			c3.56-0.13,6.751-0.654,10.311-0.784c0.842-5.378,2.726-9.097,6.125-11.661c0.032-1.338,0.064-2.676,0.097-4.014
			C175.901,116.809,178.902,113.472,181.903,110.137z"/>
	</g>
</g>
</svg>
