<?xml version="1.0" encoding="utf-8"?>
<!-- Generator: Adobe Illustrator 17.0.0, SVG Export Plug-In . SVG Version: 6.00 Build 0)  -->
<svg version="1.2" baseProfile="tiny" id="Capa_1" xmlns="http://www.w3.org/2000/svg" xmlns:xlink="http://www.w3.org/1999/xlink"
	 x="0px" y="0px" width="211px" height="228.77px" viewBox="0 0 211 228.77" xml:space="preserve">
<g>
	<g>
		<path fill="#F9B797" d="M53.383,104.271c-1.518-3.225-2.567-6.551-3.591-9.913c-4.108-0.502-9.313,1.034-11.791,3.722
			c-2.817,7.937,0.544,20.444,4.901,25.341c1.605,0.735,6.427-0.419,7.499-0.602C51.543,116.029,52.035,111.861,53.383,104.271z"/>
		<path fill="#F9B797" d="M164.881,104.271c1.518-3.225,2.567-6.551,3.59-9.913c4.109-0.502,9.314,1.034,11.792,3.722
			c2.817,7.937-0.544,20.444-4.901,25.341c-1.604,0.735-5.803,0.461-6.875,0.278C166.677,117.244,166.562,111.526,164.881,104.271z"
			/>
		<path fill="#F79A6C" d="M41.434,101.762c2.337-0.351,4.781,0.37,6.004,2.039c1.99,4.02,0.745,9.225-0.397,11.724
			C47.414,108.703,46.319,105.118,41.434,101.762z"/>
		<path fill="#F79A6C" d="M176.83,101.762c-2.338-0.351-4.781,0.37-6.004,2.039c-1.99,4.02-0.745,9.225,0.396,11.724
			C170.849,108.703,171.944,105.118,176.83,101.762z"/>
		<path fill="#F9B797" d="M85.646,94.459c16.4,8.07,29.489,8.07,45.889,0C113.774,97.864,103.407,97.864,85.646,94.459z"/>
		<path fill="#F9B797" d="M81.938,87.759c19.05,8.071,34.255,8.071,53.305,0C114.611,91.164,102.569,91.164,81.938,87.759z"/>
		<path fill="none" stroke="#28130A" stroke-width="2.126" stroke-miterlimit="22.9256" d="M60,172.453
			c-0.864-16.724-1.726-33.447-2.59-50.171c1.619,1.51,3.237,3.021,4.855,4.531c-2.076-12.246-3.662-24.69,0.648-39.49
			c2.266,6.692,5.206,12.031,8.739,16.185c-0.923-4.362-2.004-8.572-1.618-14.242c10.644,12.913,22.097,24.209,35.281,32.045
			c-1.079-3.237-2.157-6.474-3.237-9.711c7.316,9.083,15.366,17.432,23.952,25.247c-3.435-6.643-6.993-13.228-9.387-20.392
			c3.161,3.704,7.453,6.845,11.652,10.034c-5.827-9.548-11.416-19.216-15.213-29.779c5.836,4.631,11.925,9.007,18.773,12.624
			c-4.353-4.278-8.31-8.953-11.652-14.242c11.113,5.502,21.658,10.248,32.961,15.56c0.625,20.111,0.621,41.506-0.269,62.124
			c3.349-5.933,5.469-12.479,6.797-19.421c0.54,3.561,1.079,7.121,1.619,10.682c3.084-8.288,5.277-18.334,6.339-28.136
			c2.953,5.105,6.203,10.913,10.169,15.513c0.299-7.768-0.225-15.537-1.943-23.305c4.207,4.533,7.489,9.527,10.682,14.566
			c-0.498-5.254-1.077-10.469-2.59-15.214c6.748,4.36,14.437,8.729,23.63,10.682c-12.16-12.516-18.736-19.612-23.306-37.547
			c8.888,6.649,18.348,12.725,29.779,16.832c-18.357-14.261-14.117-25.209-21.001-33.816c7.337,0.583,16.577,2.586,23.914,4.684
			c-5.308-9.151-12.846-16.072-21.687-21.686c3.884-0.324,7.768-0.647,11.653-0.971c-11.85-6.062-19.891-15.455-32.692-21.04
			c6.042,0.187,12.084-0.433,18.126-2.266C164.055,34.687,147.15,2.38,107.93,2.799c-20.98,0.225-40.412,8.718-52.486,26.615
			c-9.489-1.697-12.916,3.416-12.407,11.95c-5.001,5.694-9.732,12.131-13.464,19.094c-10.082,17.62-12.178,33.383-9.406,44.972
			c2.5-7.425,5.001-13.898,9.406-20.373c-6.089,21.882-4.361,41.159,0.971,59.234c1.726-6.905,3.453-13.81,5.179-20.715
			c0.633,11.56,2.358,22.025,6.797,29.779c0.324-6.473,0.647-12.948,0.971-19.421c1.4,12.882,4.231,24.614,8.416,34.958
			c-0.108-6.582-0.216-13.163-0.324-19.745C53.193,158.113,55.854,166.025,60,172.453z"/>
		<path fill="#44210C" d="M60,172.453c-0.864-16.724-1.726-33.447-2.59-50.171c1.619,1.51,3.237,3.021,4.855,4.531
			c-2.076-12.246-3.662-24.69,0.648-39.49c2.266,6.692,5.206,12.031,8.739,16.185c-0.923-4.362-2.004-8.572-1.618-14.242
			c10.644,12.913,22.097,24.209,35.281,32.045c-1.079-3.237-2.157-6.474-3.237-9.711c7.316,9.083,15.366,17.432,23.952,25.247
			c-3.435-6.643-6.993-13.228-9.387-20.392c3.161,3.704,7.453,6.845,11.652,10.034c-5.827-9.548-11.416-19.216-15.213-29.779
			c5.836,4.631,11.925,9.007,18.773,12.624c-4.353-4.278-8.31-8.953-11.652-14.242c11.113,5.502,21.658,10.248,32.961,15.56
			c0.625,20.111,0.621,41.506-0.269,62.124c3.349-5.933,5.469-12.479,6.797-19.421c0.54,3.561,1.079,7.121,1.619,10.682
			c3.084-8.288,5.277-18.334,6.339-28.136c2.953,5.105,6.203,10.913,10.169,15.513c0.299-7.768-0.225-15.537-1.943-23.305
			c4.207,4.533,7.489,9.527,10.682,14.566c-0.498-5.254-1.077-10.469-2.59-15.214c6.748,4.36,14.437,8.729,23.63,10.682
			c-12.16-12.516-18.736-19.612-23.306-37.547c8.888,6.649,18.348,12.725,29.779,16.832c-18.357-14.261-14.117-25.209-21.001-33.816
			c7.337,0.583,16.577,2.586,23.914,4.684c-5.308-9.151-12.846-16.072-21.687-21.686c3.884-0.324,7.768-0.647,11.653-0.971
			c-11.85-6.062-19.891-15.455-32.692-21.04c6.042,0.187,12.084-0.433,18.126-2.266C164.055,34.687,147.15,2.38,107.93,2.799
			c-20.98,0.225-40.412,8.718-52.486,26.615c-9.489-1.697-12.916,3.416-12.407,11.95c-5.001,5.694-9.732,12.131-13.464,19.094
			c-10.082,17.62-12.178,33.383-9.406,44.972c2.5-7.425,5.001-13.898,9.406-20.373c-6.089,21.882-4.361,41.159,0.971,59.234
			c1.726-6.905,3.453-13.81,5.179-20.715c0.633,11.56,2.358,22.025,6.797,29.779c0.324-6.473,0.647-12.948,0.971-19.421
			c1.4,12.882,4.231,24.614,8.416,34.958c-0.108-6.582-0.216-13.163-0.324-19.745C53.193,158.113,55.854,166.025,60,172.453z"/>
	</g>
	<g>
		<path fill="none" d="M193.073,83.611c7.337,0.583,16.577,2.586,23.915,4.684c-5.308-9.151-12.846-16.072-21.687-21.686
			c3.884-0.324,7.768-0.647,11.653-0.971c-11.85-6.062-19.891-15.455-32.692-21.04c6.042,0.187,12.084-0.433,18.126-2.266
			C164.055,34.687,147.15,2.38,107.93,2.799c-20.98,0.225-40.412,8.718-52.486,26.615c-9.489-1.697-12.916,3.416-12.407,11.95
			c-5.001,5.694-9.732,12.131-13.464,19.094c-10.082,17.62-12.178,33.383-9.406,44.972c2.5-7.425,5.001-13.898,9.406-20.373
			c-6.089,21.882-4.361,41.159,0.971,59.234c1.726-6.905,3.453-13.81,5.179-20.715c0.633,11.56,2.358,22.026,6.797,29.779
			c0.324-6.473,0.647-12.948,0.971-19.421c1.4,12.882,4.231,24.614,8.416,34.958c-0.108-6.582-0.216-13.163-0.324-19.745
			c1.609,8.965,4.27,16.877,8.416,23.305c-0.864-16.724-1.726-33.447-2.59-50.171c1.619,1.51,3.237,3.021,4.855,4.531
			c-2.076-12.246-3.662-24.69,0.648-39.49c2.266,6.692,5.206,12.031,8.739,16.185c-0.923-4.362-2.004-8.572-1.618-14.242
			c10.644,12.913,22.097,24.209,35.281,32.045c-1.079-3.237-2.157-6.474-3.237-9.711c7.316,9.083,15.366,17.432,23.952,25.247
			c-3.435-6.643-6.993-13.228-9.387-20.392c3.161,3.704,7.453,6.844,11.652,10.034c-5.827-9.548-11.416-19.216-15.213-29.779
			c5.836,4.631,11.925,9.007,18.773,12.624c-4.353-4.278-8.31-8.953-11.652-14.242c11.113,5.502,21.658,10.248,32.961,15.56
			c0.625,20.111,0.621,41.506-0.269,62.124c3.349-5.933,5.469-12.479,6.797-19.421c0.54,3.56,1.079,7.121,1.619,10.682
			c3.084-8.288,5.277-18.334,6.339-28.136c2.953,5.105,6.203,10.913,10.169,15.513c0.299-7.768-0.225-15.537-1.943-23.305
			c4.207,4.533,7.489,9.527,10.682,14.566c-0.497-5.254-1.077-10.469-2.59-15.214c6.748,4.36,14.437,8.729,23.63,10.682
			c-12.16-12.516-18.736-19.612-23.306-37.547c8.888,6.649,18.347,12.725,29.779,16.832
			C195.718,103.166,199.957,92.218,193.073,83.611z M204.606,136.575c-21.783-6.943-21.743-29.251-31.066-46.977
			c3.157,2.463,6.406,5.688,7.766,9.661C187.195,116.46,191.786,125.717,204.606,136.575z M167.1,68.383
			c2.9,12.062,4.551,24.372,4.925,36.938c-5.815-10.173-12.435-19.753-20.268-28.414c2.793,6.496,4.911,13.33,5.682,20.837
			c-7.167-12.621-20.454-18.809-35.422-22.163c12.785,10.001,25.269,20.117,34.096,35.044
			c-18.501-16.101-41.357-21.974-60.615-38.075c7.161,12.863,13.612,26.094,18.753,39.969
			c-15.524-7.824-25.608-22.448-35.043-37.885c2.989,9.585,6.416,18.954,10.418,28.034c-7.824-6.223-14.972-12.781-21.784-19.51
			c-1.596,4.682-0.703,8.12-0.19,11.744c-2.328-5.203-4.245-10.707-4.546-17.427c-5.809,8.867-9.726,18.156-10.987,28.035
			c-1.855-4.512-4.143-8.37-7.008-11.365c0.457,13.408,2.446,26.055,4.925,38.453c-8.97-16.578-13.697-34.122-11.555-53.228
			c-2.526,2.652-5.43,6.441-7.767,11.366c1.505-13.331,8.138-25.832,16.67-35.044c-13.543,6.992-21.878,21.801-26.33,42.431
			c-0.162-22.205,9.943-39.492,24.429-55.258c-0.963-2.85-1.209-6.631,0.948-9.341c2.219-2.789,6.572-3.361,10.235-1.51
			c15.618-19.822,32.125-27.71,48.87-27.838c33.641-0.258,47.926,21.399,74.254,35.983c-3.885,1.79-8.11,2.566-12.502,2.842
			c14.651,5.83,21.779,16.268,35.232,21.972c-13.323,0.19-19.449-11.933-33.149-11.933c1.915,5.208,6.092,11.641,11.934,12.88
			c14.695,3.117,25.016,8.35,32.96,20.458c-9.312-4.688-19.419-9.897-28.224-12.312c7.829,12.376,10.354,27.214,21.593,39.021
			C188.603,101.919,186.326,73.402,167.1,68.383z"/>
		<path fill="#28130A" d="M214.266,86.378c-7.944-12.107-18.265-17.341-32.96-20.458c-5.842-1.239-10.019-7.673-11.934-12.88
			c13.701,0,19.826,12.123,33.149,11.933c-13.453-5.704-20.581-16.143-35.232-21.972c4.392-0.276,8.616-1.052,12.502-2.842
			c-26.329-14.584-40.614-36.241-74.254-35.983c-16.746,0.128-33.252,8.016-48.87,27.838c-3.663-1.851-8.016-1.28-10.235,1.51
			c-2.156,2.71-1.911,6.491-0.948,9.341C30.997,58.631,20.893,75.917,21.055,98.123c4.452-20.63,12.786-35.439,26.33-42.431
			c-8.532,9.212-15.165,21.713-16.67,35.044c2.337-4.925,5.241-8.714,7.767-11.366c-2.142,19.107,2.585,36.65,11.555,53.228
			c-2.48-12.398-4.468-25.045-4.925-38.453c2.865,2.995,5.153,6.853,7.008,11.365c1.261-9.879,5.177-19.168,10.987-28.035
			c0.301,6.719,2.218,12.224,4.546,17.427c-0.514-3.624-1.406-7.062,0.19-11.744c6.811,6.729,13.959,13.288,21.784,19.51
			c-4.003-9.081-7.429-18.45-10.418-28.034c9.435,15.437,19.519,30.061,35.043,37.885c-5.141-13.875-11.592-27.106-18.753-39.969
			c19.259,16.101,42.115,21.974,60.615,38.075c-8.827-14.927-21.31-25.043-34.096-35.044c14.968,3.354,28.254,9.543,35.422,22.163
			c-0.771-7.507-2.889-14.342-5.682-20.837c7.834,8.661,14.453,18.24,20.268,28.414C171.651,92.755,170,80.444,167.1,68.383
			c19.226,5.019,21.503,33.536,40.536,44.704c-11.239-11.807-13.764-26.646-21.593-39.021
			C194.848,76.481,204.955,81.69,214.266,86.378z"/>
		<path fill="#28130A" d="M173.54,89.598c9.323,17.726,9.283,40.034,31.066,46.977c-12.82-10.859-17.411-20.115-23.3-37.316
			C179.946,95.286,176.697,92.061,173.54,89.598z"/>
	</g>
</g>
</svg>
