<?xml version="1.0" encoding="utf-8"?>
<!-- Generator: Adobe Illustrator 17.0.0, SVG Export Plug-In . SVG Version: 6.00 Build 0)  -->
<svg version="1.2" baseProfile="tiny" id="Capa_1" xmlns="http://www.w3.org/2000/svg" xmlns:xlink="http://www.w3.org/1999/xlink"
	 x="0px" y="0px" width="211px" height="228.77px" viewBox="0 0 211 228.77" xml:space="preserve">
<polyline fill="#873177" points="183.461,228.525 154.653,228.525 33.603,228.525 "/>
<line fill="none" x1="155.801" y1="224.486" x2="178.722" y2="224.486"/>
<line fill="none" x1="66.529" y1="224.486" x2="151.529" y2="224.486"/>
<line fill="none" x1="38.512" y1="224.486" x2="62.257" y2="224.486"/>
<g>
	<path fill="#F9B797" d="M53.383,104.271c-1.518-3.225-2.567-6.551-3.591-9.913c-4.108-0.502-9.313,1.034-11.791,3.722
		c-2.817,7.937,0.544,20.444,4.901,25.341c1.605,0.735,6.427-0.419,7.499-0.602C51.543,116.029,52.035,111.861,53.383,104.271z"/>
	<g>
		<path fill="none" d="M40.084,99.767c2.478-2.689,5.746-4.524,9.856-4.021c0.106,0.013,0.199,0.045,0.302,0.063
			c-0.15-0.483-0.302-0.965-0.449-1.449c-4.108-0.502-9.313,1.034-11.791,3.722c-2.817,7.937,0.544,20.444,4.901,25.341
			c0.292,0.134,0.692,0.203,1.154,0.229C39.896,118.555,37.339,107.496,40.084,99.767z"/>
		<path fill="none" d="M50.111,122.873c0.112-0.022,0.213-0.041,0.289-0.054c0.04-0.238,0.077-0.465,0.116-0.697
			C50.381,122.387,50.246,122.64,50.111,122.873z"/>
		<path fill="#FCCCA1" d="M53.383,104.271c-1.299-2.76-2.251-5.596-3.141-8.463c-0.103-0.017-0.197-0.05-0.302-0.063
			c-4.11-0.503-7.377,1.333-9.856,4.021c-2.744,7.73-0.187,18.788,3.973,23.884c1.9,0.106,4.88-0.548,6.055-0.777
			c0.135-0.233,0.27-0.487,0.405-0.751C51.577,115.74,52.082,111.595,53.383,104.271z"/>
	</g>
	<path fill="#F9B797" d="M164.881,104.271c1.518-3.225,2.567-6.551,3.59-9.913c4.109-0.502,9.314,1.034,11.792,3.722
		c2.817,7.937-0.544,20.444-4.901,25.341c-1.604,0.735-5.803,0.461-6.875,0.278C166.677,117.244,166.562,111.526,164.881,104.271z"
		/>
	<g>
		<path fill="none" d="M180.263,98.08c-2.478-2.688-7.683-4.224-11.792-3.722c-0.147,0.485-0.299,0.967-0.449,1.45
			c0.103-0.017,0.197-0.05,0.303-0.063c4.11-0.503,7.376,1.333,9.855,4.021c2.761,7.779,0.156,18.931-4.051,23.982
			c0.484-0.075,0.912-0.18,1.233-0.328C179.718,118.525,183.08,106.017,180.263,98.08z"/>
		<path fill="none" d="M168.486,123.7c0.062,0.011,0.136,0.021,0.218,0.032c-0.112-0.156-0.225-0.325-0.338-0.506
			C168.409,123.385,168.442,123.54,168.486,123.7z"/>
		<path fill="#FCCCA1" d="M178.179,99.767c-2.478-2.689-5.745-4.524-9.855-4.021c-0.106,0.013-0.2,0.045-0.303,0.063
			c-0.89,2.867-1.841,5.703-3.141,8.463c1.64,7.076,1.801,12.694,3.486,18.955c0.113,0.181,0.225,0.351,0.338,0.506
			c1.049,0.141,3.632,0.295,5.424,0.017C178.335,118.698,180.94,107.545,178.179,99.767z"/>
	</g>
	<path fill="#F79A6C" d="M41.434,101.762c2.337-0.351,4.781,0.37,6.004,2.039c1.99,4.02,0.745,9.225-0.397,11.724
		C47.414,108.703,46.319,105.118,41.434,101.762z"/>
	<path fill="#F79A6C" d="M176.83,101.762c-2.338-0.351-4.781,0.37-6.004,2.039c-1.99,4.02-0.745,9.225,0.396,11.724
		C170.849,108.703,171.944,105.118,176.83,101.762z"/>
	<g>
		<g>
			<path fill="#231F20" d="M39.941,124.13c3.561,2.304,5.723,4.287,7.655,9.661c2.227,0.324,4.076,1.963,6.115,2.099
				c-0.544-5.301-1.087-10.6-1.631-15.901c0.924-2.475,2.242-4.553,3.67-6.523c-1.359-0.272-2.718-0.544-4.078-0.816
				c2.176-2.716,4.976-5.122,8.155-7.339c-1.631,0.272-3.262,0.544-4.893,0.816c1.495-1.223,2.99-2.447,4.485-3.67
				c-1.767,0.136-3.533,0.272-5.3,0.408c2.344-2.651,4.902-4.873,7.747-6.523c-1.631,0.136-3.262,0.272-4.893,0.407
				c1.767-1.495,3.533-2.99,5.301-4.485c-1.359,0.408-2.718,0.816-4.078,1.223c1.927-1.927,4.095-4.095,6.523-6.523
				c-1.766,0.271-3.533,0.544-5.3,0.815c1.785-2.845,4.142-5.404,6.931-7.746c-1.495,0.136-2.989,0.272-4.484,0.408
				c0.951-1.495,1.902-2.99,2.853-4.485c3.043,0.512,5.708,0.459,8.563,0.032c3.282-0.043,6.5-0.112,8.969,1.599
				c2.494,1.349,5.065,1.347,8.186,0.252c2.561,2.475,5.689,1.754,8.626,1.035c2.557,2.735,7.662,4.389,11.727,0.971
				c3.783,0.63,7.946-0.065,12.232-1.442c4.119,0.344,8.553-0.629,13.674-1.788c3.548,1.211,7.026,1.359,10.757,0.533
				c6.886,1.936,5.26,8.908,11.446,12.263c-1.902,0.408-3.993,0.064-5.896,0.471c1.794,1.495,4.322,3.741,7.119,5.237
				c-1.766,0.272-3.533,0.544-5.299,0.816c3.946,1.487,7.25,3.938,10.192,6.931c-1.767,0.136-3.533,0.272-5.3,0.407
				c1.359,1.359,2.718,2.718,4.077,4.078c-1.359,0-2.718,0-4.077,0c2.175,2.31,4.349,4.62,6.524,6.931
				c-2.434,1.067-4.119,1.945-5.425,3.952c1.983,0.838,4.127,2.645,4.609,4.61c-0.815,4.349-1.631,8.698-2.446,13.047
				c2.446-0.92,4.893-2.402,7.339-2.947c1.863-4.276,3.376-6.136,7.246-8.908c-0.512-4.432,3.299-9.618,0.908-14.238
				c2.374-5.732,3.33-11.36,0.188-16.088c1.546-7.719,0.61-14.486-3.858-20.198c-0.308-7.512-1.387-11.682-7.213-15.683
				c1.781-8.192-4.896-16.949-12.889-17.622c-0.557-6.595-8.135-10.463-14.959-9.911c-3.736-6.959-11.795-10.718-20.794-7.338
				c-9.675-7.95-25.326-7.779-35.879,0.814c-5.996-0.881-12.223,1.612-15.085,8.563c-4.869,0.633-8.299,3.479-8.468,8.75
				c-4.139,1.979-8.089,7.528-8.468,12.888c-4.753,2.836-8.756,9.619-7.118,15.463c-5.216,3.109-5.869,8.303-3.922,12.86
				c-3.189,2.709-3.489,8.989-0.971,12.826c-2.892,3.704-1.661,9.06-0.032,12.26C36.831,112.394,37.35,117.24,39.941,124.13z"/>
			<path fill="#6D6E70" d="M155.748,79.971c2.041-0.985,3.765-2.042,5.152-3.681c13.447-0.19,9.599-10.281,5.889-15.949
				c7.602,3.998,9.287,18.405-4.908,17.421C160.242,79.309,158.042,79.736,155.748,79.971z"/>
			<path fill="#6D6E70" d="M156.238,82.915c2.728,1.359,5.396,2.823,9.814,1.227c1.625,3.942,5.73,5.909,9.796,4.503
				c0.211-5.223-1.449-9.201-4.199-12.086c1.064-0.654,1.192-0.842,2.255-1.496c4.073,4.421,4.763,10.766,3.435,16.331
				c-4.889,1.885-9.509-0.183-11.934-4.685C161.143,86.621,158.423,85.495,156.238,82.915z"/>
			<path fill="#6D6E70" d="M161.039,93.46c2.65,3.234,5.367,6.202,10.128,4.363c0.825,3.39,3.322,5.611,5.765,5.921
				c1.018-3.036,0.279-7.145-1.246-10.284c3.555,2.541,4.4,7.639,1.87,13.244c-3.22-0.103-6.129-2.545-7.168-5.609
				C164.69,100.891,162.445,98.019,161.039,93.46z"/>
			<path fill="#6D6E70" d="M174.751,107.796c2.755,6.768,1.088,9.28-3.428,12.154C180.889,119.009,177.746,111.76,174.751,107.796z"
				/>
			<path fill="#6D6E70" d="M41.814,107.664c-1.684,8.407,0.375,11.276,5.333,14.315C37.454,121.739,39.449,112.717,41.814,107.664z"
				/>
			<path fill="#6D6E70" d="M146.704,75.697c8.136-1.28,15.625-7.219,14.335-15.736c6.73-1.752,1.84-15.18-7.168-18.074
				c8.824-0.801,17.511,13.833,8.882,19.165C164.395,71.144,155.159,75.462,146.704,75.697z"/>
			<path fill="#6D6E70" d="M137.043,75.23c3.715-3.768,5.686-8.333,4.83-14.178c7.46-1.967,17.096-24.025-2.337-28.514
				c22.209,0.475,14.118,27.346,4.519,29.917C144.465,69.513,141.206,72.746,137.043,75.23z"/>
			<path fill="#6D6E70" d="M122.553,76.633c6.184-6.138,9.452-13.285,8.882-21.969c10.655-12.799,3.574-30.416-12.154-29.917
				c12.87-3.105,29.209,10.951,14.179,30.384C134.155,65.153,130.063,72.737,122.553,76.633z"/>
			<path fill="#6D6E70" d="M110.244,78.191c2.376-5.806,4.383-12.68,2.337-19.788c5.869-11.063,6.908-22.905,0.935-32.565
				c-8.155-4.078-18.179-4.023-26.8,0.467c0.155,3.298,0.829,6.623,2.181,10.595c-2.764-3.13-4.769-6.841-5.297-11.374
				c9.988-8.293,25.328-6.405,32.409-1.402c5.653,9.025,5.254,22.811-0.935,33.967C117.34,66.341,115.04,72.848,110.244,78.191z"/>
			<path fill="#6D6E70" d="M58.047,88.007c-1.074,0.744-3.497,1.074-4.986,0.156c-2.637,4.727-7.233,7.686-11.998,6.389
				c-2.091-4.057-2.125-9.868,2.649-12.465c-2.078,3.169-2.597,7.271-0.935,9.972c4.622,0.883,8.31-2.441,9.661-6.077
				C53.473,87.18,56.18,88.054,58.047,88.007z"/>
			<path fill="#6D6E70" d="M60.072,82.337c-1.311,0.183-3.817-0.619-4.982-2.124c-4.186,3.068-9.72,3.651-13.998,0.317
				c-0.713-4.609,1.195-9.867,6.783-10.043c-3.113,1.915-4.996,5.381-4.256,8.572c4.275,2.895,9.033,1.571,11.582-1.096
				C55.826,79.514,58.21,81.532,60.072,82.337z"/>
			<path fill="#6D6E70" d="M54.225,101.614c-0.877,0.559-2.857,0.719-4.074-0.098c-2.154,3.743-5.91,5.955-9.802,4.679
				c-1.708-3.408-1.735-8.158,2.164-10.065c-1.697,2.495-2.121,5.823-0.763,8.105c3.776,0.929,6.79-1.62,7.892-4.53
				C50.488,100.731,52.699,101.568,54.225,101.614z"/>
			<path fill="#6D6E70" d="M62.098,77.1c-3.706-0.579-7.023-0.943-7.791-5.297c-3.792-0.197-6.807-0.941-8.725-4.363
				c0.725-4.87,2.806-8.894,6.856-11.686c0.623,1.038,0.623,1.61,1.246,2.649c-3.518,2.835-4.797,5.525-5.298,8.414
				c1.54,2.78,3.964,3.297,7.167,3.116C55.887,73.753,59.249,75.792,62.098,77.1z"/>
			<path fill="#6D6E70" d="M65.058,74.607c-3.89-1.938-6.46-5.322-5.453-11.062c-3.347-2.656-5.69-5.967-6.545-10.284
				c1.04-5.147,2.699-7.683,7.479-9.817c-3.116,3.324-4.363,6.025-4.986,9.817c0.657,4.486,3.806,7.256,6.545,9.661
				C60.62,67.741,62.369,71.455,65.058,74.607z"/>
			<path fill="#6D6E70" d="M73.94,74.14c-3.727-1.288-6.327-5.445-4.207-11.062c-12.478-18.042-9.857-27.144-1.403-29.761
				c-7.291,4.462-5.072,16.574,3.584,29.294C69.586,67.084,71.224,70.913,73.94,74.14z"/>
			<path fill="#6D6E70" d="M84.691,74.295c-4.364-1.508-7.408-6.375-4.926-12.952c-16.479-20.97-9.983-34.277,1.632-35.626
				c-12.745,6.004-10.46,21.433,0.923,35.078C79.594,66.034,81.512,70.517,84.691,74.295z"/>
			<path fill="#6D6E70" d="M92.481,75.697c-3.797-1.908-7.671-5.741-5.298-13.555c-6.15-8.396-9.599-22.764-3.895-31.787
				c0.123,0.759,1.017,2.772,2.025,4.363c-4.325,5.529-1.519,21.087,4.363,26.956C86.923,64.923,89.064,71.872,92.481,75.697z"/>
		</g>
	</g>
</g>
</svg>
