<?xml version="1.0" encoding="utf-8"?>
<!-- Generator: Adobe Illustrator 17.0.0, SVG Export Plug-In . SVG Version: 6.00 Build 0)  -->
<svg version="1.2" baseProfile="tiny" id="Capa_1" xmlns="http://www.w3.org/2000/svg" xmlns:xlink="http://www.w3.org/1999/xlink"
	 x="0px" y="0px" width="211px" height="228.77px" viewBox="0 0 211 228.77" xml:space="preserve">
<g>
	<path fill-rule="evenodd" fill="none" stroke="#041723" stroke-width="2.126" stroke-miterlimit="22.9256" d="M58.634,239.897
		c-8.194-52.729-14.935-104.69-12.588-160.57c1.107-26.37,29.949-54.541,61.113-54.432c31.971,0.113,58.463,18.859,63.114,51.56
		c7.325,51.497-3.079,110.888-12.961,165.231c-8.808,4.314-17.617,8.629-26.425,12.943c13.476-47.995,23.741-97.06,26.782-145.056
		c-35.407-7.905-58.126-23.716-71.359-46.561C73.297,68.525,61.982,85.527,62.213,99.28c0.939,55.888,10.656,104.488,20.677,153.731
		C75.16,248.877,66.364,244.032,58.634,239.897z"/>
	<path fill-rule="evenodd" fill="#1B4B68" d="M58.634,239.897c-8.194-52.729-14.935-104.69-12.588-160.57
		c1.107-26.37,29.949-54.541,61.113-54.432c31.971,0.113,58.463,18.859,63.114,51.56c7.325,51.497-3.079,110.888-12.961,165.231
		c-8.808,4.314-17.617,8.629-26.425,12.943c13.476-47.995,23.741-97.06,26.782-145.056c-35.407-7.905-58.126-23.716-71.359-46.561
		C73.297,68.525,61.982,85.527,62.213,99.28c0.939,55.888,10.656,104.488,20.677,153.731
		C75.16,248.877,66.364,244.032,58.634,239.897z"/>
	<g>
		<path fill="none" d="M170.272,76.455c-4.651-32.701-31.143-51.447-63.114-51.56c-31.164-0.11-60.006,28.062-61.113,54.432
			c-2.347,55.88,4.395,107.842,12.588,160.57c3.242,1.734,6.673,3.594,10.132,5.473c-1.204-6.293-2.278-12.474-3.632-18.747
			c-0.948,3.438-1.897,6.877-2.845,10.315c-0.83-5.336-1.66-10.67-2.49-16.006c1.778,0.711,3.557,1.422,5.336,2.133
			c-0.948-4.505-1.897-9.01-2.845-13.516c-0.949,2.371-1.897,4.742-2.846,7.114c-6.763-40.881-9.578-83.676-10.314-127.336
			c1.778-2.371,3.556-4.743,5.335-7.114c-0.593,2.727-1.185,5.454-1.778,8.181c1.778-2.134,3.557-4.267,5.336-6.402
			c0.593,1.304,1.185,2.608,1.778,3.912c2.371-3.912,4.742-7.826,7.114-11.738c-2.608,1.66-5.216,3.32-7.825,4.98
			c-0.593-2.015-1.186-4.031-1.779-6.047c-2.371,1.66-5.263,4.709-7.634,6.369c3.705-24.872,18.419-39.063,37.529-50.267
			c-6.525,7.728-11.97,15.557-15.625,24.857c3.888-6.389,10.862-12.454,18.454-16.526c-3.319,5.81-6.64,11.619-9.959,17.428
			c5.45-3.678,10.167-7.844,14.228-12.449c-0.963,4.145-2.629,8.055-4.98,11.738c7.966-6.262,15.478-12.977,22.052-20.63
			c-0.629,4.087-2.252,7.51-4.268,10.67c3.777-2.735,5.471-4.428,7.858-8.032c3.739,7.461,7.999,14.227,13.127,20.125
			c0.933-3.783,0.156-8.171-1.224-13.342c4.733,5.114,8.795,9.978,12.25,14.054c-1.666-5.745-3.767-10.665-6.535-14.558
			c5.186,3.231,11.42,8.309,16.139,12.069c-6.222-10.987-14.187-18.354-24.005-25.626c15.732,5.804,35.377,19.679,42.5,45.188
			c-2.067-1.65-2.532-2.943-4.309-4.07c0.19,3.778,0.207,6.166,0.396,10.117c-3.201-2.845-7.444-5.169-10.645-8.015
			c0.237,2.371-0.221,4.222-0.158,6.42c-2.151-1.083-3.606-1.994-6.451-3.773c0.711,2.964,1.422,5.059,1.96,7.502
			c-4.599-2.861-7.809-5.55-11.539-9.106c-0.537,3.201-1.249,6.054-1.265,8.908c-3.556-2.015-7.288-4.553-10.67-6.916
			c-0.593,1.897-1.186,3.794-1.779,5.691c-5.092-1.903-9.355-4.635-13.516-7.47c4.804,4.844,8.411,8.567,14.616,12.474
			c0.593-1.897,2.053-3.273,3.168-4.649c3.804,2.718,7.33,5.363,10.671,8.544c0.073-2.893,0.316-5.437,0.909-7.808
			c4.031,2.608,8.931,6.085,12.962,8.867c0.008-3.549-0.505-7.271-0.149-10.473c2.845,3.676,6.907,8.22,9.752,11.895
			c0-2.727,0-5.454,0-8.181c2.193,3.143,4.707,5.965,7.826,8.181c-0.778,41.706-3.626,83.247-9.96,124.49
			c-1.314-3.195-3.095-6.159-5.335-8.893c-0.593,4.861-1.185,9.722-1.778,14.584c1.897-0.948,3.793-1.897,5.69-2.846
			c-1.778,4.861-3.557,9.722-5.336,14.583c-0.948-2.608-1.897-5.217-2.845-7.825c-0.863,6.137-1.726,12.275-2.589,18.413
			c3.49-1.709,6.979-3.418,10.469-5.128C167.193,187.343,177.598,127.952,170.272,76.455z"/>
		<path fill="#002F48" d="M152.277,236.226c1.778-4.861,3.557-9.722,5.336-14.583c-1.897,0.948-3.793,1.897-5.69,2.846
			c0.593-4.862,1.185-9.722,1.778-14.584c2.24,2.734,4.02,5.698,5.335,8.893c6.334-41.243,9.182-82.784,9.96-124.49
			c-3.118-2.216-5.633-5.038-7.826-8.181c0,2.727,0,5.454,0,8.181c-2.845-3.676-6.907-8.22-9.752-11.895
			c-0.356,3.201,0.158,6.924,0.149,10.473c-4.031-2.782-8.931-6.259-12.962-8.867c-0.593,2.371-0.837,4.915-0.909,7.808
			c-3.341-3.181-6.867-5.827-10.671-8.544c-1.114,1.376-2.574,2.752-3.168,4.649c-6.206-3.907-9.812-7.63-14.616-12.474
			c4.161,2.834,8.424,5.567,13.516,7.47c0.593-1.897,1.186-3.794,1.779-5.691c3.383,2.363,7.114,4.9,10.67,6.916
			c0.016-2.854,0.728-5.707,1.265-8.908c3.73,3.556,6.94,6.245,11.539,9.106c-0.537-2.443-1.248-4.538-1.96-7.502
			c2.845,1.778,4.3,2.689,6.451,3.773c-0.063-2.198,0.395-4.048,0.158-6.42c3.201,2.845,7.443,5.169,10.645,8.015
			c-0.19-3.951-0.207-6.339-0.396-10.117c1.777,1.127,2.242,2.42,4.309,4.07c-7.123-25.509-26.768-39.384-42.5-45.188
			c9.818,7.272,17.783,14.639,24.005,25.626c-4.719-3.76-10.953-8.838-16.139-12.069c2.768,3.893,4.869,8.813,6.535,14.558
			c-3.455-4.076-7.517-8.939-12.25-14.054c1.38,5.172,2.157,9.559,1.224,13.342c-5.129-5.898-9.389-12.663-13.127-20.125
			c-2.387,3.604-4.081,5.297-7.858,8.032c2.017-3.16,3.64-6.583,4.268-10.67c-6.575,7.653-14.087,14.368-22.052,20.63
			c2.351-3.683,4.017-7.592,4.98-11.738c-4.061,4.604-8.777,8.771-14.228,12.449c3.319-5.81,6.64-11.618,9.959-17.428
			c-7.593,4.073-14.566,10.137-18.454,16.526c3.655-9.299,9.1-17.128,15.625-24.857C68.094,42.406,53.379,56.597,49.674,81.469
			c2.371-1.66,5.263-4.709,7.634-6.369c0.593,2.015,1.186,4.031,1.779,6.047c2.608-1.66,5.217-3.319,7.825-4.98
			c-2.371,3.912-4.742,7.826-7.114,11.738c-0.593-1.304-1.185-2.608-1.778-3.912c-1.778,2.134-3.557,4.268-5.336,6.402
			c0.593-2.727,1.185-5.454,1.778-8.181c-1.778,2.371-3.557,4.742-5.335,7.114c0.737,43.66,3.551,86.454,10.314,127.336
			c0.949-2.371,1.897-4.742,2.846-7.114c0.948,4.505,1.897,9.01,2.845,13.516c-1.778-0.711-3.557-1.422-5.336-2.133
			c0.83,5.336,1.66,10.67,2.49,16.006c0.948-3.438,1.897-6.877,2.845-10.315c1.353,6.273,2.427,12.455,3.632,18.747
			c4.79,2.602,9.636,5.241,14.124,7.641C72.869,203.768,63.153,155.168,62.213,99.28c-0.231-13.753,11.083-30.756,24.095-36.268
			c13.233,22.845,35.952,38.656,71.359,46.561c-3.041,47.995-13.306,97.06-26.782,145.056c5.319-2.605,10.638-5.21,15.957-7.815
			c0.863-6.137,1.726-12.275,2.589-18.413C150.38,231.009,151.329,233.618,152.277,236.226z"/>
	</g>
</g>
</svg>
