<?xml version="1.0" encoding="utf-8"?>
<!-- Generator: Adobe Illustrator 17.0.0, SVG Export Plug-In . SVG Version: 6.00 Build 0)  -->
<svg version="1.2" baseProfile="tiny" id="Capa_1" xmlns="http://www.w3.org/2000/svg" xmlns:xlink="http://www.w3.org/1999/xlink"
	 x="0px" y="0px" width="211px" height="228.77px" viewBox="0 0 211 228.77" xml:space="preserve">
<g>
	<path fill-rule="evenodd" fill="#3F1112" d="M125.71,30.55l-0.648,3.613c-1.273,7.399-2.019,14.822-2.99,22.264l-0.193,1.482
		c-10.206,9.272-18.596,8.529-28.721,1.163l-0.27-1.453c-1.741-9.401-3.347-18.782-5.379-28.13l9.696-18.792l1.46-0.389
		c5.38-1.433,10.798-1.382,16.183-0.009l1.485,0.379L125.71,30.55z"/>
	<g>
		<path fill-rule="evenodd" fill="#781113" imag="0" d="M101.153,53.376l1.146,6.968c-0.374-0.141-0.756-0.305-1.146-0.487V53.376
			L101.153,53.376z M101.153,38.725l3.513,22.544c1.136,0.274,2.294,0.316,3.489,0.136l-1.157-30.253
			c-1.641,0-3.928,0.051-5.845,0.147V38.725L101.153,38.725z M109.61,31.266c1.106,0.056,4.01,0.134,5.218,0.233l-1.974,28.189
			c-0.85,0.472-1.677,0.855-2.486,1.146L109.61,31.266L109.61,31.266z M117.189,31.721c0.941,0.102,3.876,0.41,4.906,0.534
			c-1.538,8.497-2.214,15.819-3.249,23.752l-3.96,2.593L117.189,31.721z M96.087,57.027c-1.35-7.286-2.939-16.92-4.637-24.722
			c1.557-0.182,4.761-0.541,6.125-0.681l3.578,21.752v6.481C99.627,59.145,97.97,58.142,96.087,57.027L96.087,57.027z M101.153,31.3
			c-0.402,0.02-0.787,0.043-1.147,0.067l1.147,7.358V31.3z"/>
		<path fill-rule="evenodd" fill="#951B1E" imag="1" d="M99.502,13.454c4.848-1.291,9.695-1.236,14.543,0l8.05,17.06
			c-1.885-0.236-3.771-0.427-5.657-0.574l-6.581-16.547l3.342,16.337c-2.244-0.116-4.488-0.171-6.733-0.163l-1.102-15.978
			l-1.49,16.014c-1.457,0.035-2.913,0.095-4.37,0.181l2.343-14.241l-4.804,14.41c-1.864,0.146-3.728,0.333-5.592,0.562
			L99.502,13.454z"/>
	</g>
</g>
</svg>
