<?xml version="1.0" encoding="utf-8"?>
<!-- Generator: Adobe Illustrator 17.0.0, SVG Export Plug-In . SVG Version: 6.00 Build 0)  -->
<svg version="1.2" baseProfile="tiny" id="Capa_1" xmlns="http://www.w3.org/2000/svg" xmlns:xlink="http://www.w3.org/1999/xlink"
	 x="0px" y="0px" width="211px" height="228.77px" viewBox="0 0 211 228.77" xml:space="preserve">
<g>
	<path fill-rule="evenodd" fill="#231F20" d="M111.052,16.066c2.026,8.027,4.368,17.426,8.448,19.416
		c2.134,1.042-1.48-3.64-2.093-6.575c1.871,1.604,4.516,3.292,6.644,4.38c1.48,3.914,4.242,6.026,7.181,8.908
		c0.122-2.079-0.44-1.927-0.318-4.006c2.076,3.875,6.531,4.333,6.765,10.736c-3.178-1.323-15.177-5.034-13.167-0.529
		c1.335,2.993,5.62,4.484,9.251,6.93c-6.801-0.616-11.635-0.228-9.817,5.144c2.336,6.906-3.866,13.224-12.285,13.235
		c-5.172,0.006-16.973-3.299-13.575-13.841c0.514-1.597,0.942-2.711-0.924-3.74c-2.549-1.405-7.792-0.991-9.305-0.84
		c2.177-1.174,5.193-2.796,6.942-4.485c-1.604,0.184-3.205,0.283-5.152-0.39c3.576-0.733,8.136-1.712,7.876-3.482
		c-0.168-1.146-9.661-0.525-13.745-1.183c4.169-1.872,5.881-4.356,5.954-7.662c1.204,0.628,2.188,1.48,2.935,2.569
		c2.187-1.8,4.515-4.06,5.232-7.209c1.957-1.712,3.536-2.863,5.818-3.994c-1.03,1.749-1.587,4.488,0,4.07
		C107.513,32.518,110.683,22.165,111.052,16.066z"/>
	<path fill-rule="evenodd" fill="#716275" d="M111.571,35.714c2.633,7.22,7.263,12.692,12.256,12.43
		c-1.186,5.234-5.584,3.537-8.068-0.262C113.543,44.498,112.97,40.389,111.571,35.714z"/>
	<path fill-rule="evenodd" fill="#716275" d="M111.743,27.602c2.633,7.219,6.746,12.346,11.394,10.184
		C118.996,54.069,112.136,33.641,111.743,27.602z"/>
	<path fill-rule="evenodd" fill="#716275" d="M110.879,40.894c-1.145,10.064-0.83,19.354,0.346,28.138
		c0.517,3.859,3.178,2.468,3.106-0.345c-0.098-3.914-0.518-8-0.69-11.912c1.345,3.465,2.664,6.753,4.662,9.148
		c2.291,2.75,6.057-0.24,3.106-5.006C117.11,53.977,112.894,53.725,110.879,40.894z"/>
	<path fill-rule="evenodd" fill="#716275" d="M100.177,64.889c2.833,0.707,5.336-1.052,7.249-7.251
		C109.483,66.619,105.124,71.005,100.177,64.889z"/>
</g>
</svg>
