<?xml version="1.0" encoding="utf-8"?>
<!-- Generator: Adobe Illustrator 17.0.0, SVG Export Plug-In . SVG Version: 6.00 Build 0)  -->
<!DOCTYPE svg PUBLIC "-//W3C//DTD SVG 1.1//EN" "http://www.w3.org/Graphics/SVG/1.1/DTD/svg11.dtd">
<svg version="1.1" id="Capa_1" xmlns="http://www.w3.org/2000/svg" xmlns:xlink="http://www.w3.org/1999/xlink" x="0px" y="0px"
	 width="211px" height="228.77px" viewBox="0 0 211 228.77" enable-background="new 0 0 211 228.77" xml:space="preserve">
<g>
	<path fill="#8B2C70" d="M31.713,227.898"/>
</g>
<path fill-rule="evenodd" clip-rule="evenodd" fill="#873177" d="M156.604,208.051H33.875l6.713-34.179
	c3.334-16.974,14.578-32.601,33.313-32.601h73.1c18.686,0,30.562,15.475,33.339,32.74l5.472,34.04H156.604z"/>
<path fill-rule="evenodd" clip-rule="evenodd" fill="#BE6EAB" d="M38.852,203.957h24.074L56.784,171.1l2.378,1.635l8.096,31.221
	h86.178l8.096-31.221l2.377-1.635l-6.142,32.856h23.239l-4.709-29.295c-2.556-15.91-13.185-29.296-29.296-29.296h-73.1
	c-16.113,0-26.192,13.485-29.296,29.296L38.852,203.957z"/>
<g>
	<defs>
		<path id="SVGID_1_" d="M38.852,203.957h24.074L56.784,171.1l2.378,1.635l8.096,31.221h86.178l8.096-31.221l2.377-1.635
			l-6.142,32.856h23.239l-4.709-29.295c-2.556-15.91-13.185-29.296-29.296-29.296h-73.1c-16.113,0-26.192,13.485-29.296,29.296
			L38.852,203.957z"/>
	</defs>
	<clipPath id="SVGID_2_">
		<use xlink:href="#SVGID_1_"  overflow="visible"/>
	</clipPath>
	<g clip-path="url(#SVGID_2_)">
		<path fill-rule="evenodd" clip-rule="evenodd" fill="#873177" d="M128.672,137.915l0.015-0.022l1.093,0.221l4.755,0.85
			l-0.091,0.126c2.08,0.465,4.149,0.972,6.207,1.524l5.374,1.44l-2.972,4.703c-8.035,12.714-17.895,24.378-30.287,33.039
			l-2.352,1.643l-2.347-1.65c-12.433-8.738-22.199-20.25-30.277-33.032l-2.971-4.703l5.373-1.44
			c2.058-0.552,4.127-1.059,6.207-1.524l-0.091-0.126l4.755-0.85l1.093-0.221l0.015,0.022l0.567-0.101
			c13.831-2.476,21.537-2.476,35.368,0L128.672,137.915z"/>
		<path fill-rule="evenodd" clip-rule="evenodd" fill="#F9B797" d="M127.383,141.844c-13.974-2.502-19.95-2.502-33.923,0
			c5.006,6.891,10.522,13.089,16.961,18.675C116.834,154.988,122.41,148.69,127.383,141.844z"/>
		<path fill-rule="evenodd" clip-rule="evenodd" fill="#B1519E" d="M110.42,176.441c-11.994-8.432-21.38-19.543-29.17-31.871
			c2.955-0.791,5.997-1.508,9.085-2.132c5.844,8.365,12.441,15.853,20.085,22.117c7.645-6.264,14.243-13.752,20.087-22.117
			c3.088,0.623,6.13,1.34,9.085,2.132C131.852,156.817,122.362,168.095,110.42,176.441z"/>
		<path fill-rule="evenodd" clip-rule="evenodd" fill="#CF7FB4" d="M41.304,205.708h24.075l-6.142-32.856l2.377,1.635l8.097,31.221
			h86.178l8.095-31.221l2.377-1.635l-6.141,32.856h23.239l-4.71-29.295c-2.555-15.911-13.184-29.296-29.295-29.296h-73.1
			c-16.112,0-26.193,13.485-29.296,29.296L41.304,205.708z"/>
		<g>
			<defs>
				<path id="SVGID_3_" d="M41.304,205.708h24.075l-6.142-32.856l2.377,1.635l8.097,31.221h86.178l8.095-31.221l2.377-1.635
					l-6.141,32.856h23.239l-4.71-29.295c-2.555-15.911-13.184-29.296-29.295-29.296h-73.1c-16.112,0-26.193,13.485-29.296,29.296
					L41.304,205.708z"/>
			</defs>
			<clipPath id="SVGID_4_">
				<use xlink:href="#SVGID_3_"  overflow="visible"/>
			</clipPath>
			<g clip-path="url(#SVGID_4_)">
				<path fill-rule="evenodd" clip-rule="evenodd" fill="#873177" d="M131.125,139.667l0.015-0.022l1.093,0.221l4.755,0.85
					l-0.092,0.126c2.081,0.465,4.15,0.973,6.207,1.524l5.375,1.439l-2.973,4.703c-8.034,12.714-17.895,24.379-30.286,33.039
					l-2.353,1.643l-2.347-1.65c-12.433-8.738-22.199-20.249-30.276-33.032l-2.971-4.703l5.373-1.439
					c2.057-0.551,4.126-1.059,6.207-1.524l-0.092-0.126l4.755-0.85l1.093-0.221l0.015,0.022l0.568-0.101
					c13.83-2.476,21.537-2.476,35.367,0L131.125,139.667z"/>
				<path fill-rule="evenodd" clip-rule="evenodd" fill="#F9B797" d="M129.836,143.596c-13.974-2.501-19.951-2.501-33.924,0
					c5.006,6.891,10.522,13.089,16.962,18.675C119.287,156.741,124.862,150.442,129.836,143.596z"/>
				<path fill-rule="evenodd" clip-rule="evenodd" fill="#B1519E" d="M112.873,178.193c-11.995-8.431-21.38-19.543-29.17-31.871
					c2.955-0.791,5.996-1.508,9.085-2.131c5.844,8.364,12.441,15.852,20.085,22.117c7.644-6.264,14.243-13.752,20.086-22.117
					c3.089,0.623,6.13,1.34,9.085,2.131C134.305,158.569,124.815,169.847,112.873,178.193z"/>
			</g>
		</g>
	</g>
</g>
<path fill-rule="evenodd" clip-rule="evenodd" fill="#44210C" d="M173.738,67.522c4.475,0.336,9.247,2.14,12.113,5.249l0.62,0.672
	l0.306,0.861c3.098,8.731,0.299,23.253-5.842,30.155l-0.623,0.701l-0.854,0.39c-1.777,0.814-4.808,1.008-7.313,0.867
	c0.236,2.248,0.461,4.496,0.674,6.744c0.304,3.212,0.585,6.428,0.828,9.645c0.723,9.573,1.959,17.669-7.912,23.091
	c-9.384,5.156-19.716,10.205-29.501,14.504l-0.568,0.249c-0.946,2.638-2.361,4.995-5.321,5.755c-13.14,3.374-26.774,3.374-39.914,0
	c-2.621-0.673-4.031-2.6-4.977-4.866l-0.293,0.056l-1.499-0.955c-1.617-1.03-3.538-1.976-5.242-2.866
	c-2.92-1.523-5.858-3.014-8.795-4.503c-4.708-2.386-9.568-4.727-14.186-7.268c-9.868-5.426-8.646-13.518-7.91-23.096
	c0.278-3.611,0.583-7.22,0.906-10.828c0.188-2.105,0.383-4.209,0.584-6.312c-2.569,0.46-5.363,0.796-7.576-0.218l-0.854-0.39
	l-0.623-0.701c-6.141-6.902-8.94-21.424-5.842-30.155l0.306-0.861l0.62-0.672c2.844-3.084,7.564-4.884,12.009-5.241
	c-1.596-9.423-0.516-18.981,4.865-27.77C63.504,20.845,89.565,14,110.387,14C146.118,14,179.639,32.88,173.738,67.522z"/>
<path fill-rule="evenodd" clip-rule="evenodd" fill="#F9B797" d="M56.259,81.709c-39.037-84.325,147.292-84.325,108.255,0
	c0.835,4.508,3.418,24.719,4.679,41.432c0.647,8.585,1.942,14.694-5.609,18.842c-2.279,1.251-17.484,9.204-29.148,14.329
	c0.218-0.668,0.239-2.126,0.275-2.968c-0.708-0.137-0.703-0.029-1.413-0.168c-0.869,2.338-1.812,8.325-4.066,8.904
	c-12.42,3.189-25.275,3.19-37.693,0c-2.253-0.579-3.197-6.566-4.067-8.904c-0.71,0.139-0.703,3.562-1.413,3.699
	c-3.689-2.351-23.632-12.122-28.471-14.784c-7.552-4.153-6.27-10.259-5.609-18.842C53.24,106.874,55.425,86.217,56.259,81.709z"/>
<path fill-rule="evenodd" clip-rule="evenodd" fill="#FCCCA1" d="M58.968,80.204c-39.036-84.324,147.292-84.324,108.256,0
	c0.835,4.508,2.708,26.801,5.129,42.426c1.318,8.505,1.944,14.692-5.609,18.842c-2.278,1.251-18.026,10.275-29.598,15.426
	c0.218-0.669,0.239-2.127,0.275-2.967c-0.708-0.137-0.703-0.03-1.413-0.168c-0.87,2.337-1.814,4.794-4.066,5.372
	c-12.42,3.189-25.273,3.189-37.694,0c-2.252-0.579-3.196-3.035-4.066-5.372c-0.71,0.138-0.705,0.031-1.413,0.168
	c0.036,0.84,0.058,2.299,0.276,2.967c-11.573-6.748-26.663-16.253-28.942-17.505c-7.552-4.15-7.235-10.389-5.609-18.841
	C57.45,105.192,58.134,84.711,58.968,80.204z"/>
<path fill-rule="evenodd" clip-rule="evenodd" fill="none" d="M58.968,80.204c-39.036-84.324,147.292-84.324,108.256,0
	c0.835,4.508,2.708,26.801,5.129,42.426c1.318,8.505,1.944,14.692-5.609,18.842c-2.278,1.251-18.026,10.275-29.598,15.426
	c0.218-0.669,0.239-2.127,0.275-2.967c-0.708-0.137-0.703-0.03-1.413-0.168c-0.87,2.337-1.814,4.794-4.066,5.372
	c-12.42,3.189-25.273,3.189-37.694,0c-2.252-0.579-3.196-3.035-4.066-5.372c-0.71,0.138-0.705,0.031-1.413,0.168
	c0.036,0.84,0.058,2.299,0.276,2.967c-11.573-6.748-26.663-16.253-28.942-17.505c-7.552-4.15-7.235-10.389-5.609-18.841
	C57.45,105.192,58.134,84.711,58.968,80.204z"/>
<path fill-rule="evenodd" clip-rule="evenodd" fill="none" d="M56.259,81.709c-39.037-84.325,147.292-84.325,108.255,0
	c0.835,4.508,3.418,24.719,4.679,41.432c0.647,8.585,1.942,14.694-5.609,18.842c-2.279,1.251-17.484,9.204-29.148,14.329
	c0.218-0.668,0.239-2.126,0.275-2.968c-0.708-0.137-0.703-0.029-1.413-0.168c-0.869,2.338-1.812,8.325-4.066,8.904
	c-12.42,3.189-25.275,3.19-37.693,0c-2.253-0.579-3.197-6.566-4.067-8.904c-0.71,0.139-0.703,3.562-1.413,3.699
	c-3.689-2.351-23.632-12.122-28.471-14.784c-7.552-4.153-6.27-10.259-5.609-18.842C53.24,106.874,55.425,86.217,56.259,81.709z"/>
<path fill-rule="evenodd" clip-rule="evenodd" fill="#F9B797" d="M53.928,82.074c-1.539-3.27-2.603-6.642-3.641-10.05
	c-4.164-0.509-9.442,1.048-11.955,3.774c-2.857,8.047,0.552,20.728,4.969,25.693c1.627,0.745,6.516-0.425,7.603-0.611
	C52.063,93.994,52.562,89.769,53.928,82.074z"/>
<g>
	<defs>
		<path id="SVGID_5_" d="M53.928,82.074c-1.539-3.27-2.603-6.642-3.641-10.05c-4.164-0.509-9.442,1.048-11.955,3.774
			c-2.857,8.047,0.552,20.728,4.969,25.693c1.627,0.745,6.516-0.425,7.603-0.611C52.063,93.994,52.562,89.769,53.928,82.074z"/>
	</defs>
	<clipPath id="SVGID_6_">
		<use xlink:href="#SVGID_5_"  overflow="visible"/>
	</clipPath>
	<g clip-path="url(#SVGID_6_)">
		<path fill-rule="evenodd" clip-rule="evenodd" fill="#FCCCA1" d="M57.098,79.402c-1.539-3.271-3.505-5.585-6.66-5.972
			c-4.167-0.51-7.479,1.351-9.992,4.077c-2.857,8.046-0.053,19.67,4.365,24.635c1.627,0.746,4.382,0.258,5.167-0.229
			C53.173,97.634,56.753,82.675,57.098,79.402z"/>
	</g>
</g>
<path fill-rule="evenodd" clip-rule="evenodd" fill="#F9B797" d="M166.973,82.074c1.539-3.27,2.603-6.642,3.64-10.05
	c4.166-0.509,9.443,1.048,11.956,3.774c2.857,8.047-0.552,20.728-4.969,25.693c-1.627,0.745-5.884,0.468-6.97,0.282
	C168.794,95.227,168.678,89.43,166.973,82.074z"/>
<g>
	<defs>
		<path id="SVGID_7_" d="M166.973,82.074c1.539-3.27,2.603-6.642,3.64-10.05c4.166-0.509,9.443,1.048,11.956,3.774
			c2.857,8.047-0.552,20.728-4.969,25.693c-1.627,0.745-5.884,0.468-6.97,0.282C168.794,95.227,168.678,89.43,166.973,82.074z"/>
	</defs>
	<clipPath id="SVGID_8_">
		<use xlink:href="#SVGID_7_"  overflow="visible"/>
	</clipPath>
	<g clip-path="url(#SVGID_8_)">
		<path fill-rule="evenodd" clip-rule="evenodd" fill="#FCCCA1" d="M163.804,79.402c1.539-3.271,3.505-5.585,6.66-5.972
			c4.167-0.51,7.479,1.351,9.991,4.077c2.857,8.046,0.054,19.67-4.364,24.635c-1.627,0.746-4.382,0.258-5.167-0.229
			C167.727,97.634,164.148,82.675,163.804,79.402z"/>
	</g>
</g>
<g>
	<g>
		<defs>
			<path id="SVGID_9_" d="M72.363,109.761c8.524,7.57,22.428,4.645,28.773-7.645c-2.786,17.981-21.998,28.08-36.263,14.868
				C67.37,114.576,69.867,112.169,72.363,109.761z"/>
		</defs>
		<clipPath id="SVGID_10_">
			<use xlink:href="#SVGID_9_"  overflow="visible"/>
		</clipPath>
		<g clip-path="url(#SVGID_10_)">
			
				<image overflow="visible" width="48" height="29" xlink:href="FC763CFE.jpg"  transform="matrix(0.7554 0 0 0.7208 64.8733 102.1149)">
			</image>
		</g>
	</g>
	<g>
		<defs>
			<path id="SVGID_11_" d="M148.157,111.695c-8.899,7.124-22.636,3.495-28.346-9.104c1.866,18.099,20.538,29.165,35.457,16.697
				C152.898,116.758,150.527,114.226,148.157,111.695z"/>
		</defs>
		<clipPath id="SVGID_12_">
			<use xlink:href="#SVGID_11_"  overflow="visible"/>
		</clipPath>
		<g transform="matrix(1 0 0 1 0 0)" clip-path="url(#SVGID_12_)">
			
				<image overflow="visible" width="48" height="30" xlink:href="FC763CF9.jpg"  transform="matrix(0.7387 0 0 0.7337 119.8115 102.5909)">
			</image>
		</g>
	</g>
	<path fill-rule="evenodd" clip-rule="evenodd" fill="#AA5B2A" d="M157.172,90.194c0.076-3.357-0.663-6.418-2.867-9.871
		c-1.447-2.267-3.366-3.506-6.32-2.287c-9.857,3.666-18.94,7.056-28.796,10.722c-1.054,0.445-2.666-0.422-3.75-1.159
		c-0.775,3.002-0.608,6.452,2.798,8.398c0.306,13.376,8.529,19.698,20.798,19.124c13.723-0.643,20.611-14.639,15.751-25.675
		C155.602,89.21,156.434,89.491,157.172,90.194z"/>
	<path fill-rule="evenodd" clip-rule="evenodd" fill="#AA5B2A" d="M64.393,87.828c0.095-3.357,0.989-6.376,3.368-9.712
		c1.56-2.189,3.539-3.33,6.428-1.962c9.657,4.163,18.555,8.012,28.212,12.175c1.031,0.499,2.684-0.286,3.804-0.965
		c0.622,3.037,0.278,6.473-3.222,8.244c-0.988,13.343-9.524,19.238-21.746,18.039c-13.673-1.341-19.838-15.67-14.421-26.445
		C66.01,86.924,65.166,87.163,64.393,87.828z"/>
	<path fill-rule="evenodd" clip-rule="evenodd" fill="#44210C" d="M65.429,86.208c0.816-2.735,1.792-5.425,4.058-7.623
		c1.269-1.231,2.66-1.516,4.515-0.874c9.521,3.298,18.385,7.759,28.005,11.676c1.052,0.429,2.24,0.237,3.342-0.723
		c-0.071,1.615-0.513,3.826-2.022,5.339c-0.733,0.736-1.698,0.468-2.611,0.204c-10.872-3.154-21.089-5.912-32.031-8.814
		C67.401,85.052,66.253,85.293,65.429,86.208z"/>
	<path fill-rule="evenodd" clip-rule="evenodd" fill="#44210C" d="M156.22,88.524c-0.676-2.773-1.514-5.511-3.665-7.821
		c-1.205-1.294-2.58-1.649-4.464-1.102c-9.677,2.808-18.757,6.812-28.564,10.232c-1.074,0.375-2.25,0.123-3.302-0.892
		c-0.011,1.616,0.318,3.846,1.748,5.435c0.695,0.771,1.671,0.554,2.597,0.336c11.02-2.596,21.363-4.829,32.439-7.169
		C154.308,87.27,155.443,87.568,156.22,88.524z"/>
	<path fill-rule="evenodd" clip-rule="evenodd" fill="#FFFFFF" d="M72.378,88.542c-7.048,10.805-0.198,24.625,14.137,23.452
		c9.365-0.766,15-8.033,15.242-16.323C91.964,93.295,82.171,90.918,72.378,88.542z"/>
	<path fill-rule="evenodd" clip-rule="evenodd" fill="#FFFFFF" d="M149.161,90.5c6.487,11.15-1.057,24.604-15.315,22.702
		c-9.313-1.243-14.571-8.788-14.389-17.079C129.358,94.248,139.259,92.375,149.161,90.5z"/>
	<circle fill-rule="evenodd" clip-rule="evenodd" fill="#000001" cx="86.792" cy="102.881" r="8.757"/>
	<circle fill-rule="evenodd" clip-rule="evenodd" fill="#000001" cx="134.034" cy="104.087" r="8.757"/>
	<circle fill-rule="evenodd" clip-rule="evenodd" fill="#FFFFFF" cx="86.793" cy="102.881" r="2.739"/>
	<circle fill-rule="evenodd" clip-rule="evenodd" fill="#FFFFFF" cx="134.034" cy="104.087" r="2.74"/>
	<path fill-rule="evenodd" clip-rule="evenodd" fill="#F69466" d="M71.139,88.326c-1.179-0.246-2.099-0.485-3.279-0.731
		c-2.789,5.884-1.666,14.737,3.272,18.769C67.217,100.028,67.948,93.554,71.139,88.326z"/>
	<path fill-rule="evenodd" clip-rule="evenodd" fill="#F69466" d="M150.409,90.348c1.19-0.185,2.122-0.377,3.312-0.562
		c2.485,6.018,0.913,14.803-4.225,18.578C153.729,102.236,153.329,95.732,150.409,90.348z"/>
	<path fill-rule="evenodd" clip-rule="evenodd" fill="#AA5B2A" d="M102.561,95.595c2.128,6.842-1.635,14.48-2.263,21.252
		c-0.134,2.983,1.434,4.347,3.777,4.976c4.352,1.554,8.437,0.718,12.447-0.788c-0.485-0.554-0.97-1.109-1.453-1.664
		c-4.05,1.049-9.435,0.604-10.397-2.546c-2.178-7.132,2.715-13.165-0.665-22.45C103.6,94.837,103.259,95.046,102.561,95.595z"/>
	<polygon fill-rule="evenodd" clip-rule="evenodd" fill="#AA5B2A" points="91.576,131.336 128.945,128.811 128.399,132.794 
		91.456,133.11 	"/>
	<polygon fill-rule="evenodd" clip-rule="evenodd" fill="#AA5B2A" points="105.594,135.137 113.11,134.981 112.053,137.442 
		106.103,136.643 	"/>
</g>
<path fill-rule="evenodd" clip-rule="evenodd" fill="#F79A6C" d="M41.814,79.53c2.37-0.356,4.847,0.375,6.087,2.067
	c2.017,4.075,0.755,9.353-0.403,11.887C47.877,86.568,46.767,82.932,41.814,79.53z"/>
<path fill-rule="evenodd" clip-rule="evenodd" fill="#F79A6C" d="M179.088,79.53c-2.371-0.356-4.847,0.375-6.087,2.067
	c-2.018,4.075-0.755,9.353,0.402,11.887C173.024,86.568,174.135,82.932,179.088,79.53z"/>
<path fill-rule="evenodd" clip-rule="evenodd" fill="#F9B797" d="M86.639,72.126c16.628,8.182,29.898,8.182,46.525,0
	C115.158,75.578,104.646,75.578,86.639,72.126z"/>
<path fill-rule="evenodd" clip-rule="evenodd" fill="#F9B797" d="M82.88,65.333c19.314,8.183,34.73,8.183,54.044,0
	C116.006,68.785,103.797,68.785,82.88,65.333z"/>
</svg>
