<?xml version="1.0" encoding="utf-8"?>
<!-- Generator: Adobe Illustrator 17.0.0, SVG Export Plug-In . SVG Version: 6.00 Build 0)  -->
<svg version="1.2" baseProfile="tiny" id="Capa_1" xmlns="http://www.w3.org/2000/svg" xmlns:xlink="http://www.w3.org/1999/xlink"
	 x="0px" y="0px" width="211px" height="228.77px" viewBox="0 0 211 228.77" xml:space="preserve">
<g>
	<g>
		<path fill="#44210C"    d="M172.16,129.372l-4.593-31.165c0.397-0.867,0.938-2.466,1.395-3.804c0.535-1.567,1.123-3.104,1.758-4.629
			c-0.092-0.009-0.183-0.026-0.275-0.033c5.711-35.289-26.729-54.522-61.305-54.522C88.991,35.217,63.771,42.19,52.566,61.46
			c-5.206,8.953-6.252,18.69-4.707,28.289l-0.291,7.015c0.582,3.337,2.998,6.292,2.572,9.997c-0.465,4.049-1.906,7.717-2.625,11.693
			c-0.128,0.71-0.358,1.303-0.658,1.798c-0.076,0.272-0.18,0.531-0.293,0.783l-0.342,8.236c-0.734,3.783-1.212,7.632-1.2,11.612
			c0.105,37.268,34.686,47.226,63.912,47.334c29.615,0.109,64.579-9.375,64.467-47.363C173.391,136.92,172.9,133.114,172.16,129.372
			z"/>
		<g>
			<path fill="#F9B797"  imag="0" d="M56.762,104.192c-37.776-85.902,142.534-85.902,104.758,0c1.99,11.31,7.525,24.626,7.561,36.674
				c0.101,34.211-31.569,42.906-60.131,42.8c-28.151-0.103-59.513-9.247-59.606-42.8C49.309,128.785,54.783,115.44,56.762,104.192z"
				/>
		</g>
		<path fill="#F9B797"  d="M86.16,94.43c16.09,8.335,28.932,8.335,45.022,0C113.757,97.947,103.586,97.947,86.16,94.43z"/>
		<path fill="#F9B797" d="M82.523,87.51c18.69,8.336,33.608,8.336,52.298,0C114.579,91.027,102.764,91.027,82.523,87.51z"/>
	</g>
	<g>
		<path fill="none" d="M135.036,172.316c0.21-0.682,0.232-2.166,0.265-3.022c-0.684-0.14-0.68-0.031-1.367-0.171
			c-0.842,2.38-1.755,4.882-3.934,5.472c-12.018,3.251-24.457,3.251-36.477,0c-2.179-0.59-3.092-3.093-3.934-5.472
			c-0.686,0.14-0.682,0.03-1.367,0.171c0.035,0.856,0.056,2.34,0.266,3.022c-41.921,1.59-35.109-35.521-29.107-69.657
			c-11.44-26.015-2.876-44.148,13.572-54.406c-18.127,9.931-28.228,28.575-16.194,55.94c-1.978,11.249-7.453,24.593-7.418,36.674
			c0.095,33.554,31.456,42.696,59.606,42.8c28.561,0.105,60.232-8.589,60.131-42.8c-0.012-3.918-0.609-7.97-1.472-12.043
			C169.061,152.444,163.494,171.422,135.036,172.316z"/>
		<path fill="#FCCCA1" imag="1" d="M59.384,102.659c-6.002,34.136-12.815,71.245,29.107,69.657c-0.21-0.682-0.233-2.166-0.266-3.022
			c0.684-0.14,0.68-0.031,1.367-0.171c0.842,2.38,1.755,4.882,3.934,5.472c12.02,3.251,24.458,3.251,36.477,0
			c2.179-0.59,3.092-3.093,3.934-5.472c0.686,0.14,0.682,0.03,1.367,0.171c-0.035,0.856-0.055,2.34-0.265,3.022
			c28.456-0.894,34.025-19.869,32.572-43.491c-1.793-8.453-4.746-16.999-6.088-24.632c25.741-58.538-49.784-77.182-88.564-55.94
			C56.508,58.511,47.943,76.643,59.384,102.659z"/>
	</g>
</g>
</svg>
