<?xml version="1.0" encoding="utf-8"?>
<!-- Generator: Adobe Illustrator 17.0.0, SVG Export Plug-In . SVG Version: 6.00 Build 0)  -->
<svg version="1.2" baseProfile="tiny" id="Capa_1" xmlns="http://www.w3.org/2000/svg" xmlns:xlink="http://www.w3.org/1999/xlink"
	 x="0px" y="0px" width="211px" height="228.77px" viewBox="0 0 211 228.77" xml:space="preserve">
<g>
	<g>
		<path fill="#44210C" d="M168.433,103.781c1.717-3.374,2.383-7.218,2.817-10.984c0.085-0.741,0.27-1.45,0.541-2.097
			c-0.217-0.028-0.435-0.061-0.65-0.078c5.84-35.839-27.23-55.364-62.475-55.364c-20.534,0-46.241,7.076-57.66,26.635
			c-5.311,9.096-6.372,18.986-4.792,28.738l4.586,39.612c-0.03,0.539-0.061,1.078-0.092,1.616c-0.38,6.441-0.882,13.459-2.113,19.78
			c-1.96,10.07-1.984,18.838,7.717,24.434c14.028,8.091,37.885,9.285,53.622,8.713c15.521-0.562,37.861-3.329,51.617-11.26
			c9.701-5.593,8.911-14.079,7.773-24.063c-0.436-3.814-0.801-7.64-1.125-11.469c-0.224-2.653-0.43-5.308-0.617-7.964"/>
		<g>
			<path fill="#F9B797" imag="0" d="M55.262,105.276c-38.514-87.233,145.321-87.233,106.807,0c-0.089,5.141,0.917,27.309,2.904,44.73
				c1.008,8.839,1.915,15.197-5.534,19.493c-22.028,12.7-79.33,15.063-101.016,2.547c-7.452-4.293-7.234-10.767-5.536-19.49
				C55.497,139.15,56.161,110.542,55.262,105.276z"/>
		</g>
		<path fill="#F9B797" d="M85.235,95.363c16.405,8.464,29.498,8.464,45.903,0C113.371,98.933,103.001,98.933,85.235,95.363z"/>
		<path fill="#F9B797" d="M81.526,88.337c19.057,8.465,34.265,8.465,53.322,0C114.209,91.908,102.164,91.908,81.526,88.337z"/>
	</g>
	<g>
		<path fill="none" d="M135.067,174.808c0.215-0.692,0.237-2.2,0.272-3.068c-0.699-0.143-0.694-0.031-1.394-0.174
			c-0.858,2.416-1.788,4.956-4.012,5.557c-12.254,3.3-24.935,3.3-37.189,0c-2.222-0.6-3.154-3.141-4.012-5.557
			c-0.7,0.143-0.694,0.031-1.393,0.174c0.035,0.868,0.057,2.376,0.272,3.068c-12.407-2.634-30.506-8.562-32.753-9.858
			c-1.104-0.636-2.019-1.325-2.803-2.056c0.473,3.727,2.242,6.777,6.369,9.155c21.686,12.516,78.988,10.153,101.016-2.547
			c1.266-0.73,2.274-1.525,3.098-2.376C155.763,169.625,144.068,173.376,135.067,174.808z"/>
		<path fill="none" d="M71.766,48.474C53.288,58.56,42.994,77.492,55.262,105.277c0.258,1.512,0.387,4.952,0.378,9.399
			c1.119-5.191,1.988-9.22,2.294-10.956C46.272,77.305,55,58.891,71.766,48.474z"/>
		<path fill="#FCCCA1"  imag="1" d="M87.61,174.808c-0.215-0.692-0.237-2.2-0.272-3.068c0.699-0.143,0.693-0.031,1.393-0.174
			c0.859,2.416,1.79,4.956,4.012,5.557c12.254,3.3,24.935,3.3,37.189,0c2.224-0.6,3.154-3.141,4.012-5.557
			c0.7,0.143,0.695,0.031,1.394,0.174c-0.035,0.868-0.057,2.376-0.272,3.068c9.001-1.431,20.696-5.183,27.47-7.683
			c4.023-4.157,3.273-9.781,2.436-17.117c-1.987-17.421-2.993-39.59-2.904-44.73c26.246-59.448-50.768-78.38-90.303-56.803
			C55,58.891,46.272,77.305,57.934,103.719c-0.306,1.736-1.175,5.765-2.294,10.956c-0.021,11.044-0.892,28.323-2.753,37.882
			c-0.757,3.892-1.214,7.333-0.833,10.335c0.784,0.731,1.699,1.421,2.803,2.056C57.104,166.246,75.203,172.173,87.61,174.808z"/>
	</g>
</g>
</svg>
