<?xml version="1.0" encoding="utf-8"?>
<!-- Generator: Adobe Illustrator 17.0.0, SVG Export Plug-In . SVG Version: 6.00 Build 0)  -->
<svg version="1.2" baseProfile="tiny" id="Capa_1" xmlns="http://www.w3.org/2000/svg" xmlns:xlink="http://www.w3.org/1999/xlink"
	 x="0px" y="0px" width="211px" height="228.77px" viewBox="0 0 211 228.77" xml:space="preserve">
<g>
	<path fill="#44210C" d="M50.113,99.107"/>
	<path fill="#44210C" d="M45.32,127.356c-0.023,5.323,0.043,10.651-0.02,15.962c-0.113,9.395-0.715,17.219,8.454,22.439
		c8.668,4.933,17.012,9.176,26.605,12.001l1.939,0.571c0.843,0.751,1.859,1.328,3.113,1.662c12.707,3.38,36.91,3.38,49.616,0
		c1.317-0.35,2.37-0.97,3.237-1.776l1.652-0.415c1.724-0.432,3.428-0.946,5.112-1.518c6.781-2.305,16.002-6.553,21.985-10.735
		c8.433-5.893,8.241-12.737,8.127-22.231c-0.064-5.31,0.003-10.624,0.001-15.937c0.249-0.081,0.385-1.106,0.61-1.214l-0.202-1.785
		l-5.123-34.686c5.63-34.113-26.239-52.699-60.206-52.699c-19.789,0-44.562,6.735-55.566,25.352
		c-5.119,8.658-6.14,18.072-4.618,27.353"/>
	<g>
		<path fill="#F9B797" imag="0" d="M57.79,103.644c-37.116-83.031,140.045-83.031,102.929,0c0.321,1.795,8.78,6.033,9.023,11.733
			c0.39,9.16,0.094,18.35,0.21,27.995c0.102,8.475,0.524,13.807-6.266,18.553c-2.167,1.515-14.2,8.735-25.728,11.628
			c0.208-0.659,0.228-2.094,0.262-2.92c-0.672-0.137-0.667-0.029-1.341-0.166c-0.828,2.299-1.726,4.72-3.866,5.289
			c-11.808,3.141-35.707,3.141-47.516,0c-2.139-0.569-3.038-2.99-3.866-5.289c-0.675,0.137-0.67,0.029-1.343,0.166
			c0.033,0.827,0.056,2.262,0.262,2.92c-12.536-3.691-23.559-10.394-25.726-11.628c-7.183-4.087-6.365-10.287-6.265-18.553
			c0.108-9.042-0.159-19.275,0.333-28.058C49.209,109.644,57.414,105.433,57.79,103.644z"/>
		<g>
			<path fill="none" d="M169.742,115.377c-0.138-3.253-2.951-6.026-5.401-8.144c1.342,6.227,3.619,16.426,5.594,26.158
				C169.96,127.295,169.996,121.328,169.742,115.377z"/>
			<path fill="none" imag="0" d="M134.698,169.826c0.206-0.658,0.228-2.094,0.262-2.92c-0.674-0.136-0.669-0.029-1.343-0.165
				c-0.827,2.299-1.723,4.718-3.866,5.289c-11.809,3.14-24.029,3.14-35.839,0c-2.141-0.571-3.039-2.99-3.866-5.289
				c-0.675,0.136-0.669,0.029-1.343,0.165c0.034,0.827,0.055,2.262,0.262,2.92c-11.957-2.508-29.398-8.149-31.564-9.384
				c-7.182-4.088-6.879-10.229-5.335-18.552c2.81-15.124,7.507-35.29,8.3-39.728C49.128,77.021,57.537,59.495,73.694,49.58
				c-17.806,9.6-27.724,27.62-15.902,54.065c-0.377,1.788-8.581,6-8.899,11.67c-0.491,8.782-0.225,19.016-0.333,28.058
				c-0.099,8.266-0.917,14.466,6.265,18.553c2.166,1.234,13.19,7.937,25.726,11.628c-0.205-0.659-0.229-2.094-0.262-2.92
				c0.674-0.137,0.669-0.029,1.343-0.166c0.829,2.299,1.726,4.72,3.866,5.289c11.808,3.141,35.707,3.141,47.516,0
				c2.139-0.569,3.039-2.99,3.866-5.289c0.675,0.137,0.67,0.029,1.341,0.166c-0.033,0.827-0.053,2.262-0.262,2.92
				c11.528-2.893,23.561-10.113,25.728-11.628c0.367-0.257,0.704-0.516,1.029-0.776
				C159.738,163.211,145.284,168.163,134.698,169.826z"/>
			<path fill="#FCCCA1" imag="1" d="M60.365,102.162c-0.793,4.439-5.49,24.604-8.3,39.728c-1.545,8.323-1.846,14.465,5.335,18.552
				c2.166,1.233,19.607,6.876,31.564,9.384c-0.206-0.658-0.228-2.094-0.262-2.92c0.675-0.136,0.669-0.029,1.343-0.165
				c0.828,2.299,1.726,4.718,3.866,5.289c11.809,3.14,24.029,3.14,35.839,0c2.143-0.571,3.04-2.99,3.866-5.289
				c0.675,0.136,0.67,0.029,1.343,0.165c-0.034,0.827-0.055,2.262-0.262,2.92c10.586-1.663,25.039-6.615,30.018-8.677
				c5.707-4.556,5.334-9.761,5.237-17.777c-0.041-3.378-0.031-6.697-0.017-9.982c-1.974-9.731-4.252-19.93-5.594-26.158
				c-1.843-1.593-3.484-2.817-3.621-3.588c25.292-56.585-48.929-74.604-87.028-54.064C57.537,59.495,49.128,77.021,60.365,102.162z"
				/>
		</g>
	</g>
</g>
</svg>
