<?xml version="1.0" encoding="utf-8"?>
<!-- Generator: Adobe Illustrator 17.0.0, SVG Export Plug-In . SVG Version: 6.00 Build 0)  -->
<svg version="1.2" baseProfile="tiny" id="Capa_1" xmlns="http://www.w3.org/2000/svg" xmlns:xlink="http://www.w3.org/1999/xlink"
	 x="0px" y="0px" width="211px" height="228.77px" viewBox="0 0 211 228.77" xml:space="preserve">
<g>
	<g>
		<path fill="#44210C" d="M50.313,131.681c0.022,0.716,0.043,1.431,0.065,2.147c0.116,3.912,0.225,7.825,0.284,11.736
			c0.148,9.932-2.005,18.319,7.892,24.12c7.918,4.641,17.112,9.068,25.463,12.655c6.824,2.931,17.066,7.012,24.437,6.917
			c13.891-0.179,38.304-14.895,50.748-22.196c9.89-5.802,7.773-14.195,7.888-24.136c0.044-3.863,0.113-7.728,0.181-11.591
			l4.493-40.39c5.905-36.871-27.525-56.96-63.154-56.96c-20.758,0-46.743,7.28-58.287,27.403
			c-5.369,9.358-6.441,19.535-4.844,29.566c-0.3,0.025-0.601,0.075-0.903,0.114c0.897,2.117,1.313,4.417,1.102,6.876
			c-0.006,0.067-0.023,0.129-0.03,0.195c1.07,3.837,1.508,7.929,1.544,11.918"/>
		<path fill="#44210C" d="M50.313,131.681c0.022,0.716,0.043,1.431,0.065,2.147c0.116,3.912,0.225,7.825,0.284,11.736
			c0.148,9.932-2.005,18.319,7.892,24.12c7.918,4.641,17.112,9.068,25.463,12.655c6.824,2.931,17.066,7.012,24.437,6.917
			c13.891-0.179,38.304-14.895,50.748-22.196c9.89-5.802,7.773-14.195,7.888-24.136c0.044-3.863,0.113-7.728,0.181-11.591
			l4.493-40.39c5.905-36.871-27.525-56.96-63.154-56.96c-20.758,0-46.743,7.28-58.287,27.403
			c-5.369,9.358-6.441,19.535-4.844,29.566c-0.3,0.025-0.601,0.075-0.903,0.114c0.897,2.117,1.313,4.417,1.102,6.876
			c-0.006,0.067-0.023,0.129-0.03,0.195c1.07,3.837,1.508,7.929,1.544,11.918"/>
	</g>
	<g>
		<path fill="#F9B797" imag="0" d="M55.633,106.02c-38.932-89.747,146.9-89.747,107.968,0c0.832,4.797,0.29,17.735,0.069,36.846
			c-0.105,9.16,1.938,15.634-5.594,20.054c-4.356,2.555-34.785,21.433-48.667,21.611c-13.725,0.176-46.958-18.546-47.714-18.989
			c-7.535-4.416-5.46-10.893-5.596-20.053C55.877,130.68,54.802,110.817,55.633,106.02z"/>
		<g>
			<path fill="none" d="M93.522,179.938c-2.246-0.617-3.188-3.232-4.056-5.717c-0.707,0.146-0.702,0.032-1.409,0.179
				c0.035,0.894,0.058,2.444,0.274,3.156c-1.744-0.377-3.6-0.82-5.507-1.306c9.594,4.354,20.198,8.362,26.583,8.28
				c3.128-0.04,7.099-1.035,11.42-2.573C111.718,183.067,102.507,182.4,93.522,179.938z"/>
			<path fill="none" d="M72.316,47.581C53.637,57.957,43.233,77.434,55.633,106.02c-0.351,2.024-0.362,6.737-0.241,12.615
				c1.427-6.745,2.578-12.114,2.943-14.217C46.546,77.243,55.369,58.299,72.316,47.581z"/>
			<path fill="none" d="M135.171,174.221c-0.211,0.604-0.427,1.216-0.664,1.804c0.688-0.339,1.372-0.682,2.052-1.026
				c0.008-0.216,0.014-0.422,0.021-0.599C135.873,174.254,135.878,174.368,135.171,174.221z"/>
			<path fill="#FCCCA1" imag="1" d="M88.058,174.4c0.707-0.146,0.701-0.032,1.409-0.179c0.868,2.485,1.809,5.099,4.056,5.717
				c8.985,2.462,18.196,3.129,27.306,2.019c4.369-1.556,9.093-3.668,13.679-5.932c0.237-0.589,0.453-1.199,0.664-1.804
				c0.707,0.146,0.702,0.032,1.41,0.179c-0.007,0.177-0.014,0.382-0.021,0.599c10.196-5.17,19.284-10.769,21.517-12.079
				c7.532-4.419,5.489-10.894,5.594-20.054c0.221-19.11,0.765-32.048-0.069-36.846c26.531-61.162-51.32-80.639-91.285-58.439
				C55.37,58.3,46.547,77.244,58.335,104.419c-0.364,2.103-1.516,7.472-2.943,14.217c0.165,8.051,0.578,18.294,0.706,26.853
				c0.136,9.16-1.938,15.637,5.596,20.053c0.405,0.237,10.1,5.702,21.131,10.709c1.907,0.486,3.764,0.929,5.507,1.306
				C88.116,176.844,88.094,175.293,88.058,174.4z"/>
		</g>
	</g>
</g>
</svg>
