<?xml version="1.0" encoding="utf-8"?>
<!-- Generator: Adobe Illustrator 17.0.0, SVG Export Plug-In . SVG Version: 6.00 Build 0)  -->
<svg version="1.2" baseProfile="tiny" id="Capa_1" xmlns="http://www.w3.org/2000/svg" xmlns:xlink="http://www.w3.org/1999/xlink"
	 x="0px" y="0px" width="211px" height="228.77px" viewBox="0 0 211 228.77" xml:space="preserve">
<g>
	<path fill="#FFFFFF" d="M101.118,119.056c0.526,6.018-1.095,11.781-6.01,15.914c-5.203,0.943-9.845,0.845-14.453-0.486
		c-6.912-3.579-11.117-8.871-14.778-15.265C75.275,108.805,89.445,108.359,101.118,119.056z"/>
	<g>
		<path fill="none" d="M101.118,119.056c-0.831-0.761-1.675-1.459-2.528-2.108c0.055,0.452,0.093,0.909,0.093,1.375
			c0,6.217-5.071,11.287-11.288,11.287s-11.287-5.07-11.287-11.287c0-2.459,0.802-4.731,2.145-6.589
			c-4.548,1.015-8.807,3.528-12.376,7.484c3.661,6.394,7.866,11.686,14.778,15.265c4.608,1.331,9.25,1.429,14.453,0.486
			C100.023,130.837,101.643,125.074,101.118,119.056z"/>
		<path fill="#4E4E4E" imag="1" d="M87.395,129.611c6.217,0,11.288-5.07,11.288-11.287c0-0.466-0.037-0.924-0.093-1.375
			c-1.935-1.471-3.922-2.653-5.929-3.554c1.211,1.293,1.96,3.025,1.96,4.929c0,0.627-0.089,1.232-0.24,1.813
			c0.348,0.621,0.563,1.325,0.563,2.085c0,2.37-1.932,4.302-4.302,4.302c-1.038,0-1.979-0.385-2.723-1.001
			c-0.174,0.013-0.347,0.027-0.524,0.027c-3.98,0-7.225-3.246-7.225-7.225c0-3.303,2.239-6.095,5.275-6.95
			c-2.438-0.281-4.853-0.16-7.191,0.362c-1.343,1.857-2.145,4.13-2.145,6.589C76.108,124.54,81.178,129.611,87.395,129.611z"/>
		<path fill="#041723" imag="0" d="M80.169,118.324c0,3.98,3.246,7.225,7.225,7.225c0.177,0,0.35-0.014,0.524-0.027
			c-0.956-0.79-1.579-1.969-1.579-3.301c0-2.37,1.933-4.302,4.302-4.302c1.61,0,3.001,0.902,3.739,2.217
			c0.151-0.581,0.24-1.186,0.24-1.813c0-1.904-0.749-3.636-1.96-4.929c-2.393-1.073-4.815-1.744-7.216-2.021
			C82.408,112.229,80.169,115.02,80.169,118.324z"/>
		<path fill="#FFFFFF" d="M90.642,117.919c-2.37,0-4.302,1.932-4.302,4.302c0,1.332,0.623,2.511,1.579,3.301
			c0.744,0.616,1.685,1.001,2.723,1.001c2.37,0,4.302-1.932,4.302-4.302c0-0.76-0.215-1.464-0.563-2.085
			C93.643,118.821,92.252,117.919,90.642,117.919z"/>
	</g>
	<path fill="#FFFFFF" d="M118.673,119.056c-0.526,6.018,1.095,11.781,6.01,15.914c5.202,0.943,9.845,0.845,14.453-0.486
		c6.913-3.579,11.118-8.871,14.778-15.265C144.515,108.805,130.346,108.359,118.673,119.056z"/>
	<g>
		<path fill="none" d="M141.539,111.735c1.343,1.857,2.146,4.13,2.146,6.589c0,6.217-5.071,11.287-11.288,11.287
			c-6.217,0-11.287-5.07-11.287-11.287c0-0.467,0.037-0.924,0.093-1.376c-0.854,0.649-1.698,1.347-2.529,2.109
			c-0.526,6.018,1.095,11.781,6.01,15.914c5.202,0.943,9.845,0.845,14.453-0.486c6.913-3.579,11.117-8.871,14.778-15.265
			C150.345,115.263,146.086,112.75,141.539,111.735z"/>
		<path fill="#4E4E4E" imag="1" d="M132.396,129.611c6.217,0,11.288-5.07,11.288-11.287c0-2.459-0.802-4.731-2.146-6.589
			c-2.339-0.522-4.754-0.643-7.192-0.362c3.036,0.856,5.275,3.647,5.275,6.95c0,0.627-0.089,1.232-0.24,1.813
			c0.348,0.621,0.564,1.325,0.564,2.085c0,2.37-1.933,4.302-4.302,4.302c-1.038,0-1.979-0.385-2.723-1.001
			c-0.174,0.013-0.347,0.027-0.524,0.027c-3.98,0-7.225-3.246-7.225-7.225c0-1.905,0.749-3.636,1.96-4.929
			c-2.008,0.9-3.994,2.082-5.929,3.553c-0.055,0.452-0.093,0.909-0.093,1.376C121.109,124.54,126.179,129.611,132.396,129.611z"/>
		<path fill="#041723" imag="0"   d="M132.396,125.549c0.177,0,0.35-0.014,0.524-0.027c-0.956-0.79-1.579-1.969-1.579-3.301
			c0-2.37,1.932-4.302,4.302-4.302c1.61,0,3.001,0.902,3.739,2.217c0.151-0.581,0.24-1.186,0.24-1.813
			c0-3.303-2.239-6.095-5.275-6.95c-2.401,0.277-4.823,0.948-7.215,2.021c-1.211,1.293-1.96,3.025-1.96,4.929
			C125.171,122.303,128.416,125.549,132.396,125.549z"/>
		<path fill="#FFFFFF" d="M135.643,117.919c-2.37,0-4.302,1.932-4.302,4.302c0,1.332,0.623,2.511,1.579,3.301
			c0.744,0.616,1.686,1.001,2.723,1.001c2.37,0,4.302-1.932,4.302-4.302c0-0.76-0.216-1.464-0.564-2.085
			C138.645,118.821,137.253,117.919,135.643,117.919z"/>
	</g>
	<path fill="#041723" d="M63.103,119.822c2.63,3.732,6.505,6.407,10.672,9.377c-2.148-2.829-4.553-5.827-6.115-9.577
		c8.159-8.205,20.368-11.383,33.81,0.2C94.318,107.979,72.59,105.764,63.103,119.822z"/>
	<path fill="#041723" d="M156.688,119.822c-2.629,3.732-6.505,6.407-10.672,9.377c2.148-2.829,4.553-5.827,6.114-9.577
		c-8.159-8.205-20.368-11.383-33.81,0.2C125.472,107.979,147.201,105.764,156.688,119.822z"/>
	<path fill="#041723" d="M76.27,132.209c4.832,5.252,12.712,4.643,21.113,2.462C88.742,135.322,84.031,135.569,76.27,132.209z"/>
	<path fill="#041723" d="M143.521,132.209c-4.832,5.252-12.712,4.643-21.113,2.462C131.049,135.322,135.76,135.569,143.521,132.209z
		"/>
</g>
</svg>
