<?xml version="1.0" encoding="utf-8"?>
<!-- Generator: Adobe Illustrator 17.0.0, SVG Export Plug-In . SVG Version: 6.00 Build 0)  -->
<svg version="1.2" baseProfile="tiny" id="Capa_1" xmlns="http://www.w3.org/2000/svg" xmlns:xlink="http://www.w3.org/1999/xlink"
	 x="0px" y="0px" width="211px" height="228.77px" viewBox="0 0 211 228.77" xml:space="preserve">
<g>

	 <g>
		<g>
			<path fill-rule="evenodd" fill="#44210C" d="M67.903,112.733c5.369-8.133,24.351-5.095,31.371-0.194
				C89.492,109.659,78.889,106.85,67.903,112.733z"/>
			<path fill-rule="evenodd" fill="#44210C" d="M154.871,112.734c-5.369-8.133-24.351-5.096-31.371-0.195
				C133.282,109.66,143.885,106.851,154.871,112.734z"/>
			<path fill-rule="evenodd" fill="#FFFFFF" d="M67.393,121.89c0.369,3.656,2.8,6.543,8.156,8.838
				c7.478,0.455,14.277,0.907,21.924,0.169c5.018-1.766,6.142-6.331,4.248-10.706C93.702,113.723,68.88,106.151,67.393,121.89z"/>
			<path fill-rule="evenodd" fill="#FFFFFF" d="M155.381,121.891c-0.369,3.656-2.8,6.543-8.156,8.838
				c-7.478,0.454-14.277,0.907-21.924,0.169c-5.018-1.767-6.142-6.331-4.248-10.706C129.072,113.724,153.894,106.152,155.381,121.891
				z"/>
			<path fill-rule="evenodd" fill="#44210C" d="M67.277,122.459c3.463-12.959,28.739-5.942,36.39-0.628
				C96.949,111.785,63.375,105.454,67.277,122.459z"/>
			<path fill-rule="evenodd" fill="#44210C" d="M155.497,122.46c-3.463-12.959-28.739-5.943-36.39-0.629
				C125.825,111.785,159.399,105.455,155.497,122.46z"/>
		</g>
	</g>
	<g>
		<path fill="none" d="M101.721,120.191c-1.352-1.09-3.188-2.21-5.302-3.246l1.93,4.174c0,0-0.001,0-0.002,0l0,0c0,0,0,0,0,0
			l0.001,0.001c-1.089-0.08-2.177-0.137-3.263-0.176c-0.097-0.003-0.195-0.002-0.292-0.005c0.002,0.071,0.011,0.14,0.011,0.212
			c0,5.091-4.128,9.219-9.219,9.219c-4.786,0-8.72-3.648-9.175-8.314c-0.22,0.031-0.44,0.061-0.66,0.093
			c-0.401,0.059-0.798,0.115-1.203,0.178c-0.793,0.124-1.586,0.257-2.378,0.394c-0.2,0.035-0.395,0.064-0.595,0.1l-0.002,0.001
			l0.001-0.003l5.501-10.115c-5.137,0.572-9.111,3.176-9.678,9.185c0.369,3.656,2.8,6.543,8.156,8.838
			c7.478,0.455,14.277,0.907,21.924,0.169C102.491,129.131,103.615,124.566,101.721,120.191z"/>
		<path fill="none" d="M95.013,120.941c-0.074-0.003-0.147-0.003-0.22-0.005c0,0,0,0.001,0,0.001
			C94.866,120.94,94.94,120.939,95.013,120.941z"/>
		<polygon fill="none" points="98.347,121.119 98.347,121.119 97.559,119.415 	"/>
		<path fill="none" d="M75.37,122.203c-0.224,0.034-0.448,0.065-0.673,0.1C74.923,122.268,75.145,122.237,75.37,122.203z"/>
		<path fill="#3B140A" d="M78.641,121.753c-0.283,0.035-0.566,0.071-0.848,0.108C78.077,121.824,78.359,121.788,78.641,121.753z"/>
		<path fill="#3B140A" d="M81.719,121.405c-0.206,0.02-0.412,0.044-0.618,0.066C81.306,121.45,81.514,121.425,81.719,121.405z"/>
		<path fill="#3B140A" d="M91.411,120.89c0.079,0,0.159-0.003,0.237-0.003C91.569,120.887,91.49,120.889,91.411,120.89z"/>
		<path fill="#3B140A" d="M91.752,120.888c-0.238,0-0.48,0.007-0.719,0.009c-0.707,0.006-1.414,0.021-2.12,0.043
			c0.005,0.071,0.021,0.139,0.021,0.211c0,1.845-1.506,3.351-3.351,3.351c-1.774,0-3.22-1.396-3.33-3.143
			c-0.134,0.013-0.268,0.021-0.402,0.034c-0.364,0.036-0.734,0.078-1.101,0.117c-0.635,0.068-1.27,0.14-1.904,0.218
			c-0.417,0.051-0.836,0.105-1.257,0.161c-0.394,0.052-0.787,0.111-1.181,0.167c0.455,4.666,4.389,8.314,9.175,8.314
			c5.091,0,9.219-4.128,9.219-9.219c0-0.072-0.009-0.141-0.011-0.212c-0.571-0.018-1.146-0.023-1.72-0.031
			C92.632,120.903,92.192,120.888,91.752,120.888z"/>
		<path fill="#3B140A" d="M94.792,120.936c-0.177-0.006-0.353-0.004-0.529-0.008c0.176,0.005,0.354,0.004,0.529,0.01
			C94.793,120.937,94.793,120.936,94.792,120.936z"/>
		<path fill="#601F0B" d="M74.697,122.303c0.224-0.035,0.448-0.066,0.673-0.1c0.816-0.122,1.624-0.237,2.423-0.342
			c0.283-0.037,0.566-0.073,0.848-0.108c0.828-0.103,1.648-0.197,2.459-0.282c0.206-0.021,0.412-0.045,0.618-0.066
			c0.178-0.018,0.357-0.037,0.535-0.054c-0.004-0.067-0.02-0.132-0.02-0.2c0-1.846,1.505-3.351,3.351-3.351
			c1.771,0,3.215,1.391,3.329,3.134c0.839-0.026,1.672-0.041,2.498-0.045c0.079,0,0.158-0.003,0.237-0.003
			c0.066,0,0.134-0.003,0.201-0.003c0.808,0,1.611,0.022,2.414,0.044c0.177,0.005,0.353,0.003,0.529,0.008
			c0.074,0.002,0.147,0.003,0.22,0.005c1.091,0.038,2.172,0.096,3.238,0.173c0.032,0.002,0.065,0.003,0.096,0.005l-0.788-1.704
			l-1.143-2.471c-5.639-2.763-13.294-4.912-19.342-4.24l-5.5,10.114C72.631,122.632,73.669,122.462,74.697,122.303z M90.609,115.603
			c1.263,0,2.293,1.03,2.293,2.293c0,1.263-1.03,2.292-2.293,2.292c-1.263,0-2.292-1.029-2.292-2.292
			C88.317,116.633,89.346,115.603,90.609,115.603z"/>
		<path fill="#601F0B" d="M74.546,122.328c-0.784,0.122-1.578,0.255-2.378,0.394C72.959,122.585,73.752,122.452,74.546,122.328z"/>
		<path fill="#601F0B" d="M95.085,120.945c1.086,0.039,2.173,0.095,3.263,0.176l-0.001-0.001c-0.032-0.002-0.065-0.003-0.096-0.005
			C97.208,121.04,96.151,120.983,95.085,120.945z"/>
		<path fill="#601F0B" d="M78.847,121.729c0.634-0.078,1.269-0.15,1.904-0.218C80.121,121.579,79.487,121.65,78.847,121.729z"/>
		<path fill="#601F0B" d="M91.849,120.887c-0.032,0-0.065,0.001-0.097,0.001c0.439,0,0.88,0.015,1.32,0.021
			C92.664,120.903,92.258,120.887,91.849,120.887z"/>
		<path fill="#601F0B" d="M75.749,122.15c0.22-0.032,0.44-0.062,0.66-0.093c0.393-0.056,0.787-0.114,1.181-0.167
			C76.982,121.971,76.367,122.059,75.749,122.15z"/>
		<path fill="#601F0B" d="M82.254,121.354c-0.133,0.013-0.268,0.027-0.401,0.04c0.134-0.013,0.268-0.022,0.402-0.034
			C82.254,121.358,82.254,121.356,82.254,121.354z"/>
		<path fill="#601F0B" d="M91.034,120.897c-0.702,0.006-1.408,0.019-2.12,0.04c0,0.001,0,0.002,0,0.003
			C89.62,120.919,90.326,120.903,91.034,120.897z"/>
		<polygon fill="#44210C" points="98.347,121.119 98.349,121.119 96.419,116.945 96.416,116.944 97.559,119.415 	"/>
		<path fill="#44210C" d="M71.569,122.823l0.002-0.001c0.201-0.036,0.396-0.065,0.595-0.1c0.8-0.138,1.595-0.271,2.378-0.394
			c0.405-0.063,0.803-0.119,1.203-0.178c0.618-0.091,1.233-0.179,1.841-0.26c0.422-0.056,0.84-0.109,1.257-0.161
			c0.64-0.079,1.274-0.15,1.904-0.218c0.367-0.039,0.737-0.082,1.101-0.117c0.134-0.013,0.268-0.027,0.401-0.04
			c0-0.001,0-0.002,0-0.003c-0.177,0.017-0.357,0.036-0.535,0.054c-0.205,0.02-0.413,0.044-0.618,0.066
			c-0.811,0.085-1.631,0.178-2.459,0.282c-0.282,0.035-0.565,0.071-0.848,0.108c-0.799,0.105-1.607,0.22-2.423,0.342
			c-0.225,0.034-0.447,0.065-0.673,0.1c-1.028,0.159-2.066,0.329-3.123,0.516l5.5-10.114c-0.001,0-0.002,0-0.003,0L71.57,122.82
			L71.569,122.823z"/>
		<path fill="#44210C" d="M95.013,120.941c-0.073-0.003-0.147-0.002-0.22-0.004c-0.176-0.006-0.353-0.005-0.529-0.01
			c-0.803-0.021-1.606-0.044-2.414-0.044c-0.066,0-0.134,0.002-0.201,0.003c-0.079,0-0.159,0.003-0.237,0.003
			c-0.826,0.004-1.659,0.019-2.498,0.045c0,0.001,0,0.002,0,0.003c0.712-0.022,1.418-0.034,2.12-0.04
			c0.239-0.002,0.481-0.009,0.719-0.009c0.032,0,0.065-0.001,0.097-0.001c0.409,0,0.815,0.016,1.223,0.022
			c0.574,0.008,1.15,0.012,1.72,0.031c0.097,0.003,0.195,0.002,0.292,0.005c1.067,0.038,2.124,0.095,3.166,0.169
			C97.185,121.037,96.104,120.979,95.013,120.941z"/>
		<path fill="#44210C" d="M98.251,121.114c0.032,0.002,0.065,0.003,0.096,0.005c0,0,0,0,0,0l0,0c0,0,0,0,0,0
			C98.315,121.117,98.282,121.116,98.251,121.114z"/>
		<path fill="#041723" d="M85.584,124.502c1.845,0,3.351-1.505,3.351-3.351c0-0.072-0.017-0.14-0.021-0.211c0-0.001,0-0.002,0-0.003
			c0-0.001,0-0.002,0-0.003c-0.115-1.743-1.558-3.134-3.329-3.134c-1.845,0-3.351,1.505-3.351,3.351c0,0.068,0.016,0.133,0.02,0.2
			c0,0.001,0,0.002,0,0.003c0,0.002,0,0.003,0,0.005C82.364,123.107,83.81,124.502,85.584,124.502z"/>
		<path fill="#FFFFFF" d="M90.609,120.188c1.263,0,2.293-1.029,2.293-2.292c0-1.263-1.03-2.293-2.293-2.293
			c-1.263,0-2.292,1.03-2.292,2.293C88.317,119.159,89.346,120.188,90.609,120.188z"/>
	</g>
	<g>
		<path fill="none" d="M127.982,120.936c-0.072,0.002-0.144,0.002-0.216,0.005c0.071-0.003,0.144-0.002,0.216-0.004
			C127.982,120.937,127.982,120.937,127.982,120.936z"/>
		<path fill="none" d="M124.428,121.121L124.428,121.121c0.021-0.001,0.043-0.001,0.065-0.003c0.099-0.007,0.201-0.01,0.3-0.017
			C124.671,121.11,124.55,121.112,124.428,121.121z"/>
		<path fill="none" d="M147.414,122.206c0.22,0.033,0.438,0.063,0.66,0.098C147.854,122.269,147.634,122.239,147.414,122.206z"/>
		<path fill="none" d="M145.702,112.706l5.503,10.118l-0.003-0.001c-0.222-0.039-0.437-0.072-0.658-0.11
			c-0.767-0.132-1.534-0.261-2.302-0.381c-0.423-0.066-0.839-0.125-1.257-0.186c-0.207-0.03-0.414-0.058-0.621-0.088
			c-0.455,4.666-4.389,8.314-9.175,8.314c-5.091,0-9.219-4.128-9.219-9.219c0-0.072,0.009-0.141,0.011-0.212
			c-0.095,0.003-0.192,0.002-0.288,0.005c-0.846,0.03-1.693,0.082-2.541,0.137c-0.219,0.014-0.443,0.02-0.66,0.036
			c-0.021,0.002-0.044,0.002-0.065,0.004v0c0,0-0.001,0-0.001,0l0,0c0,0,0,0,0,0l1.126-2.435l0.804-1.741
			c-2.115,1.036-3.952,2.156-5.304,3.247c-1.894,4.375-0.77,8.939,4.248,10.706c7.647,0.738,14.446,0.286,21.924-0.169
			c5.356-2.295,7.786-5.182,8.156-8.838C154.813,115.881,150.839,113.277,145.702,112.706z"/>
		<path fill="#3B140A" d="M144.147,121.755c0.273,0.034,0.547,0.069,0.822,0.105C144.695,121.824,144.421,121.789,144.147,121.755z"
			/>
		<path fill="#3B140A" d="M141.066,121.407c0.192,0.019,0.386,0.042,0.579,0.062C141.452,121.448,141.259,121.426,141.066,121.407z"
			/>
		<path fill="#3B140A" d="M131.141,120.887c0.055,0,0.111,0.002,0.166,0.002C131.251,120.889,131.196,120.887,131.141,120.887z"/>
		<path fill="#3B140A" d="M143.909,121.728c-0.622-0.076-1.245-0.147-1.868-0.214c-0.376-0.04-0.754-0.084-1.127-0.12
			c-0.131-0.013-0.263-0.021-0.395-0.034c-0.11,1.747-1.556,3.143-3.33,3.143c-1.845,0-3.351-1.505-3.351-3.351
			c0-0.072,0.017-0.14,0.021-0.211c-0.724-0.022-1.448-0.038-2.174-0.044c-0.216-0.002-0.435-0.008-0.65-0.008
			c-0.501-0.001-1.004,0.016-1.505,0.024c-0.517,0.008-1.036,0.011-1.55,0.028c-0.002,0.071-0.011,0.141-0.011,0.212
			c0,5.091,4.128,9.219,9.219,9.219c4.786,0,8.72-3.648,9.175-8.314c-0.387-0.055-0.774-0.112-1.162-0.164
			C144.769,121.835,144.338,121.781,143.909,121.728z"/>
		<path fill="#3B140A" d="M128.406,120.93c-0.141,0.004-0.283,0.002-0.424,0.007c0,0,0,0.001,0,0.001
			C128.122,120.933,128.265,120.934,128.406,120.93z"/>
		<path fill="#601F0B" d="M150.544,122.712c-0.774-0.133-1.543-0.263-2.302-0.381C149.01,122.451,149.778,122.58,150.544,122.712z"/>
		<polygon fill="#601F0B" points="124.427,121.121 124.427,121.121 125.552,118.686 	"/>
		<path fill="#601F0B" d="M124.793,121.101c0.98-0.069,1.971-0.125,2.973-0.16c0.072-0.003,0.144-0.003,0.216-0.005
			c0.142-0.005,0.283-0.003,0.424-0.007c0.836-0.023,1.674-0.046,2.515-0.046c0.073,0,0.147,0.003,0.22,0.003
			c0.055,0,0.11,0.002,0.166,0.002c0.844,0.003,1.696,0.02,2.554,0.046c0.115-1.743,1.558-3.134,3.329-3.134
			c1.845,0,3.351,1.505,3.351,3.351c0,0.068-0.016,0.132-0.02,0.2c0.181,0.017,0.364,0.037,0.545,0.055
			c0.193,0.019,0.386,0.042,0.579,0.062c0.825,0.086,1.659,0.181,2.502,0.286c0.274,0.034,0.548,0.069,0.822,0.105
			c0.806,0.106,1.622,0.222,2.446,0.345c0.22,0.033,0.44,0.064,0.66,0.098c1.029,0.16,2.067,0.329,3.125,0.516l-5.5-10.114
			c-6.048-0.672-13.702,1.477-19.341,4.239l-1.93,4.177C124.55,121.112,124.671,121.11,124.793,121.101z M132.165,115.604
			c1.263,0,2.293,1.03,2.293,2.293c0,1.263-1.03,2.292-2.293,2.292s-2.292-1.029-2.292-2.292
			C129.873,116.633,130.903,115.604,132.165,115.604z"/>
		<path fill="#601F0B" d="M127.694,120.945c-0.856,0.03-1.699,0.082-2.541,0.137C126.001,121.027,126.848,120.975,127.694,120.945z"
			/>
		<path fill="#601F0B" d="M131.687,120.897c0.725,0.006,1.45,0.022,2.174,0.044c0-0.001,0-0.002,0-0.003
			C133.131,120.915,132.406,120.902,131.687,120.897z"/>
		<path fill="#601F0B" d="M145.203,121.893c0.388,0.052,0.775,0.109,1.162,0.164c0.207,0.029,0.414,0.057,0.621,0.088
			C146.388,122.057,145.792,121.972,145.203,121.893z"/>
		<path fill="#601F0B" d="M140.915,121.394c-0.131-0.013-0.263-0.027-0.394-0.039c0,0.002,0,0.003-0.001,0.005
			C140.651,121.373,140.783,121.381,140.915,121.394z"/>
		<path fill="#601F0B" d="M142.042,121.514c0.623,0.067,1.245,0.137,1.868,0.214C143.282,121.651,142.66,121.58,142.042,121.514z"/>
		<path fill="#601F0B" d="M129.532,120.912c0.502-0.008,1.004-0.024,1.505-0.024c-0.038,0-0.078-0.001-0.116-0.001
			C130.456,120.887,129.995,120.905,129.532,120.912z"/>
		<path fill="#44210C" d="M124.428,121.121c0.021-0.002,0.044-0.002,0.065-0.004C124.471,121.119,124.449,121.12,124.428,121.121
			L124.428,121.121z"/>
		<polygon fill="#44210C" points="124.427,121.121 124.427,121.121 124.428,121.121 124.428,121.121 126.358,116.944 
			126.357,116.945 125.552,118.686 	"/>
		<path fill="#44210C" d="M148.074,122.303c-0.222-0.034-0.439-0.065-0.66-0.098c-0.824-0.124-1.639-0.239-2.446-0.345
			c-0.275-0.036-0.549-0.071-0.822-0.105c-0.843-0.105-1.677-0.201-2.502-0.286c-0.192-0.02-0.387-0.043-0.579-0.062
			c-0.181-0.018-0.365-0.038-0.545-0.055c0,0.001,0,0.002,0,0.003c0.131,0.012,0.263,0.026,0.394,0.039
			c0.373,0.036,0.751,0.08,1.127,0.12c0.618,0.066,1.24,0.137,1.868,0.214c0.429,0.053,0.86,0.108,1.294,0.165
			c0.589,0.079,1.185,0.164,1.783,0.252c0.418,0.061,0.834,0.12,1.257,0.186c0.758,0.119,1.528,0.248,2.302,0.381
			c0.221,0.038,0.436,0.071,0.658,0.11l0.003,0.001l-5.503-10.118c-0.001,0-0.002,0-0.002,0l5.5,10.114
			C150.142,122.632,149.103,122.463,148.074,122.303z"/>
		<path fill="#44210C" d="M130.921,120.887c0.038,0,0.078,0.001,0.116,0.001c0.215,0,0.434,0.006,0.65,0.008
			c0.72,0.006,1.444,0.019,2.174,0.041c0-0.001,0-0.002,0-0.003c-0.858-0.026-1.71-0.042-2.554-0.046
			c-0.055,0-0.111-0.002-0.166-0.002c-0.073,0-0.147-0.003-0.22-0.003c-0.842,0-1.679,0.022-2.515,0.046
			c-0.141,0.004-0.283,0.003-0.424,0.008c-0.072,0.002-0.144,0.001-0.216,0.004c-1.002,0.035-1.993,0.091-2.973,0.16
			c-0.099,0.007-0.201,0.009-0.3,0.017c0.217-0.016,0.442-0.022,0.66-0.036c0.841-0.054,1.685-0.106,2.541-0.137
			c0.095-0.003,0.192-0.002,0.288-0.005c0.514-0.017,1.033-0.02,1.55-0.028C129.995,120.905,130.456,120.887,130.921,120.887z"/>
		<path fill="#041723" d="M133.86,120.941c-0.005,0.071-0.021,0.139-0.021,0.211c0,1.845,1.506,3.351,3.351,3.351
			c1.774,0,3.22-1.395,3.33-3.143c0-0.002,0-0.003,0.001-0.005c0-0.001,0-0.002,0-0.003c0.004-0.067,0.02-0.131,0.02-0.2
			c0-1.846-1.505-3.351-3.351-3.351c-1.771,0-3.215,1.391-3.329,3.134c0,0.001,0,0.002,0,0.003
			C133.861,120.939,133.86,120.94,133.86,120.941z"/>
		<path fill="#FFFFFF" d="M132.165,120.188c1.263,0,2.293-1.029,2.293-2.292c0-1.263-1.03-2.293-2.293-2.293s-2.292,1.03-2.292,2.293
			C129.873,119.159,130.903,120.188,132.165,120.188z"/>
	</g>
	
</g>	
</svg>
