<?xml version="1.0" encoding="utf-8"?>
<!-- Generator: Adobe Illustrator 17.0.0, SVG Export Plug-In . SVG Version: 6.00 Build 0)  -->
<svg version="1.2" baseProfile="tiny" id="Capa_1" xmlns="http://www.w3.org/2000/svg" xmlns:xlink="http://www.w3.org/1999/xlink"
	 x="0px" y="0px" width="211px" height="228.77px" viewBox="0 0 211 228.77" xml:space="preserve">
<g>
	<g>
		<path fill="#FFFFFF" d="M69.756,110.022c6.355,14.998,12.331,15.865,20.52,16.114c5.155,0.156,10.581-1.446,13.261-5.771
			c-2.523-3.189-4.354-6.155-6.094-9.811C87.392,111.52,79.417,110.94,69.756,110.022z"/>
		<g>
			<path fill="none" d="M97.444,110.553c-0.061,0.006-0.118,0.008-0.179,0.014c-0.816,5.32-4.693,9.374-9.338,9.374
				c-4.593,0-8.44-3.961-9.314-9.191c-2.864-0.185-5.771-0.435-8.856-0.728c6.355,14.998,12.331,15.865,20.52,16.114
				c5.155,0.156,10.581-1.446,13.261-5.771C101.015,117.175,99.184,114.21,97.444,110.553z"/>
			<path fill="#041723" imag="0" d="M87.927,119.942c4.645,0,8.523-4.054,9.338-9.374c-3.832,0.362-7.366,0.498-10.808,0.478
				c0.041,0.259,0.067,0.524,0.067,0.797c0,2.33-1.578,4.23-3.511,4.23s-3.51-1.9-3.51-4.23c0-0.356,0.048-0.696,0.117-1.026
				c-0.334-0.02-0.672-0.044-1.007-0.066C79.487,115.981,83.334,119.942,87.927,119.942z"/>
			<path fill="#B8C5CD" d="M83.013,116.073c1.933,0,3.511-1.9,3.511-4.23c0-0.273-0.026-0.538-0.067-0.797
				c-2.297-0.013-4.558-0.096-6.837-0.23c-0.069,0.331-0.117,0.671-0.117,1.026C79.502,114.172,81.079,116.073,83.013,116.073z"/>
		</g>
		<path d="M65.821,107.63c10.203,1.859,20.957,2.497,32.381,1.82c1.896,3.656,3.838,7.424,6.808,9.782
			c-0.665,0.86-1.626,2.075-2.291,2.934c-2.586-3.274-4.001-6.018-5.708-10.176c-8.509,1.143-17.427-0.315-25.541-1.059
			c1.747,4.163,3.93,8.678,7.503,13.017C73.469,119.669,68.582,114.736,65.821,107.63z"/>
		<path d="M81.183,124.535c5.888,1.282,12.415,0.769,18.607-0.036C93.984,127.824,87.259,128.823,81.183,124.535z"/>
	</g>
	<g>
		<path fill="#FFFFFF" d="M152.566,110.022c-6.355,14.998-12.331,15.865-20.52,16.114c-5.155,0.156-10.581-1.446-13.261-5.771
			c2.523-3.189,4.354-6.155,6.094-9.811C134.929,111.52,142.905,110.94,152.566,110.022z"/>
		<g>
			<path fill="none" d="M143.71,110.75c-0.875,5.23-4.723,9.191-9.315,9.191c-4.645,0-8.522-4.054-9.338-9.374
				c-0.061-0.006-0.119-0.008-0.18-0.014c-1.74,3.657-3.57,6.622-6.094,9.811c2.68,4.325,8.107,5.927,13.261,5.771
				c8.189-0.248,14.165-1.116,20.52-16.114C149.481,110.315,146.574,110.566,143.71,110.75z"/>
			<path fill="#041723" imag="0" d="M134.395,119.941c4.593,0,8.44-3.961,9.315-9.191c-3.588,0.232-7.113,0.345-10.788,0.268
				c0.044,0.267,0.069,0.542,0.069,0.824c0,2.33-1.578,4.23-3.511,4.23c-1.933,0-3.51-1.9-3.51-4.23c0-0.416,0.066-0.81,0.159-1.19
				c-0.36-0.031-0.707-0.051-1.072-0.085C125.873,115.887,129.75,119.941,134.395,119.941z"/>
			<path fill="#B8C5CD" d="M129.481,116.073c1.933,0,3.511-1.9,3.511-4.23c0-0.282-0.025-0.557-0.069-0.824
				c-2.186-0.046-4.441-0.166-6.793-0.365c-0.094,0.38-0.159,0.774-0.159,1.19C125.971,114.172,127.548,116.073,129.481,116.073z"/>
		</g>
		<path d="M156.5,107.63c-10.203,1.859-20.957,2.497-32.381,1.82c-1.896,3.656-3.838,7.424-6.808,9.782
			c0.665,0.86,1.626,2.075,2.291,2.934c2.586-3.274,4.001-6.018,5.708-10.176c8.509,1.143,17.427-0.315,25.541-1.059
			c-1.747,4.163-3.93,8.678-7.503,13.017C148.853,119.669,153.739,114.736,156.5,107.63z"/>
		<path d="M141.139,124.534c-5.888,1.282-12.415,0.769-18.607-0.036C128.338,127.824,135.063,128.823,141.139,124.534z"/>
	</g>
</g>
</svg>
