<?xml version="1.0" encoding="utf-8"?>
<!-- Generator: Adobe Illustrator 17.0.0, SVG Export Plug-In . SVG Version: 6.00 Build 0)  -->
<svg version="1.2" baseProfile="tiny" id="Capa_1" xmlns="http://www.w3.org/2000/svg" xmlns:xlink="http://www.w3.org/1999/xlink"
	 x="0px" y="0px" width="211px" height="228.77px" viewBox="0 0 211 228.77" xml:space="preserve">
<g>
	<path fill="#FFFFFF" d="M101.534,121.227c-2.951,3.74-6.957,6.165-11.75,7.604c-12.791,1.451-23.701-3.082-23.845-18.318
		c10.252,0.828,20.331,2.177,30.585,2.074C97.165,116.494,99.049,119.162,101.534,121.227z"/>
	<g>
		<path fill="none" d="M96.523,112.588c-0.747,0.008-1.49-0.008-2.235-0.015c0.102,0.578,0.165,1.169,0.165,1.775
			c0,5.624-4.587,10.211-10.211,10.211s-10.211-4.587-10.211-10.211c0-1.066,0.166-2.094,0.471-3.061
			c-2.847-0.27-5.698-0.541-8.565-0.773c0.144,15.235,11.054,19.769,23.845,18.318c4.793-1.439,8.8-3.863,11.75-7.604
			C99.049,119.162,97.165,116.494,96.523,112.588z"/>
		<path fill="#4E4E4E" imag="0" d="M84.242,124.558c5.624,0,10.21-4.587,10.211-10.211c0-0.606-0.063-1.197-0.165-1.775
			c-0.301-0.003-0.603-0.001-0.904-0.006c0.161,0.418,0.259,0.868,0.259,1.341c0,2.076-1.694,3.77-3.771,3.77
			c-1.133,0-2.14-0.514-2.832-1.31c-0.63,0.868-1.646,1.441-2.797,1.441c-1.907,0-3.462-1.555-3.462-3.462
			c0-0.935,0.377-1.782,0.983-2.406c-2.418-0.2-4.837-0.425-7.259-0.654c-0.305,0.967-0.471,1.995-0.471,3.061
			C74.032,119.971,78.618,124.558,84.242,124.558z"/>
		<path fill="#041723" d="M84.241,117.809c1.151,0,2.167-0.572,2.797-1.441c-0.577-0.663-0.939-1.517-0.939-2.46
			c0-0.585,0.146-1.132,0.385-1.627c-1.575-0.099-3.149-0.21-4.722-0.34c-0.606,0.624-0.983,1.471-0.983,2.406
			C80.78,116.254,82.334,117.809,84.241,117.809z"/>
		<path fill="#FFFFFF" d="M87.039,116.368c0.692,0.795,1.699,1.31,2.832,1.31c2.077,0,3.771-1.694,3.771-3.77
			c0-0.474-0.098-0.923-0.259-1.341c-2.305-0.039-4.603-0.142-6.898-0.285c-0.239,0.495-0.385,1.042-0.385,1.627
			C86.1,114.852,86.462,115.706,87.039,116.368z"/>
	</g>
	<path fill="#FFFFFF" d="M116.072,121.227c2.951,3.74,6.957,6.165,11.75,7.604c12.791,1.451,23.701-3.083,23.845-18.318
		c-10.252,0.828-20.331,2.177-30.585,2.074C120.441,116.494,118.557,119.162,116.072,121.227z"/>
	<g>
		<path fill="none" d="M143.105,111.286c0.305,0.967,0.471,1.995,0.471,3.061c0,5.624-4.587,10.211-10.211,10.211
			c-5.624,0-10.21-4.587-10.21-10.211c0-0.606,0.063-1.197,0.165-1.775c-0.745,0.007-1.49,0.022-2.237,0.015
			c-0.642,3.906-2.526,6.574-5.011,8.64c2.951,3.74,6.957,6.165,11.75,7.604c12.791,1.451,23.701-3.082,23.845-18.318
			C148.802,110.745,145.951,111.017,143.105,111.286z"/>
		<path fill="#4E4E4E" imag="0" d="M133.365,124.558c5.624,0,10.211-4.587,10.211-10.211c0-1.066-0.166-2.094-0.471-3.061
			c-0.437,0.041-0.873,0.082-1.31,0.123c0.596,0.667,0.97,1.537,0.97,2.498c0,2.076-1.694,3.77-3.771,3.77
			c-1.133,0-2.14-0.514-2.832-1.31c-0.63,0.868-1.646,1.44-2.797,1.44c-1.907,0-3.462-1.555-3.462-3.462
			c0-0.762,0.256-1.461,0.675-2.033c-2.414,0.144-4.832,0.236-7.258,0.259c-0.102,0.578-0.165,1.169-0.165,1.775
			C123.155,119.971,127.741,124.558,133.365,124.558z"/>
		<path fill="#041723" d="M133.365,117.809c1.151,0,2.167-0.572,2.797-1.44c-0.577-0.663-0.939-1.517-0.939-2.461
			c0-0.721,0.214-1.389,0.568-1.963c-1.737,0.143-3.474,0.265-5.213,0.369c-0.419,0.573-0.675,1.272-0.675,2.033
			C129.903,116.254,131.458,117.809,133.365,117.809z"/>
		<path fill="#FFFFFF" d="M136.162,116.369c0.692,0.795,1.699,1.31,2.832,1.31c2.077,0,3.771-1.694,3.771-3.77
			c0-0.961-0.374-1.831-0.97-2.498c-2.003,0.189-4.004,0.371-6.004,0.535c-0.353,0.574-0.568,1.242-0.568,1.963
			C135.223,114.852,135.585,115.706,136.162,116.369z"/>
	</g>
	<path fill="#231F20" d="M59.251,109.069c12.628,1.004,25.056,2.206,38.6,2.291c0.673,4.888,3.144,7.979,5.559,11.123
		c-3.498-1.333-6.642-3.358-7.522-8.179c-11.537-0.63-21.144-1.61-28.351-3.028c-0.388,10.503,7.662,18.648,24.907,16.787
		c-13.8,5.034-27.649,0.59-27.953-17.448C62.511,110.14,60.758,109.626,59.251,109.069z"/>
	<path fill="#231F20" d="M158.355,109.069c-12.627,1.004-25.055,2.206-38.599,2.291c-0.673,4.888-3.144,7.979-5.56,11.123
		c3.498-1.333,6.643-3.358,7.522-8.179c11.537-0.63,21.144-1.61,28.351-3.028c0.388,10.503-7.663,18.648-24.907,16.787
		c13.8,5.034,27.649,0.59,27.954-17.448C155.095,110.14,156.848,109.626,158.355,109.069z"/>
</g>
</svg>
