<?xml version="1.0" encoding="utf-8"?>
<!-- Generator: Adobe Illustrator 17.0.0, SVG Export Plug-In . SVG Version: 6.00 Build 0)  -->
<svg version="1.2" baseProfile="tiny" id="Capa_1" xmlns="http://www.w3.org/2000/svg" xmlns:xlink="http://www.w3.org/1999/xlink"
	 x="0px" y="0px" width="211px" height="228.77px" viewBox="0 0 211 228.77" xml:space="preserve">
<g>
	<g>
		<path fill-rule="evenodd" fill="#FFFFFF" d="M66.854,125.957c-0.944-2.455-1.428-4.715-1.187-7.414
			c0.467-2.57,1.462-4.843,3.114-7.413c8.554-0.601,16.901,0.005,25.058,1.779c2.349,2.464,4.473,4.998,5.634,7.859
			c-0.332,3.129-1.3,5.62-2.817,7.561c-2.106,1.945-4.365,3.296-7.266,4.448c-4.053,0.394-8.105,0.346-12.158-0.149
			C73.099,131.749,69.799,129.209,66.854,125.957z"/>
		<g>
			<path fill="none" d="M93.838,112.909c-0.578-0.126-1.158-0.232-1.738-0.346c0.541,1.218,0.847,2.562,0.847,3.977
				c0,5.431-4.429,9.858-9.859,9.858c-5.43,0-9.858-4.428-9.858-9.858c0-2.093,0.663-4.033,1.782-5.633
				c-2.065,0.003-4.142,0.076-6.231,0.222c-1.652,2.57-2.647,4.843-3.114,7.413c-0.241,2.699,0.242,4.959,1.187,7.414
				c2.945,3.252,6.245,5.792,10.378,6.672c4.053,0.495,8.105,0.543,12.158,0.148c2.901-1.152,5.16-2.503,7.266-4.448
				c1.517-1.941,2.485-4.432,2.817-7.561C98.311,117.907,96.187,115.373,93.838,112.909z"/>
			<path fill="#494848" imag="0" d="M83.088,126.399c5.431,0,9.859-4.428,9.859-9.858c0-1.415-0.306-2.759-0.847-3.977
				c-1.835-0.361-3.679-0.663-5.534-0.906c1.526,1.091,2.527,2.872,2.527,4.884c0,3.307-2.698,6.004-6.005,6.004
				c-3.307,0-6.004-2.697-6.004-6.004c0-2.42,1.448-4.509,3.519-5.458c-1.855-0.114-3.717-0.179-5.592-0.176
				c-1.119,1.599-1.782,3.54-1.782,5.633C73.23,121.971,77.658,126.399,83.088,126.399z"/>
			<path d="M77.085,116.542c0,3.307,2.697,6.004,6.004,6.004c3.307,0,6.005-2.697,6.005-6.004c0-2.011-1.001-3.793-2.527-4.884
				c-1.976-0.258-3.964-0.451-5.963-0.574C78.533,112.032,77.085,114.121,77.085,116.542z"/>
		</g>
		<path fill-rule="evenodd" d="M63.466,111.486c2.029-0.649,4.226-1.529,6.368-1.714c8.819-0.763,19.136,0.481,24.717,2.011
			c2.861,3.195,4.494,6.238,5.762,9.88c-2.85-2.791-4.798-5.735-7.204-7.521c-7.335-1.78-17.131-2.071-23.568-1.682
			c-1.576,2.153-2.556,4.009-4.131,7.348c-0.06-2.495,0.014-3.51,0.747-6.005C65.409,113.179,64.215,112.109,63.466,111.486z"/>
		<path fill-rule="evenodd" d="M66.557,125.216c2.745,2.691,5.804,5.273,10.527,6.377c4.299,0.345,8.154,0.394,12.601,0.295
			c2.817-1.285,5.485-3.311,7.858-5.041c-1.605,3.03-3.786,5.321-8.155,6.968c-4.35,0.149-7.806,0.003-12.304-0.443
			C71.617,131.785,68.466,129.171,66.557,125.216z"/>
	</g>
	<g>
		<path fill-rule="evenodd" fill="#FFFFFF" d="M148.937,125.957c0.944-2.455,1.428-4.715,1.187-7.414
			c-0.466-2.57-1.462-4.843-3.114-7.413c-8.554-0.601-16.901,0.005-25.057,1.779c-2.349,2.464-4.473,4.998-5.634,7.859
			c0.332,3.129,1.299,5.62,2.817,7.561c2.106,1.945,4.365,3.296,7.266,4.448c4.053,0.394,8.105,0.346,12.158-0.149
			C142.692,131.749,145.992,129.209,148.937,125.957z"/>
		<g>
			<path fill="none" d="M150.123,118.543c-0.466-2.57-1.462-4.843-3.114-7.413c-2.089-0.147-4.166-0.219-6.231-0.222
				c1.12,1.599,1.782,3.54,1.782,5.633c0,5.431-4.429,9.858-9.859,9.858s-9.858-4.428-9.858-9.858c0-1.415,0.306-2.759,0.847-3.977
				c-0.58,0.114-1.161,0.22-1.738,0.346c-2.349,2.464-4.473,4.998-5.634,7.859c0.332,3.129,1.299,5.62,2.817,7.561
				c2.106,1.945,4.365,3.296,7.266,4.448c4.053,0.394,8.105,0.346,12.158-0.148c4.133-0.88,7.433-3.42,10.378-6.672
				C149.881,123.502,150.365,121.242,150.123,118.543z"/>
			<path fill="#494848"  imag="0" d="M132.702,126.399c5.431,0,9.859-4.428,9.859-9.858c0-2.093-0.663-4.033-1.782-5.633
				c-1.875-0.003-3.738,0.061-5.592,0.176c2.071,0.949,3.519,3.038,3.519,5.458c0,3.307-2.698,6.004-6.005,6.004
				c-3.307,0-6.004-2.697-6.004-6.004c0-2.011,1.001-3.793,2.527-4.884c-1.854,0.242-3.698,0.545-5.533,0.905
				c-0.541,1.218-0.847,2.562-0.847,3.977C122.843,121.971,127.271,126.399,132.702,126.399z"/>
			<path d="M126.696,116.542c0,3.307,2.697,6.004,6.004,6.004c3.307,0,6.005-2.697,6.005-6.004c0-2.42-1.448-4.509-3.519-5.458
				c-1.999,0.123-3.986,0.316-5.963,0.574C127.698,112.749,126.696,114.53,126.696,116.542z"/>
		</g>
		<path fill-rule="evenodd" d="M152.324,111.486c-2.03-0.649-4.226-1.529-6.368-1.714c-8.819-0.763-19.136,0.481-24.717,2.011
			c-2.861,3.195-4.494,6.238-5.762,9.88c2.85-2.791,4.798-5.735,7.204-7.521c7.335-1.78,17.131-2.071,23.568-1.682
			c1.576,2.153,2.556,4.009,4.131,7.348c0.06-2.495-0.014-3.51-0.747-6.005C150.381,113.179,151.575,112.109,152.324,111.486z"/>
		<path fill-rule="evenodd" d="M149.233,125.216c-2.745,2.691-5.804,5.273-10.527,6.377c-4.299,0.345-8.155,0.394-12.602,0.295
			c-2.817-1.285-5.485-3.311-7.858-5.041c1.605,3.03,3.786,5.321,8.155,6.968c4.35,0.149,7.806,0.003,12.305-0.443
			C144.174,131.785,147.324,129.171,149.233,125.216z"/>
	</g>
</g>
</svg>
