<?xml version="1.0" encoding="utf-8"?>
<!-- Generator: Adobe Illustrator 17.0.0, SVG Export Plug-In . SVG Version: 6.00 Build 0)  -->
<svg version="1.2" baseProfile="tiny" id="Capa_1" xmlns="http://www.w3.org/2000/svg" xmlns:xlink="http://www.w3.org/1999/xlink"
	 x="0px" y="0px" width="211px" height="228.77px" viewBox="0 0 211 228.77" xml:space="preserve">
<g>
	<g>
		<g>
			<path fill="#FFFFFF" d="M62.423,118.041c7.832,14.427,22.763,15.074,36.01,8.322c1.052-2.487,1.244-4.545,1.434-6.887
				c-2.63-2.2-4.257-3.825-6.885-6.026c-9.709-0.588-19.416-0.607-29.125-0.43C63.378,114.693,62.901,116.367,62.423,118.041z"/>
			<path d="M59.59,111.593c11.135,0.363,22.271,0.724,33.406,1.087c3.427,2.275,6.441,4.966,8.42,8.691
				c-2.897-2.625-5.794-4.709-9.506-5.976c-8.51-1.024-17.02-1.507-25.531-1.086c-1.358,1.721-2.17,3.713-2.715,6.247
				C61.819,118.33,59.988,115.268,59.59,111.593z"/>
			<path d="M65.966,123.288c11.84,8.364,19.663,8.034,33.006,2.701C88.982,132.727,76.956,135.234,65.966,123.288z"/>
		</g>
		<path fill="#FFFFFF" d="M156.487,118.041c-7.832,14.427-22.763,15.074-36.01,8.322c-1.052-2.487-1.244-4.545-1.434-6.887
			c2.63-2.2,4.256-3.825,6.885-6.026c9.709-0.588,19.416-0.607,29.125-0.43C155.532,114.693,156.009,116.367,156.487,118.041z"/>
		<path d="M159.32,111.593c-11.135,0.363-22.271,0.724-33.407,1.087c-3.427,2.275-6.44,4.966-8.42,8.691
			c2.897-2.625,5.794-4.709,9.506-5.976c8.51-1.024,17.02-1.507,25.531-1.086c1.358,1.721,2.171,3.713,2.715,6.247
			C157.091,118.33,158.922,115.268,159.32,111.593z"/>
		<path d="M152.944,123.288c-11.84,8.364-19.663,8.034-33.006,2.701C129.928,132.727,141.954,135.234,152.944,123.288z"/>
	</g>
	<g>
		<path fill="none" d="M90.855,117.942c-0.91,3.826-4.352,6.689-8.451,6.689c-4.18,0-7.685-2.975-8.508-6.916
			c-3.606,0.399-7.115,1.072-10.491,1.99c8.051,12.794,22.314,13.138,35.028,6.658c1.002-2.368,1.223-4.35,1.406-6.556
			C96.838,118.97,93.837,118.354,90.855,117.942z"/>
		<path fill="#EAEEEE" d="M73.711,115.939c0-1.056,0.199-2.064,0.547-3.002c-3.467-0.004-6.933,0.019-10.4,0.082
			c-0.479,1.673-0.956,3.348-1.435,5.022c0.315,0.58,0.645,1.129,0.982,1.664c3.376-0.917,6.885-1.591,10.491-1.99
			C73.776,117.141,73.711,116.547,73.711,115.939z"/>
		<path fill="#EAEEEE" d="M90.855,117.942c2.983,0.412,5.984,1.028,8.985,1.864c0.009-0.111,0.019-0.219,0.028-0.331
			c-2.63-2.201-4.257-3.825-6.885-6.026c-0.761-0.046-1.521-0.067-2.282-0.107c0.258,0.82,0.398,1.692,0.398,2.596
			C91.098,116.629,91.008,117.298,90.855,117.942z"/>
		<path imag="0" d="M73.896,117.715c0.824,3.941,4.329,6.916,8.508,6.916c4.098,0,7.541-2.863,8.451-6.689
			c0.153-0.645,0.243-1.313,0.243-2.004c0-0.904-0.14-1.775-0.398-2.596c-0.078-0.004-0.157-0.007-0.235-0.011
			c0.052,0.273,0.085,0.553,0.085,0.842c0,2.468-2.013,4.481-4.481,4.481s-4.48-2.013-4.48-4.481c0-0.401,0.07-0.782,0.169-1.152
			c-2.5-0.053-5-0.082-7.501-0.085c-0.347,0.938-0.547,1.946-0.547,3.002C73.711,116.547,73.776,117.141,73.896,117.715z"/>
		<path fill="#FFFFFF" d="M86.069,118.654c2.468,0,4.481-2.013,4.481-4.481c0-0.288-0.033-0.568-0.085-0.842
			c-2.902-0.147-5.804-0.249-8.707-0.31c-0.099,0.37-0.169,0.751-0.169,1.152C81.589,116.641,83.601,118.654,86.069,118.654z"/>
	</g>
	<g>
		<path fill="none" d="M145.015,117.715c-0.824,3.941-4.329,6.916-8.509,6.916c-4.098,0-7.54-2.863-8.45-6.689
			c-2.983,0.412-5.984,1.028-8.986,1.864c0.183,2.206,0.405,4.189,1.407,6.556c12.715,6.481,26.977,6.137,35.028-6.658
			C152.13,118.788,148.621,118.114,145.015,117.715z"/>
		<path fill="#EAEEEE" d="M127.813,115.939c0-0.904,0.14-1.776,0.398-2.596c-0.761,0.039-1.522,0.061-2.283,0.107
			c-2.629,2.2-4.256,3.825-6.885,6.026c0.009,0.112,0.019,0.22,0.028,0.331c3.002-0.836,6.003-1.452,8.986-1.864
			C127.903,117.298,127.813,116.629,127.813,115.939z"/>
		<path fill="#EAEEEE" d="M145.015,117.715c3.606,0.399,7.115,1.072,10.49,1.99c0.337-0.535,0.667-1.085,0.982-1.664
			c-0.478-1.673-0.955-3.348-1.435-5.022c-3.467-0.063-6.933-0.086-10.4-0.082c0.347,0.938,0.547,1.946,0.547,3.002
			C145.199,116.547,145.135,117.141,145.015,117.715z"/>
		<path imag="0" d="M128.056,117.942c0.91,3.826,4.352,6.689,8.45,6.689c4.18,0,7.685-2.975,8.509-6.916c0.12-0.574,0.184-1.168,0.184-1.777
			c0-1.056-0.199-2.064-0.547-3.002c-0.065,0-0.131,0-0.196,0.001c0.115,0.395,0.196,0.804,0.196,1.236
			c0,2.468-2.013,4.481-4.481,4.481s-4.48-2.013-4.48-4.481c0-0.39,0.066-0.762,0.16-1.123c-2.547,0.064-5.094,0.161-7.641,0.292
			c-0.258,0.82-0.398,1.692-0.398,2.596C127.813,116.629,127.903,117.298,128.056,117.942z"/>
		<path fill="#FFFFFF" d="M140.171,118.654c2.468,0,4.481-2.013,4.481-4.481c0-0.431-0.081-0.841-0.196-1.236
			c-2.868,0.004-5.736,0.041-8.605,0.113c-0.094,0.361-0.16,0.733-0.16,1.123C135.691,116.641,137.703,118.654,140.171,118.654z"/>
	</g>
</g>
</svg>
