<?xml version="1.0" encoding="utf-8"?>
<!-- Generator: Adobe Illustrator 17.0.0, SVG Export Plug-In . SVG Version: 6.00 Build 0)  -->
<svg version="1.2" baseProfile="tiny" id="Capa_1" xmlns="http://www.w3.org/2000/svg" xmlns:xlink="http://www.w3.org/1999/xlink"
	 x="0px" y="0px" width="211px" height="228.77px" viewBox="0 0 211 228.77" xml:space="preserve">
<g>
	<path fill="#041723" d="M166.927,118.536c0,0-5.991,21.01-9.158,24.45c-4.445,4.828-17.494,8.962-18.931,8.002
		c-8.03-5.361-16.189-12.13-25.582-6.055c-2.205,1.428-3.125,3.446-3.125,3.446c-0.551-1.202-2.941-3.395-2.941-3.395
		c-12.131-7.742-31.576,7.139-31.576,7.139c-6.065-1.758-15.99-10.726-18.195-12.518c-2.205-1.793-5.514-21.073-5.514-21.073
		s-8.822,39.898,7.718,52.43c16.543,12.532,38.045,28.04,56.24,23.665c18.197-4.377,45.764-15.47,47.97-28.16
		C166.039,153.776,171.335,125.74,166.927,118.536L166.927,118.536z M121.527,165.582c-8.63-2.533-12.132-2.715-17.646-0.658
		c-5.514,2.057-15.07,2.54-18.379-10.304c0,0,23.159-10.453,49.626-0.417C135.128,154.204,132.186,168.709,121.527,165.582z"/>
</g>
</svg>
