<?xml version="1.0" encoding="utf-8"?>
<!-- Generator: Adobe Illustrator 17.0.0, SVG Export Plug-In . SVG Version: 6.00 Build 0)  -->
<svg version="1.2" baseProfile="tiny" id="Capa_1" xmlns="http://www.w3.org/2000/svg" xmlns:xlink="http://www.w3.org/1999/xlink"
	 x="0px" y="0px" width="211px" height="228.77px" viewBox="0 0 211 228.77" xml:space="preserve">
<g>
	<path fill-rule="evenodd" fill="#231F20" imag="0" d="M111.594,155.031c8.682-1.447,11.358,3.259,20.248,7.703
		c8.888,4.445,15.21-8.395,15.21-8.395c-2.765,5.235-6.914,4.544-10.963,2.667c-4.05-1.876-18.47-13.481-19.754-13.531
		c-1.283-0.049-5.432,3.877-5.432,3.877l-0.74,0.47l-0.642-0.445c0,0-4.149-3.95-5.432-3.95c-1.285,0-15.705,11.654-19.754,13.53
		c-4.05,1.876-8.198,2.568-10.964-2.666c0,0,6.322,12.839,15.21,8.395c8.889-4.444,11.556-9.086,20.247-7.703
		c0,0,0.79,0.148,1.481,0.839C110.31,155.821,111.002,155.13,111.594,155.031z"/>
	<path fill-rule="evenodd" fill="#231F20" imag="0"  d="M100.829,169.006c0,0,11.655,3.556,19.556-0.099c0,0,2.321,7.112-9.531,19.161
		C110.854,188.068,97.964,177.599,100.829,169.006z"/>
</g>
</svg>
