<?xml version="1.0" encoding="utf-8"?>
<!-- Generator: Adobe Illustrator 17.0.0, SVG Export Plug-In . SVG Version: 6.00 Build 0)  -->
<svg version="1.2" baseProfile="tiny" id="Capa_1" xmlns="http://www.w3.org/2000/svg" xmlns:xlink="http://www.w3.org/1999/xlink"
	 x="0px" y="0px" width="211px" height="228.77px" viewBox="0 0 211 228.77" xml:space="preserve">
<g>
	<path fill="#231F20" imag="0" d="M43.5,118.616c0-2.694,8.346-0.127,8.346-0.127s0.858,42.653,18.838,44.94
		c3.779,0.481-2.674-10.791,0.109-15.061c1.498-2.297,2.891-3.557,6.1-4.179c3.214-0.622,22.481-0.946,25.048,0.808
		c2.57,1.755,2.14,3.021,0,4.281c-2.142,1.26-14.987-0.531-18.409,1.041c-1.87,0.859-4.069,1.887-4.925,4.104
		c-0.855,2.216,0.641,19.188-0.215,22.196c-0.869,3.053-0.855,6.973-6.208,7.905C66.833,185.454,43.5,171.576,43.5,118.616z"/>
	<path fill="#231F20" imag="0"  d="M170.5,119.014c0-2.694-8.347-0.189-8.347-0.189s-0.856,42.648-18.84,44.797
		c-3.777,0.453,2.677-10.769-0.106-15.062c-1.498-2.31-2.891-3.578-6.102-4.224c-3.21-0.645-22.476-1.115-25.046,0.621
		c-2.569,1.733-2.141,3.004,0,4.28c2.142,1.276,14.985-0.42,18.41,1.179c1.871,0.872,4.069,1.917,4.925,4.14
		c0.855,2.224-0.642,19.182,0.213,22.197c0.869,3.06,0.856,6.979,6.208,7.952C147.167,185.675,170.5,171.973,170.5,119.014z"/>
</g>
</svg>
