<?xml version="1.0" encoding="utf-8"?>
<!-- Generator: Adobe Illustrator 17.0.0, SVG Export Plug-In . SVG Version: 6.00 Build 0)  -->
<svg version="1.2" baseProfile="tiny" id="Capa_1" xmlns="http://www.w3.org/2000/svg" xmlns:xlink="http://www.w3.org/1999/xlink"
	 x="0px" y="0px" width="211px" height="228.77px" viewBox="0 0 211 228.77" xml:space="preserve">
<g>
	<path fill-rule="evenodd" fill="#041723" d="M53.656,120.882c0.371,6.699,3.407,13.94,5.778,21.002
		c0.297-1.328,0.593-2.656,0.89-3.983c1.461,6.616,4.173,12.091,8.004,17.744c0.074-1.448-0.074-2.173,0-3.622
		c3.394,6.631,8.461,10.932,16.007,11.77c-3.744,6.82-1.223,12.155,5.336,14.275c0.298-1.026,0.148-1.509,0.444-2.535
		c1.476,2.002,3.268,3.49,5.336,4.527c-0.297-1.207-0.593-2.414-0.89-3.622c7.592,5.033,12.199,3.277,15.118-3.935
		c2.919,7.212,7.526,8.968,15.118,3.935c-0.297,1.207-0.593,2.415-0.89,3.622c2.068-1.037,3.86-2.524,5.336-4.527
		c0.297,1.026,0.147,1.509,0.444,2.535c5.931-2.188,9.08-7.456,5.336-14.275c7.546-0.838,12.612-5.139,16.007-11.77
		c0.074,1.448-0.074,2.173,0,3.622c3.83-5.653,6.543-11.128,8.004-17.744c0.297,1.327,0.593,2.655,0.89,3.983
		c2.371-7.062,5.407-14.303,5.778-21.002c0.816,0,3.41-0.182,4.225-0.182c-2.097,7.22-1.022,18.502,2.956,21.35
		c-0.376,4.3-2.285,12.075-5.556,19.374c-0.667-0.905-1.335-1.811-2.003-2.716c-0.222,6.578-5.833,9.536-8.502,14.847
		c-0.148-1.147,0.202-2.293,0.054-3.44c-3.187,5.974-10.153,7.242-13.561,14.122c-0.297-1.206-0.592-2.415-0.889-3.621
		c-1.343,4.369-9.467,10.988-13.184,13.91c-0.075-1.087-0.148-2.173-0.223-3.26c-1.132,3.347-3.648,4.442-6.002,5.794
		c0.073-0.725,0.148-1.448,0.222-2.173c-1.459,0.76-3.284,0.929-5.335,2.898c-0.149-0.724-0.297-1.448-0.445-2.172
		c-1.333,1.448-2.668,2.897-4.002,4.345c-0.148-0.844-0.297-1.69-0.445-2.535c-1.056,1.546-2.251,3.031-3.335,4.568
		c-1.083-1.536-2.279-3.021-3.334-4.568c-0.149,0.844-0.297,1.691-0.445,2.535c-1.334-1.448-2.668-2.897-4.002-4.345
		c-0.149,0.724-0.297,1.448-0.445,2.172c-2.052-1.968-3.877-2.137-5.335-2.898c0.074,0.725,0.149,1.448,0.222,2.173
		c-2.355-1.352-4.87-2.448-6.002-5.794c-0.075,1.086-0.148,2.172-0.223,3.26c-3.717-2.922-13.683-9.888-15.026-14.257
		c-0.297,1.206-0.592,2.415-0.889,3.621c-3.408-6.881-10.375-8.148-13.562-14.122c-0.148,1.147-0.296,2.292-0.444,3.44
		c-2.668-5.311-7.781-8.269-8.004-14.847c-0.667,0.905-1.335,1.811-2.002,2.717c-3.271-7.299-5.179-15.075-5.557-19.374
		c3.977-2.848,6.895-13.782,4.799-21.003C50.246,120.7,52.841,120.882,53.656,120.882z"/>
	<path fill-rule="evenodd" fill="#6B5C72" d="M69.33,158.689c2.815,2.689,5.805,5.201,9.88,6.609c-0.412,2.363-0.224,4.727,0,7.088
		c-0.602-2.479-1.235-4.932-2.47-6.896c-0.113,1.023-0.552,1.914-1.294,2.682C74.006,164.525,71.716,161.565,69.33,158.689z"/>
	<path fill-rule="evenodd" fill="#6B5C72" d="M150.129,158.689c-2.815,2.689-5.806,5.201-9.88,6.609
		c0.411,2.363,0.223,4.727,0,7.088c0.601-2.479,1.234-4.932,2.469-6.896c0.114,1.023,0.553,1.914,1.294,2.682
		C145.453,164.525,147.742,161.565,150.129,158.689z"/>
	<path fill-rule="evenodd" fill="#6B5C72" d="M109.789,176.915c0,4.722,0,9.446,0,14.167c0.528-3.227,0.829-6.764,3.293-7.399
		C111.448,181.903,110.479,179.531,109.789,176.915z"/>
	<path fill-rule="evenodd" fill="#6B5C72" d="M113.67,189.35c0.912-1.803,2.104-3.498,3.646-4.878
		c-0.98,0.21-1.959,0.105-2.705-0.316C114.297,185.888,113.983,187.618,113.67,189.35z"/>
	<path fill-rule="evenodd" fill="#6B5C72" d="M106.025,189.35c-0.912-1.803-2.105-3.498-3.647-4.878
		c0.981,0.21,1.96,0.105,2.705-0.316C105.397,185.888,105.711,187.618,106.025,189.35z"/>
	<path fill-rule="evenodd" fill="#6B5C72" d="M121.903,183.369c-1.176,0.525-2.353,1.049-3.528,1.574
		c-0.117,0.84-0.236,1.679-0.353,2.518C119.147,185.872,120.463,184.539,121.903,183.369z"/>
	<path fill-rule="evenodd" fill="#6B5C72" d="M97.792,183.369c1.176,0.525,2.352,1.049,3.528,1.574
		c0.117,0.84,0.236,1.679,0.353,2.518C100.547,185.872,99.231,184.539,97.792,183.369z"/>
	<path fill-rule="evenodd" fill="#6B5C72" d="M128.019,181.165c-1.606,1.559-3.568,3.634-5.176,3.776
		c-0.588,1.313-0.823,1.995-1.411,3.307C123.944,186.702,126.133,184.386,128.019,181.165z"/>
	<path fill-rule="evenodd" fill="#6B5C72" d="M91.676,181.165c1.606,1.559,3.568,3.634,5.175,3.776
		c0.588,1.313,0.824,1.995,1.411,3.307C95.75,186.702,93.561,184.386,91.676,181.165z"/>
</g>
</svg>
