<?xml version="1.0" encoding="utf-8"?>
<!-- Generator: Adobe Illustrator 17.0.0, SVG Export Plug-In . SVG Version: 6.00 Build 0)  -->
<svg version="1.2" baseProfile="tiny" id="Capa_1" xmlns="http://www.w3.org/2000/svg" xmlns:xlink="http://www.w3.org/1999/xlink"
	 x="0px" y="0px" width="211px" height="228.77px" viewBox="0 0 211 228.77" xml:space="preserve">
<g>
	<path fill-rule="evenodd" fill="#231F20" d="M50.928,126.137c-7.587,17.537-2.719,38.007,8.268,52.414
		c0.114-1.627,0.433-3.253,0.953-4.591c4.005,7.289,11.608,13.503,19.787,19.008c-1.417-2.228-2.969-4.167-3.845-6.396
		c6.799,6.045,16.109,11.411,26.242,16.267c-1.891-1.845-3.65-3.785-5.002-6.017c3.756,3.048,8.631,5.156,12.14,8.419
		c3.394-3.226,8.413-5.395,12.139-8.419c-1.35,2.232-3.111,4.171-5.001,6.017c10.133-4.856,19.443-10.222,26.241-16.267
		c-0.877,2.228-2.428,4.167-3.845,6.396c8.179-5.505,15.781-11.719,19.787-19.008c0.52,1.338,0.839,2.964,0.953,4.591
		c11.998-14.407,15.179-36.226,9.278-52.414c-2.691,14.41-8.97,29.912-23.032,34.094c-3.104,0.922-5.958-1.135-8.441-3.119
		c-0.369,4.383-0.634,8.163-2.595,12.48c-0.833,1.833-3.411,4.46-6.359,5.348c-4.428,1.332-8.03,1.563-12.614,2.005
		c-2.88-1.42-4.901-3.056-6.512-5.277c-1.667,2.248-3.579,3.829-6.512,5.277c-4.586-0.443-8.188-0.674-12.615-2.005
		c-2.948-0.888-5.526-3.515-6.359-5.348c-1.962-4.317-2.226-8.097-2.595-12.48c-2.482,1.985-5.337,4.042-8.44,3.119
		C58.887,156.05,53.28,138.187,50.928,126.137z"/>
	<path fill-rule="evenodd" fill="#6B5C72" d="M74.35,173.421c2.886-3.613,4.374-7.659,5.231-11.901
		c-0.447,5.003-1.293,10.034,0.19,14.501c0.787,2.369,4.085,4.358,7.513,5.832c-1.855-1.74-3.504-3.411-4.946-5.281
		c5.69,2.443,11.865,5.169,18.832,5.752c3.315,0.278,6.016-2.323,8.273-4.964c0,8.644,0,17.286,0,25.929
		c-2.148-6.599-4.947-13.292-8.371-18.837c0.083,1.812,0.521,3.548,0.098,5.361c-9.778-5.933-21.8-7.598-23.206-12.532
		c-0.899-2.021-1.007-4.153-0.381-6.384C76.898,171.846,75.794,172.68,74.35,173.421z"/>
	<polygon fill-rule="evenodd" fill="#6B5C72" points="111.381,177.289 111.381,194.774 115.777,180.222 	"/>
	<path fill-rule="evenodd" fill="#6B5C72" d="M116.004,181.512c5.218,0.387,11.075,0.061,15.026-2.978
		c0.271,1.306,0.111,2.612-0.38,3.919c3.314-3.164,5.567-6.502,7.609-9.876c-2.534,7.195-8.384,18.393-19.116,12.933
		c1.522-0.131,2.663-0.575,3.708-1.098C119.505,184.431,117.322,183.372,116.004,181.512z"/>
	<path fill-rule="evenodd" fill="#6B5C72" d="M137.51,180.772c2.811-5.972,3.527-12.424,3.402-19.069
		c0.746,4.067,2.214,7.967,1.801,12.742C142.49,177.028,139.917,178.947,137.51,180.772z"/>
</g>
</svg>
