<?xml version="1.0" encoding="utf-8"?>
<!-- Generator: Adobe Illustrator 17.0.0, SVG Export Plug-In . SVG Version: 6.00 Build 0)  -->
<svg version="1.2" baseProfile="tiny" id="Capa_1" xmlns="http://www.w3.org/2000/svg" xmlns:xlink="http://www.w3.org/1999/xlink"
	 x="0px" y="0px" width="211px" height="228.77px" viewBox="0 0 211 228.77" xml:space="preserve">
<g>
	<path fill-rule="evenodd" fill="#041723" d="M83.588,166.252c1.868,6.358,4.169,11.215,8.759,15.023
		c-0.426-1.362-0.729-2.446-0.814-3.716c1.28,2.714,3.507,4.545,5.697,6.277c-0.25-1.454-0.5-2.724-0.75-4.177
		c6,7.561,11.491,1.816,12.398-6.078c0.907,7.893,6.398,13.639,12.397,6.078c-0.25,1.453-0.5,2.723-0.75,4.177
		c2.191-1.733,4.418-3.564,5.697-6.277c-0.085,1.27-0.387,2.354-0.814,3.716c4.59-3.808,6.891-8.664,8.759-15.023
		c-0.736,7.345-2.495,14.199-6.147,20.192c-2.648,1.271-5.296,2.76-7.945,4.522c-0.05-0.753-0.101-1.507-0.15-2.261
		c-1.499,0.969-3.098,2.277-4.369,3.738c-0.056-1.144-0.111-1.737-0.196-2.422c-1.269,1.247-2.541,2.678-3.555,4.661
		c-0.1-0.861-0.542-1.445-0.641-2.306c-1.004,1.916-1.752,3.609-2.288,5.742c-0.536-2.133-1.284-3.826-2.288-5.742
		c-0.1,0.862-0.542,1.445-0.641,2.306c-1.013-1.983-2.286-3.415-3.555-4.661c-0.085,0.686-0.139,1.278-0.196,2.422
		c-1.271-1.461-2.869-2.769-4.368-3.738c-0.05,0.754-0.101,1.508-0.15,2.261c-2.649-1.762-5.296-3.251-7.945-4.522
		C86.082,180.451,84.324,173.598,83.588,166.252z"/>
	<path fill-rule="evenodd" fill="#6B5C72" d="M108.667,178.612c0,3.837,0,7.676,0,11.514c0.472-2.624,0.743-5.498,2.948-6.013
		C110.152,182.665,109.286,180.738,108.667,178.612z"/>
	<path fill-rule="evenodd" fill="#6B5C72" d="M112.141,188.719c0.817-1.466,1.884-2.843,3.264-3.965
		c-0.877,0.171-1.754,0.085-2.421-0.257C112.702,185.904,112.422,187.311,112.141,188.719z"/>
	<path fill-rule="evenodd" fill="#6B5C72" d="M105.298,188.719c-0.816-1.466-1.884-2.843-3.263-3.965
		c0.877,0.171,1.754,0.085,2.421-0.257C104.737,185.904,105.018,187.311,105.298,188.719z"/>
	<path fill-rule="evenodd" fill="#6B5C72" d="M119.509,183.857c-1.052,0.426-2.105,0.853-3.158,1.279
		c-0.104,0.683-0.211,1.365-0.315,2.047C117.043,185.892,118.221,184.807,119.509,183.857z"/>
	<path fill-rule="evenodd" fill="#6B5C72" d="M97.931,183.857c1.052,0.426,2.105,0.853,3.157,1.279
		c0.106,0.683,0.211,1.365,0.316,2.047C100.396,185.892,99.218,184.807,97.931,183.857z"/>
	<path fill-rule="evenodd" fill="#6B5C72" d="M124.983,182.066c-1.438,1.267-3.194,2.954-4.633,3.069
		c-0.526,1.066-0.737,1.621-1.263,2.688C121.337,186.566,123.296,184.684,124.983,182.066z"/>
	<path fill-rule="evenodd" fill="#6B5C72" d="M92.457,182.066c1.438,1.267,3.193,2.954,4.631,3.069
		c0.526,1.066,0.737,1.621,1.263,2.688C96.103,186.566,94.143,184.684,92.457,182.066z"/>
</g>
</svg>
