<?xml version="1.0" encoding="utf-8"?>
<!-- Generator: Adobe Illustrator 17.0.0, SVG Export Plug-In . SVG Version: 6.00 Build 0)  -->
<svg version="1.2" baseProfile="tiny" id="Capa_1" xmlns="http://www.w3.org/2000/svg" xmlns:xlink="http://www.w3.org/1999/xlink"
	 x="0px" y="0px" width="211px" height="228.77px" viewBox="0 0 211 228.77" xml:space="preserve">
<g>
	<path fill-rule="evenodd" fill="#041723" imag="0" d="M138.726,159.808c-0.682-0.908-4.996-6.13-6.813-13.623c0,0-19.526-4.087-22.25,0.227
		c0,0,1.589-4.995-25.884-0.68c0,0-1.135,3.859-4.767,9.082c-3.634,5.221-9.304,19.719,1.932,27.341
		c20.392,13.835,34.396,17.386,55.404,0C136.348,182.156,147.013,170.859,138.726,159.808L138.726,159.808z M122.725,165.504
		c-4.995-2.02-10.898-13.121-20.436-4.037c-9.537,9.083-12.818,4.655-17.256,1.009c-2.835-2.328,1.017-8.344,1.017-8.344
		c30.198-7.493,46.773,0.683,46.773,0.683C138.272,171.387,122.725,165.504,122.725,165.504z"/>
</g>
</svg>
