<?xml version="1.0" encoding="utf-8"?>
<!-- Generator: Adobe Illustrator 17.0.0, SVG Export Plug-In . SVG Version: 6.00 Build 0)  -->
<svg version="1.2" baseProfile="tiny" id="Capa_1" xmlns="http://www.w3.org/2000/svg" xmlns:xlink="http://www.w3.org/1999/xlink"
	 x="0px" y="0px" width="211px" height="228.77px" viewBox="0 0 211 228.77" xml:space="preserve">
<g>
	<path fill-rule="evenodd" fill="#041723" imag="0" d="M108.958,150.733c-0.724,0.331-3.737,1.575-3.737,1.575
		c-21.506,9.108-23.024-4.554-23.024-4.554c6.325,7.59,17.457-0.507,20.493-1.518c3.038-1.012,6.832,0,6.832,0
		c0.259,0.15,0.271,0.315,0.271,0.315c-0.009-0.204,0.236-0.315,0.236-0.315c0,0,3.794-1.012,6.831,0
		c3.037,1.012,14.168,9.108,20.494,1.518c0,0-1.517,13.662-23.024,4.554c0,0-1.409-0.606-3.348-1.534
		C110.982,150.774,109.97,150.269,108.958,150.733z"/>
	<path fill-rule="evenodd" fill="#041723" imag="0"  d="M109.422,158.872c0,0-20.664,1.602-19.483,16.11
		c1.181,14.506,10.036,26.568,19.146,26.568c9.108,0,19.314-14.001,19.061-25.64C127.894,164.27,118.615,159.883,109.422,158.872z"
		/>
</g>
</svg>
