<?xml version="1.0" encoding="utf-8"?>
<!-- Generator: Adobe Illustrator 17.0.0, SVG Export Plug-In . SVG Version: 6.00 Build 0)  -->
<svg version="1.2" baseProfile="tiny" id="Capa_1" xmlns="http://www.w3.org/2000/svg" xmlns:xlink="http://www.w3.org/1999/xlink"
	 x="0px" y="0px" width="211px" height="228.77px" viewBox="0 0 211 228.77" xml:space="preserve">
<g>
	<path fill-rule="evenodd" fill="#041723" d="M96.449,159.595c1.633,1.754,3.309,3.468,5.49,4.676
		c1.151,2.237,2.304,4.472,3.456,6.71c0-1.152,0-2.305,0-3.456l3.087,6.239l3.216-6.239c0.204,1.016,0.407,2.032,0.61,3.049
		c1.084-2.372,2.168-4.743,3.252-7.116c1.968-1.287,3.456-2.575,4.88-3.863C111.882,164.08,103.921,163.785,96.449,159.595z"/>
	<path fill-rule="evenodd" fill="#041723" d="M105.469,143.909c-9.345-1.618-16.772,0.604-23.751,3.723
		c1.064,0.591,1.948,1.005,3.012,1.596c-8.103,3.149-8.762,8.894-8.329,14.888c0.989-4.658,3.49-8.049,12.053-9.394
		c-0.622,1.654-0.738,2.777-0.887,4.432c3.124-2.371,6.207-3.898,10.457-5.141c-0.946,1.713-1.535,2.895-2.482,4.609
		C101.804,156.249,105.826,151.956,105.469,143.909z"/>
	<path fill-rule="evenodd" fill="#041723" d="M111.95,143.909c9.345-1.618,16.772,0.604,23.751,3.723
		c-1.064,0.591-1.948,1.005-3.012,1.596c8.103,3.149,8.762,8.894,8.33,14.888c-0.989-4.658-3.491-8.049-12.053-9.394
		c0.621,1.654,0.738,2.777,0.887,4.432c-3.125-2.371-6.208-3.898-10.457-5.141c0.946,1.713,1.535,2.895,2.481,4.609
		C115.616,156.249,111.594,151.956,111.95,143.909z"/>
	<path fill-rule="evenodd" fill="#6B5C72" d="M80.3,154.899c5.843-3.163,12.056-5.463,19.32-5.318
		c-1.3-0.946-2.66-1.656-4.429-2.127c2.893-0.97,5.254-1.279,8.151-1.771c-5.041-1.174-9.721-0.724-15.066,1.594
		c1.299,0.355,2.895,0.884,3.723,1.241C85.807,149.714,81.76,152.286,80.3,154.899z"/>
	<path fill-rule="evenodd" fill="#6B5C72" d="M137.12,154.899c-5.842-3.163-12.055-5.463-19.32-5.318
		c1.299-0.946,2.659-1.656,4.429-2.127c-2.894-0.97-5.255-1.279-8.151-1.771c5.041-1.174,9.721-0.724,15.066,1.594
		c-1.298,0.355-2.896,0.884-3.723,1.241C131.614,149.714,135.659,152.286,137.12,154.899z"/>
</g>
</svg>
