<?xml version="1.0" encoding="utf-8"?>
<!-- Generator: Adobe Illustrator 17.0.0, SVG Export Plug-In . SVG Version: 6.00 Build 0)  -->
<svg version="1.2" baseProfile="tiny" id="Capa_1" xmlns="http://www.w3.org/2000/svg" xmlns:xlink="http://www.w3.org/1999/xlink"
	 x="0px" y="0px" width="211px" height="228.77px" viewBox="0 0 211 228.77" xml:space="preserve">
<g>
	<path fill-rule="evenodd" fill="#041723" imag="0" d="M84.646,152.799c0,0-2.27,17.403,0.756,21.943c0,0,6.053-12.485,7.567-22.321
		c0,0,7.521,0.889,16.646-1.892c0,0,9.08,1.892,17.026,1.892c0,0,2.761,18.705,6.923,23.244c0,0,2.586-5.912,1.401-22.11
		c0,0-1.136-8.323-7.567-9.08c-6.433-0.756-15.082-0.773-17.484,1.998c0-0.001-1.293-3.326-16.566-3.511
		C86.16,142.875,84.646,152.799,84.646,152.799z"/>
</g>
<path fill-rule="evenodd" fill="#041723" imag="0"  d="M-306.863,300.412c0,0-0.856,6.561,0.285,8.273c0,0,2.282-4.707,2.853-8.415
	c0,0,2.836,0.335,6.276-0.713c0,0,3.423,0.713,6.419,0.713c0,0,1.041,7.052,2.61,8.763c0,0,0.975-2.229,0.528-8.336
	c0,0-0.428-3.138-2.853-3.423c-2.425-0.285-5.686-0.292-6.591,0.753c0,0-0.488-1.254-6.246-1.324
	C-306.292,296.671-306.863,300.412-306.863,300.412z"/>
</svg>
