<?xml version="1.0" encoding="utf-8"?>
<!-- Generator: Adobe Illustrator 17.0.0, SVG Export Plug-In . SVG Version: 6.00 Build 0)  -->
<svg version="1.2" baseProfile="tiny" id="Capa_1" xmlns="http://www.w3.org/2000/svg" xmlns:xlink="http://www.w3.org/1999/xlink"
	 x="0px" y="0px" width="211px" height="228.77px" viewBox="0 0 211 228.77" xml:space="preserve">
<g>
	<path fill="#FCCCA1" imag="0" d="M108.919,128.448c3.358-2.251,6.177-0.837,7.573,2.997c3.901,0.725,6.279,3.21,5.557,8.118
		c-0.807,5.484-6.141,5.439-9.316,2.07c-2.325,1.98-7.755,5.92-11.932,4.195c-9.29-4.823-9.437-18.204-2.569-20.616
		C102.395,123.751,102.924,129.011,108.919,128.448z"/>
	<g>
		<path fill="none" imag="1"   d="M93.718,132.207c1.168,5.794,4.309,10.412,10.025,9.48c2.681-0.437,4.888-3.261,7.791-3.65
			c2.796-0.375,4.483,1.683,7.3,0.709c2.38-0.825,1.943-5.104-1.144-6.811c-3.374-1.401-5.671-0.109-7.736,2.125
			c0.13-3.376,2.691-4.75,5.602-4.516c-1.543-2.335-3.913-2.922-6.638-1.096c-5.995,0.562-6.524-4.697-10.686-3.236
			c-2.903,1.019-4.547,4-4.783,7.465C93.537,132.52,93.622,132.362,93.718,132.207z"/>
		<path fill="#F9B797" imag="0"   d="M109.954,134.06c2.065-2.234,4.362-3.526,7.736-2.125c3.088,1.707,3.525,5.986,1.144,6.811
			c-2.817,0.975-4.505-1.083-7.3-0.709c-2.903,0.389-5.111,3.214-7.791,3.65c-5.716,0.932-8.857-3.686-10.025-9.48
			c-0.096,0.155-0.181,0.312-0.268,0.469c-0.322,4.732,1.988,10.367,7.351,13.151c4.177,1.725,9.607-2.215,11.932-4.195
			c3.176,3.369,8.509,3.414,9.316-2.07c0.721-4.907-1.656-7.392-5.557-8.118c-0.263-0.723-0.577-1.359-0.935-1.901
			C112.646,129.31,110.084,130.684,109.954,134.06z"/>
	</g>
	<path fill="#AA5B2A"   d="M109.137,128.448c-2.679-0.016-4.73-1.447-6.647-3.107c-6.809-5.891-11.368,4.823-10.823,10.162
		c0.299,2.936,1.704,5.876,4.15,8.613c4.443,4.973,11.439,4.481,17.25-1.205c3.903,4.442,9.135,2.12,10.13-2.98
		c1.52-7.788-9.203-12.911-13.081-6.036c5.767-3.752,11.134-1.032,11.135,3.814c0.002,5.975-3.883,7.061-7.575,4.075
		c-1.774-1.435-3.178-2.088-5.522,0.119c1.221-0.377,2.271-0.861,3.534-0.132c-4.907,4.13-9.298,4.509-12.959,1.114
		c-1.532-1.42-2.875-3.246-3.578-5.492c-1.552-4.961-0.154-11.089,3.807-11.661C102.604,125.206,104.639,131.11,109.137,128.448z"/>
</g>
</svg>
