<?xml version="1.0" encoding="utf-8"?>
<!-- Generator: Adobe Illustrator 17.0.0, SVG Export Plug-In . SVG Version: 6.00 Build 0)  -->
<svg version="1.2" baseProfile="tiny" id="Capa_1" xmlns="http://www.w3.org/2000/svg" xmlns:xlink="http://www.w3.org/1999/xlink"
	 x="0px" y="0px" width="211px" height="228.77px" viewBox="0 0 211 228.77" xml:space="preserve">
<g>
	<path fill-rule="evenodd" fill="#FCCCA1" imag="1"  d="M102.662,111.287c0.485-1.1,0.951-1.752,1.734-1.957
		c3.025-1.048,6.893,13.209,6.822,21.139c4.156-1.777,7.829,1.254,6.43,7.437c-1.321,3.881-5.721,4.609-7.94,2.517
		c-0.243,1.771-3.65,4.402-6.432,3.915c-5.623-0.984-9.642-3.846-9.562-9.507c0.076-5.355,3.612-8.936,9.339-6.151
		C105.161,122.444,105.328,116.478,102.662,111.287z"/>
	<g>
		<path fill="none"  d="M100.426,138.41c2.49-0.014,3.657-2.505,6.083-2.814c2.857-0.364,4.956,1.913,8.121,1.192
			c1.409-0.32,2.409-2.019,2.119-5.302c-1.246-1.533-3.315-1.963-5.53-1.016c0.071-7.929-3.797-22.187-6.822-21.139
			c-0.783,0.205-1.25,0.857-1.734,1.957c2.666,5.191,2.499,11.157,0.392,17.392c-5.488-2.669-8.956,0.514-9.303,5.496
			C95.26,136.51,97.48,138.426,100.426,138.41z"/>
		<path fill="#F9B797" imag="0" d="M114.63,136.788c-3.165,0.721-5.264-1.556-8.121-1.192c-2.427,0.31-3.593,2.8-6.083,2.814
			c-2.946,0.016-5.166-1.9-6.674-4.235c-0.015,0.217-0.033,0.432-0.036,0.655c-0.079,5.661,3.94,8.523,9.562,9.507
			c2.782,0.487,6.189-2.144,6.432-3.915c2.219,2.092,6.619,1.364,7.94-2.517c0.653-2.888,0.192-5.077-0.9-6.421
			C117.039,134.769,116.038,136.467,114.63,136.788z"/>
	</g>
	<path fill-rule="evenodd" fill="#AA5B2A" d="M102.215,110.449c2.226,4.909,2.248,10.6,0.447,17.447
		c-5.214-2.908-8.973,0.85-9.574,5.878c-0.61,5.107,2.551,10.811,11.309,10.564c-6.949-1.407-10.657-6.179-9.644-10.843
		c1.397-6.425,6.069-5.629,10.929-2.97c-0.504-0.839-1.006-1.397-1.79-1.901C106.022,120.228,105.604,113.922,102.215,110.449z"/>
	<path fill-rule="evenodd" fill="#AA5B2A" d="M108.479,132.034c2.098-2.654,7.332-4.714,9.786,1.175
		c2.181,5.234-2.199,9.826-6.543,9.506c-1.782-0.131-2.637-2.648-3.523-2.628c-0.971,0.023-1.227,1.017-2.069,1.174
		c-1.493,0.278-2.248-0.739-1.286-2.348c0.716-1.198,1.982-1.535,3.523-1.174c1.532,0.359,2.242,2.717,3.412,3.02
		c3.146,0.814,6.222-3.045,5.201-7.047C115.797,129.085,111.474,130.278,108.479,132.034z"/>
</g>
</svg>
