<?xml version="1.0" encoding="utf-8"?>
<!-- Generator: Adobe Illustrator 17.0.0, SVG Export Plug-In . SVG Version: 6.00 Build 0)  -->
<svg version="1.2" baseProfile="tiny" id="Capa_1" xmlns="http://www.w3.org/2000/svg" xmlns:xlink="http://www.w3.org/1999/xlink"
	 x="0px" y="0px" width="211px" height="228.77px" viewBox="0 0 211 228.77" xml:space="preserve">
<g>
	<path fill-rule="evenodd" fill="#FCCCA1"  imag="1" d="M103.924,116.311c4.038-1.307,8.146,17.225,8.818,21.906
		c-4.099,6.952-11.352,6.834-16.905,1.989c-2.328-2.031-2.59-5.084-1.065-7.469C98.183,127.406,101.653,122.275,103.924,116.311z"/>
	<g>
		<path fill="none" d="M106.075,136.226c3.316-2.091,5.327-1.255,6.42,0.503c-1.128-6.221-4.878-21.613-8.571-20.418
			c-2.271,5.964-5.741,11.095-9.152,16.426c-0.025,0.039-0.04,0.081-0.064,0.12C98.026,141.311,102.936,138.205,106.075,136.226z"/>
		<path fill="#F9B797" imag="0" d="M106.075,136.226c-3.139,1.979-8.049,5.085-11.366-3.369c-1.443,2.366-1.161,5.351,1.128,7.349
			c5.554,4.845,12.806,4.964,16.905-1.989c-0.057-0.4-0.142-0.907-0.247-1.489C111.402,134.971,109.391,134.135,106.075,136.226z"/>
	</g>
	<path fill-rule="evenodd" fill="#AA5B2A" d="M103.877,115.347c-2.241,6.306-5.717,10.41-9.486,16.607
		c-3.318,5.457,0.134,10.035,5.212,11.723c6.458,2.146,11.999,0.077,13.271-6.091c-3.304,4.37-7.736,5.972-12.499,4.255
		c-4.111-1.483-6.964-5.182-4.113-9.608C100.508,125.642,104.46,119.64,103.877,115.347z"/>
</g>
</svg>
