<?xml version="1.0" encoding="utf-8"?>
<!-- Generator: Adobe Illustrator 17.0.0, SVG Export Plug-In . SVG Version: 6.00 Build 0)  -->
<svg version="1.2" baseProfile="tiny" id="Capa_1" xmlns="http://www.w3.org/2000/svg" xmlns:xlink="http://www.w3.org/1999/xlink"
	 x="0px" y="0px" width="211px" height="228.77px" viewBox="0 0 211 228.77" xml:space="preserve">
<g>
	<path fill-rule="evenodd" fill="#FCCCA1" imag="1" d="M103.968,115.387c3.305,0.715,4.823,10.825,7.421,19.279
		c3.105,0.356,5.552,3.529,3.813,6.7c-1.17,2.133-3.297,2.297-5.296,0.805c-3.424,0.589-6.554,0.751-9.726,0.311
		c-1.618-0.224-2.147-1.872-1.867-3.095C100.149,131.37,102.315,123.386,103.968,115.387z"/>
	<g>
		<path fill="none" d="M100.526,140.553c2.615,0.62,4.271-1.243,6.518-1.903c2.611-0.767,3.949,0.845,6.031-0.021
			c1.348-0.561,0.891-2.588-0.424-3.647c-0.402-0.154-0.823-0.266-1.261-0.316c-0.031-0.099-0.059-0.201-0.089-0.301
			c-1.097-0.179-2.425,0.307-3.753,2.078c0.274-1.882,1.429-3.162,3.414-3.22c-2.346-8.121-3.875-17.161-6.993-17.836
			c-1.524,7.373-3.474,14.734-5.208,22.12C98.703,138.954,99.448,140.297,100.526,140.553z"/>
		<path fill="#F9B797" imag="0" d="M107.548,136.443c1.327-1.771,2.656-2.257,3.753-2.078c-0.115-0.378-0.228-0.759-0.339-1.142
			C108.977,133.282,107.822,134.561,107.548,136.443z"/>
		<path fill="#F9B797" imag="0" d="M113.075,138.629c-2.082,0.866-3.42-0.746-6.031,0.021c-2.247,0.66-3.903,2.523-6.518,1.903
			c-1.079-0.256-1.823-1.598-1.766-3.046c-0.147,0.627-0.303,1.254-0.446,1.881c-0.28,1.224,0.249,2.871,1.867,3.095
			c3.172,0.439,6.302,0.277,9.726-0.311c1.999,1.492,4.126,1.328,5.296-0.805c1.494-2.725-0.104-5.445-2.552-6.385
			C113.966,136.041,114.423,138.068,113.075,138.629z"/>
	</g>
	<path fill-rule="evenodd" fill="#AA5B2A" d="M104.048,115.446c-2.13,7.918-5.034,15.897-7.052,23.857
		c-0.412,1.628,0.708,3.897,2.869,4.129c3.131,0.336,7.257,0.238,10.38-0.456c3.997,2.556,6.099-0.413,6.503-2.976
		c0.612-3.882-3.724-7.297-7.79-4.923c3.748-0.672,6.642,1.777,6.174,4.517c-0.451,2.64-2.803,3.876-4.681,2.221
		c-2.063-1.693-4.053-2.387-5.008-0.501c1.309-0.633,2.594-0.769,3.527,0.515c-2.904,0.483-6.074,0.503-8.377,0.011
		c-1.389-0.297-1.918-1.43-1.585-2.709C101.066,131.216,102.798,123.34,104.048,115.446z"/>
</g>
</svg>
