<?xml version="1.0" encoding="utf-8"?>
<!-- Generator: Adobe Illustrator 17.0.0, SVG Export Plug-In . SVG Version: 6.00 Build 0)  -->
<!DOCTYPE svg PUBLIC "-//W3C//DTD SVG 1.1//EN" "http://www.w3.org/Graphics/SVG/1.1/DTD/svg11.dtd">
<svg version="1.1" id="Capa_1" xmlns="http://www.w3.org/2000/svg" xmlns:xlink="http://www.w3.org/1999/xlink" x="0px" y="0px"
	 width="211px" height="228.77px" viewBox="0 0 211 228.77" enable-background="new 0 0 211 228.77" xml:space="preserve">
<g>
	<path fill-rule="evenodd" clip-rule="evenodd" fill="#8B2C70" d="M157.074,227.898H31.713l6.857-36.928
		c3.406-18.34,14.891-35.223,34.028-35.223h74.667c19.087,0,31.218,16.72,34.053,35.374l5.589,36.778H157.074z"/>
	<path fill-rule="evenodd" clip-rule="evenodd" fill="#C66CA9" d="M36.797,223.474h24.59l-6.274-35.499l2.429,1.766l8.269,33.733
		h88.026l8.27-33.733l2.428-1.766l-6.273,35.499h23.737l-4.81-31.652c-2.611-17.19-13.468-31.653-29.924-31.653H72.598
		c-16.458,0-26.754,14.57-29.924,31.653L36.797,223.474z"/>
	<g>
		<defs>
			<path id="SVGID_1_" d="M36.797,226.878h24.59l-6.274-35.499l2.429,1.766l8.269,33.733h88.026l8.27-33.733l2.428-1.766
				l-6.273,35.499h23.737l-4.81-31.652c-2.611-17.19-13.468-31.653-29.924-31.653H72.598c-16.458,0-26.754,14.57-29.924,31.653
				L36.797,226.878z"/>
		</defs>
		<clipPath id="SVGID_2_">
			<use xlink:href="#SVGID_1_"  overflow="visible"/>
		</clipPath>
		<g clip-path="url(#SVGID_2_)">
			<path fill-rule="evenodd" clip-rule="evenodd" fill="#8B2C70" d="M128.543,155.524l0.016-0.024l1.116,0.239l4.857,0.919
				l-0.093,0.136c2.124,0.503,4.238,1.051,6.34,1.647l5.489,1.555l-3.036,5.081c-8.207,13.736-18.278,26.339-30.936,35.697
				l-2.403,1.775l-2.398-1.783c-12.699-9.441-22.675-21.879-30.926-35.689l-3.035-5.081l5.488-1.555
				c2.102-0.596,4.216-1.144,6.34-1.647l-0.093-0.136l4.857-0.919l1.117-0.239l0.015,0.024l0.579-0.109
				c14.128-2.676,21.999-2.676,36.126,0L128.543,155.524z"/>
			<path fill-rule="evenodd" clip-rule="evenodd" fill="#F8BE9F" d="M127.226,159.769c-14.273-2.703-20.377-2.703-34.651,0
				c5.113,7.445,10.747,14.142,17.324,20.178C116.451,173.97,122.147,167.165,127.226,159.769z"/>
			<path fill-rule="evenodd" clip-rule="evenodd" fill="#B84995" d="M109.9,197.149c-12.251-9.111-21.838-21.115-29.795-34.435
				c3.018-0.855,6.125-1.63,9.28-2.303c5.969,9.037,12.708,17.128,20.516,23.896c7.809-6.768,14.548-14.859,20.518-23.896
				c3.154,0.674,6.261,1.448,9.279,2.303C131.791,175.946,122.097,188.132,109.9,197.149z"/>
			<path fill-rule="evenodd" clip-rule="evenodd" fill="#D581B5" d="M39.302,228.77h24.591l-6.274-35.499l2.428,1.767l8.27,33.733
				h88.026l8.269-33.733l2.428-1.767l-6.273,35.499h23.737l-4.811-31.652c-2.61-17.191-13.467-31.653-29.923-31.653H75.103
				c-16.458,0-26.754,14.57-29.924,31.653L39.302,228.77z"/>
			<g>
				<defs>
					<path id="SVGID_3_" d="M39.302,228.77h24.591l-6.274-35.499l2.428,1.767l8.27,33.733h88.026l8.269-33.733l2.428-1.767
						l-6.273,35.499h23.737l-4.811-31.652c-2.61-17.191-13.467-31.653-29.923-31.653H75.103c-16.458,0-26.754,14.57-29.924,31.653
						L39.302,228.77z"/>
				</defs>
				<clipPath id="SVGID_4_">
					<use xlink:href="#SVGID_3_"  overflow="visible"/>
				</clipPath>
				<g clip-path="url(#SVGID_4_)">
					<path fill-rule="evenodd" clip-rule="evenodd" fill="#8B2C70" d="M131.049,157.417l0.015-0.024l1.117,0.239l4.857,0.918
						l-0.094,0.136c2.125,0.503,4.239,1.052,6.34,1.647l5.49,1.555l-3.037,5.081c-8.206,13.737-18.278,26.34-30.935,35.697
						l-2.404,1.775L110,202.659c-12.699-9.441-22.675-21.878-30.925-35.689l-3.035-5.081l5.488-1.555
						c2.101-0.595,4.215-1.144,6.34-1.647l-0.094-0.136l4.857-0.918l1.116-0.239l0.016,0.024l0.58-0.109
						c14.127-2.675,21.999-2.675,36.126,0L131.049,157.417z"/>
					<path fill-rule="evenodd" clip-rule="evenodd" fill="#F8BE9F" d="M129.732,161.662c-14.273-2.702-20.378-2.702-34.652,0
						c5.113,7.445,10.748,14.142,17.325,20.178C118.957,175.864,124.651,169.058,129.732,161.662z"/>
					<path fill-rule="evenodd" clip-rule="evenodd" fill="#B84995" d="M112.405,199.041c-12.252-9.109-21.838-21.115-29.795-34.435
						c3.018-0.855,6.125-1.629,9.279-2.303c5.969,9.037,12.708,17.128,20.516,23.896c7.808-6.768,14.548-14.859,20.517-23.896
						c3.155,0.674,6.262,1.448,9.28,2.303C134.297,177.839,124.603,190.025,112.405,199.041z"/>
				</g>
			</g>
		</g>
	</g>
</g>
</svg>
