<?xml version="1.0" encoding="utf-8"?>
<!-- Generator: Adobe Illustrator 17.0.0, SVG Export Plug-In . SVG Version: 6.00 Build 0)  -->
<!DOCTYPE svg PUBLIC "-//W3C//DTD SVG 1.1//EN" "http://www.w3.org/Graphics/SVG/1.1/DTD/svg11.dtd">
<svg version="1.1" id="Capa_1" xmlns="http://www.w3.org/2000/svg" xmlns:xlink="http://www.w3.org/1999/xlink" x="0px" y="0px"
	 width="211px" height="228.77px" viewBox="0 0 211 228.77" enable-background="new 0 0 211 228.77" xml:space="preserve">
<g>
	<path fill-rule="evenodd" clip-rule="evenodd" fill="#4B2711" d="M45.5,76.5c-0.225,2.439-0.26,4.866-0.187,7.286
		c0.881,1.652,1.464,3.402,1.842,5.214h125.531c0-0.514,0.05-1.028,0.186-1.52c-0.466-1.727-0.105-3.71,1.102-5.024
		c0.141-2.128,0.331-4.258,0.602-6.391c-0.001,0-0.001,0-0.002,0c0.004-0.022,0.006-0.045,0.01-0.067
		c0.035-0.276,0.056-0.551,0.094-0.826c0.005-0.04,0.015-0.076,0.021-0.115c-0.084-0.867,0.023-1.754,0.332-2.56
		c3.357-35.155-29.847-54.259-65.166-54.259c-21.268,0-47.889,7.395-59.716,27.832c-5.045,8.717-6.381,18.133-5.307,27.494
		C45.348,74.314,45.612,75.292,45.5,76.5z"/>
	<g>
		<path fill-rule="evenodd" clip-rule="evenodd" fill="#F8BE9F" d="M166.153,89C201.359,1.084,18.372,1.084,53.579,89H166.153z"/>
		<g>
			<defs>
				<path id="SVGID_1_" d="M54.578,91.393c-39.874-91.109,150.45-91.109,110.576,0"/>
			</defs>
			<clipPath id="SVGID_2_">
				<use xlink:href="#SVGID_1_"  overflow="visible"/>
			</clipPath>
			<g clip-path="url(#SVGID_2_)">
				
					<ellipse fill-rule="evenodd" clip-rule="evenodd" fill="none" stroke="#000000" stroke-width="0.5669" stroke-miterlimit="22.9256" cx="-3.382" cy="128.022" rx="1.323" ry="1.395"/>
				<path fill-rule="evenodd" clip-rule="evenodd" fill="#FCD2A9" d="M168.244,89C206.602-1.081,18.664-1.081,57.022,89H168.244z"/>
				<g>
					<defs>
						<path id="SVGID_3_" d="M57.345,89.766c-39.873-91.108,150.45-91.108,110.577,0"/>
					</defs>
					<clipPath id="SVGID_4_">
						<use xlink:href="#SVGID_3_"  overflow="visible"/>
					</clipPath>
					<g clip-path="url(#SVGID_4_)">
						
							<ellipse fill-rule="evenodd" clip-rule="evenodd" fill="none" stroke="#000000" stroke-width="0.5669" stroke-miterlimit="22.9256" cx="-0.615" cy="126.395" rx="1.323" ry="1.395"/>
					</g>
				</g>
			</g>
		</g>
	</g>
	<path fill-rule="evenodd" clip-rule="evenodd" fill="#F8BE9F" d="M85.609,81.039c16.984,8.84,30.539,8.84,47.523,0
		C114.739,84.768,104.002,84.768,85.609,81.039z"/>
	<path fill-rule="evenodd" clip-rule="evenodd" fill="#F8BE9F" d="M81.769,73.699c19.729,8.841,35.474,8.841,55.203,0
		C115.605,77.429,103.135,77.429,81.769,73.699z"/>
</g>
</svg>
