<?xml version="1.0" encoding="utf-8"?>
<!-- Generator: Adobe Illustrator 17.0.0, SVG Export Plug-In . SVG Version: 6.00 Build 0)  -->
<!DOCTYPE svg PUBLIC "-//W3C//DTD SVG 1.1//EN" "http://www.w3.org/Graphics/SVG/1.1/DTD/svg11.dtd">
<svg version="1.1" id="Capa_1" xmlns="http://www.w3.org/2000/svg" xmlns:xlink="http://www.w3.org/1999/xlink" x="0px" y="0px"
	 width="53.371px" height="23.69px" viewBox="0 0 53.371 23.69" enable-background="new 0 0 53.371 23.69" xml:space="preserve">
<path fill-rule="evenodd" clip-rule="evenodd" fill="#8B2C70" d="M44.099,23.69H5.139L7.27,12.84
	C8.329,7.451,11.898,2.491,17.846,2.491h23.205c5.932,0,9.702,4.912,10.583,10.393l1.737,10.806H44.099z"/>
<path fill-rule="evenodd" clip-rule="evenodd" fill="#C66CA9" d="M6.719,22.39h7.642l-1.95-10.43l0.755,0.519l2.57,9.911h27.357
	l2.57-9.911l0.755-0.519l-1.95,10.43h7.377l-1.495-9.3c-0.811-5.051-4.186-9.3-9.3-9.3H17.846c-5.115,0-8.315,4.281-9.3,9.3
	L6.719,22.39z"/>
<g>
	<defs>
		<path id="SVGID_1_" d="M6.719,22.39h7.642l-1.95-10.43l0.755,0.519l2.57,9.911h27.357l2.57-9.911l0.755-0.519l-1.95,10.43h7.377
			l-1.495-9.3c-0.811-5.051-4.186-9.3-9.3-9.3H17.846c-5.115,0-8.315,4.281-9.3,9.3L6.719,22.39z"/>
	</defs>
	<clipPath id="SVGID_2_">
		<use xlink:href="#SVGID_1_"  overflow="visible"/>
	</clipPath>
	<g clip-path="url(#SVGID_2_)">
		<path fill-rule="evenodd" clip-rule="evenodd" fill="#8B2C70" d="M35.232,1.425l0.005-0.007l0.347,0.07l1.51,0.27l-0.029,0.04
			c0.66,0.148,1.317,0.309,1.97,0.484l1.706,0.457l-0.943,1.493c-2.551,4.036-5.681,7.739-9.615,10.488l-0.747,0.522l-0.745-0.524
			c-3.947-2.774-7.047-6.428-9.611-10.486l-0.943-1.493l1.706-0.457c0.653-0.175,1.31-0.336,1.97-0.484l-0.029-0.04l1.51-0.27
			l0.347-0.07l0.005,0.007l0.18-0.032c4.391-0.786,6.837-0.786,11.227,0L35.232,1.425z"/>
		<path fill-rule="evenodd" clip-rule="evenodd" fill="#F8BE9F" d="M34.823,2.673c-4.436-0.794-6.333-0.794-10.769,0
			c1.589,2.187,3.34,4.155,5.384,5.928C31.474,6.845,33.244,4.846,34.823,2.673z"/>
		<path fill-rule="evenodd" clip-rule="evenodd" fill="#B84995" d="M29.438,13.655c-3.807-2.677-6.787-6.204-9.26-10.117
			c0.938-0.251,1.904-0.479,2.884-0.677c1.855,2.655,3.95,5.032,6.376,7.021c2.427-1.989,4.521-4.366,6.377-7.021
			c0.98,0.198,1.946,0.425,2.884,0.677C36.242,7.425,33.229,11.006,29.438,13.655z"/>
		<path fill-rule="evenodd" clip-rule="evenodd" fill="#D581B5" d="M7.498,22.946h7.642l-1.95-10.43l0.755,0.519l2.57,9.911h27.357
			l2.57-9.911l0.755-0.519l-1.949,10.43h7.377l-1.495-9.3c-0.811-5.051-4.185-9.3-9.3-9.3H18.624c-5.115,0-8.315,4.281-9.3,9.3
			L7.498,22.946z"/>
		<g>
			<defs>
				<path id="SVGID_3_" d="M7.498,22.946h7.642l-1.95-10.43l0.755,0.519l2.57,9.911h27.357l2.57-9.911l0.755-0.519l-1.949,10.43
					h7.377l-1.495-9.3c-0.811-5.051-4.185-9.3-9.3-9.3H18.624c-5.115,0-8.315,4.281-9.3,9.3L7.498,22.946z"/>
			</defs>
			<clipPath id="SVGID_4_">
				<use xlink:href="#SVGID_3_"  overflow="visible"/>
			</clipPath>
			<g clip-path="url(#SVGID_4_)">
				<path fill-rule="evenodd" clip-rule="evenodd" fill="#8B2C70" d="M36.011,1.982l0.005-0.007l0.347,0.07l1.509,0.27l-0.029,0.04
					c0.66,0.148,1.317,0.309,1.97,0.484l1.706,0.457l-0.944,1.493c-2.55,4.036-5.681,7.739-9.614,10.488l-0.747,0.522l-0.745-0.524
					c-3.947-2.774-7.047-6.428-9.611-10.486l-0.943-1.493l1.706-0.457c0.653-0.175,1.31-0.336,1.97-0.484l-0.029-0.04l1.509-0.27
					l0.347-0.07l0.005,0.007l0.18-0.032c4.39-0.786,6.837-0.786,11.227,0L36.011,1.982z"/>
				<path fill-rule="evenodd" clip-rule="evenodd" fill="#F8BE9F" d="M35.602,3.229c-4.436-0.794-6.333-0.794-10.769,0
					c1.589,2.187,3.34,4.155,5.384,5.928C32.253,7.401,34.023,5.402,35.602,3.229z"/>
				<path fill-rule="evenodd" clip-rule="evenodd" fill="#B84995" d="M30.217,14.211c-3.808-2.676-6.787-6.204-9.26-10.117
					c0.938-0.251,1.903-0.479,2.884-0.677c1.855,2.655,3.949,5.032,6.376,7.021c2.427-1.989,4.521-4.366,6.376-7.021
					c0.981,0.198,1.946,0.425,2.884,0.677C37.02,7.982,34.008,11.562,30.217,14.211z"/>
			</g>
		</g>
	</g>
</g>
</svg>
