<?xml version="1.0" encoding="utf-8"?>
<!-- Generator: Adobe Illustrator 17.0.0, SVG Export Plug-In . SVG Version: 6.00 Build 0)  -->
<svg version="1.2" baseProfile="tiny" id="Capa_1" xmlns="http://www.w3.org/2000/svg" xmlns:xlink="http://www.w3.org/1999/xlink"
	 x="0px" y="0px" width="211px" height="228.77px" viewBox="0 0 211 228.77" xml:space="preserve">
<g>
	<path fill="#44210C" d="M108.548,34.327"/>
	<path fill="#44210C" d="M46.087,87.857c-4.384,0.356-9.04,2.156-11.845,5.241l-0.611,0.672l-0.301,0.861
		c-3.056,8.731-0.295,23.253,5.762,30.155l0.615,0.701l0.842,0.39c2.182,1.014,4.938,0.678,7.472,0.218"/>
	<path fill="#44210C" d="M46.163,93.076c0.082,0.017,0.165,0.03,0.247,0.047c0.062,0.002,0.143,0.006,0.257,0.013
		c0.486,0.017,0.948,0.121,1.395,0.262c0.146,0.014,0.293,0.032,0.443,0.059c0.433-0.226,0.85-0.464,1.23-0.715
		c0.262-0.173,0.512-0.353,0.758-0.538c0.094-1.234-0.345-2.958-0.757-3.925c-1.785-0.406-3.648-0.421-5.672-0.156l-0.395,4.534
		c0.338,0.036,0.678,0.078,1.028,0.135C45.188,92.873,45.674,92.978,46.163,93.076z"/>
	<path fill="#44210C" d="M50.524,124.758c-0.044-0.575-0.006-1.141,0.11-1.683c-0.061-0.307-0.194-1.047-0.304-1.454
		c-0.171-0.26-0.314-0.541-0.444-0.832c-0.115-0.094-0.271-0.071-0.799-0.166c-0.232-0.042-0.452-0.111-0.666-0.191
		c-0.051,0.033-0.095,0.073-0.148,0.104c-0.398,0.168-0.796,0.336-1.194,0.504c-0.348,0.146-0.713,0.231-1.083,0.277
		c-0.953,0.282-1.933,0.446-2.996,0.485c-0.302,0.011-0.589-0.012-0.866-0.053l-0.396,4.541c2.46,0.171,4.993,0.328,7.404-0.232
		C49.517,125.517,49.984,125.084,50.524,124.758z"/>
	<path fill="#44210C" d="M166.696,122.132c0.15,0.672,0.177,1.376,0.08,2.06c0.245,0.496,0.399,1.035,0.482,1.588
		c0.923,0.217,1.666,0.672,2.232,1.274c-0.011-0.104-0.02-0.207-0.031-0.311c2.471,0.141,5.461-0.054,7.213-0.867l0.842-0.39
		l0.615-0.701c6.057-6.902,8.818-21.424,5.762-30.155l-0.301-0.861l-0.611-0.672c-2.827-3.109-7.533-4.913-11.947-5.249h-3.207
		c0.009,0.174,0.008,0.348,0.001,0.522c0.008,0.168,0.007,0.337,0,0.505"/>
	<g>
		<g>
			<ellipse fill="none" cx="1.866" cy="134.432" rx="0.995" ry="1.008"/>
			<path fill="none" d="M1.866,132.858c-0.861,0-1.563,0.706-1.563,1.575c0,0.18,0.036,0.35,0.092,0.512
				c0.116,0.142,0.207,0.304,0.268,0.482c0.287,0.352,0.716,0.581,1.202,0.581c0.861,0,1.562-0.706,1.562-1.574
				C3.428,133.564,2.727,132.858,1.866,132.858z M1.866,135.441c-0.549,0-0.995-0.452-0.995-1.008s0.446-1.009,0.995-1.009
				c0.548,0,0.995,0.453,0.995,1.009S2.414,135.441,1.866,135.441z"/>
			<path fill="#231F20" d="M0.663,135.426c-0.061-0.178-0.152-0.339-0.268-0.482C0.456,135.122,0.547,135.284,0.663,135.426z"/>
		</g>
		<path fill="#F9B797" imag="0" d="M52.862,102.401c-1.518-3.27-2.567-6.642-3.591-10.05c-4.108-0.509-9.313,1.048-11.791,3.774
			c-2.817,8.047,0.544,20.728,4.901,25.693c1.605,0.745,6.427-0.425,7.499-0.611C51.022,114.321,51.514,110.096,52.862,102.401z"/>
		<g>
			<path fill="none" d="M39.563,97.834c2.479-2.726,5.746-4.587,9.856-4.077c0.106,0.013,0.199,0.046,0.302,0.063
				c-0.15-0.49-0.302-0.978-0.449-1.47c-4.108-0.509-9.313,1.048-11.791,3.774c-2.817,8.047,0.544,20.728,4.901,25.693
				c0.292,0.135,0.692,0.206,1.154,0.232C39.375,116.883,36.818,105.671,39.563,97.834z"/>
			<path fill="none" d="M49.59,121.261c0.112-0.022,0.213-0.042,0.289-0.055c0.04-0.241,0.077-0.471,0.116-0.706
				C49.86,120.768,49.725,121.024,49.59,121.261z"/>
			<path fill="#FCCCA1" imag="1" d="M52.862,102.401c-1.299-2.799-2.251-5.674-3.141-8.581c-0.103-0.018-0.197-0.05-0.302-0.063
				c-4.11-0.51-7.377,1.351-9.856,4.077c-2.744,7.837-0.187,19.049,3.973,24.215c1.9,0.108,4.88-0.555,6.055-0.788
				c0.135-0.237,0.27-0.493,0.405-0.761C51.056,114.029,51.561,109.827,52.862,102.401z"/>
		</g>
		<path fill="#F9B797" imag="0"  d="M164.36,102.401c1.518-3.27,2.567-6.642,3.59-10.05c4.109-0.509,9.314,1.048,11.792,3.774
			c2.817,8.047-0.544,20.728-4.901,25.693c-1.604,0.745-5.803,0.468-6.875,0.282C166.156,115.554,166.041,109.757,164.36,102.401z"
			/>
		<g>
			<path fill="none" d="M179.742,96.124c-2.479-2.726-7.683-4.283-11.792-3.774c-0.147,0.491-0.299,0.98-0.449,1.47
				c0.103-0.018,0.197-0.05,0.303-0.063c4.11-0.51,7.376,1.351,9.855,4.077c2.762,7.887,0.156,19.194-4.051,24.315
				c0.484-0.076,0.912-0.183,1.233-0.332C179.197,116.852,182.559,104.171,179.742,96.124z"/>
			<path fill="none" d="M167.965,122.099c0.062,0.011,0.136,0.022,0.218,0.033c-0.112-0.158-0.225-0.33-0.338-0.513
				C167.888,121.78,167.92,121.937,167.965,122.099z"/>
			<path fill="#FCCCA1" imag="1" d="M177.658,97.834c-2.478-2.726-5.745-4.587-9.855-4.077c-0.106,0.013-0.2,0.046-0.303,0.063
				c-0.89,2.907-1.841,5.782-3.141,8.581c1.64,7.174,1.801,12.87,3.486,19.218c0.113,0.183,0.226,0.355,0.338,0.513
				c1.049,0.143,3.632,0.299,5.424,0.017C177.814,117.027,180.419,105.72,177.658,97.834z"/>
		</g>
	</g>
	<path fill="#F79A6C" imag="0" d="M40.913,99.857c2.337-0.356,4.781,0.375,6.004,2.067c1.99,4.075,0.745,9.353-0.397,11.887
		C46.893,106.895,45.798,103.259,40.913,99.857z"/>
	<path fill="#F79A6C" imag="0" d="M176.309,99.857c-2.338-0.356-4.781,0.375-6.004,2.067c-1.99,4.075-0.745,9.353,0.396,11.887
		C170.328,106.895,171.423,103.259,176.309,99.857z"/>
</g>
</svg>
