<?xml version="1.0" encoding="utf-8"?>
<!-- Generator: Adobe Illustrator 17.0.0, SVG Export Plug-In . SVG Version: 6.00 Build 0)  -->
<svg version="1.2" baseProfile="tiny" id="Capa_1" xmlns="http://www.w3.org/2000/svg" xmlns:xlink="http://www.w3.org/1999/xlink"
	 x="0px" y="0px" width="211px" height="228.77px" viewBox="0 0 211 228.77" xml:space="preserve">
<g>
	<path fill="#F79A6C" imag="0" d="M41.434,101.762c2.337-0.351,4.781,0.37,6.004,2.039c1.99,4.02,0.745,9.225-0.397,11.724
		C47.414,108.703,46.319,105.118,41.434,101.762z"/>
	<path fill="#F79A6C" imag="0" d="M176.83,101.762c-2.338-0.351-4.781,0.37-6.004,2.039c-1.99,4.02-0.745,9.225,0.396,11.724
		C170.849,108.703,171.944,105.118,176.83,101.762z"/>
	<g>
		<path fill="#FCCCA1" imag="1"  d="M52.346,102.503c-3.753-2.717-6.341-6.504-9.609-9.706c-0.978-1.227-2.615-1.266-4.369-0.68
			c-1.456,0.744-2.622,2.168-3.786,4.756c-5.971,16.76,5.449,27.948,16.016,30.77C51.181,119.264,51.764,110.883,52.346,102.503z"/>
		<path fill="#5F160A" d="M52.72,100.922c0.648,0.456,0.804,1.351,0.348,1.998c-0.456,0.648-1.351,0.804-1.998,0.348
			c-1.932-1.365-3.448-3.13-5.02-4.962c-1.061-1.237-2.154-2.509-3.391-3.658c-0.62-0.576-1.21-0.944-1.76-1.131
			c-0.564-0.191-1.098-0.189-1.59-0.026l0.001,0.002c-0.551,0.184-1.089,0.571-1.594,1.114c-0.868,0.936-1.609,2.306-2.163,3.937
			c-0.244,0.719-0.45,1.421-0.615,2.099c-1.363,5.596-0.512,10.931,1.939,15.29c2.448,4.354,6.502,7.746,11.539,9.459
			c0.643,0.219,1.287,0.408,1.926,0.563c0.768,0.186,1.241,0.96,1.055,1.728c-0.186,0.768-0.96,1.241-1.728,1.055
			c-0.757-0.184-1.484-0.396-2.174-0.631c-5.72-1.945-10.329-5.807-13.121-10.772c-2.792-4.963-3.765-11.024-2.22-17.365
			c0.194-0.795,0.422-1.579,0.682-2.347c0.681-2.003,1.632-3.73,2.781-4.968c0.823-0.886,1.758-1.535,2.782-1.878l0.001,0.002
			l0.005-0.002c1.082-0.361,2.231-0.377,3.414,0.025c0.923,0.315,1.861,0.885,2.791,1.749c1.352,1.254,2.501,2.592,3.616,3.893
			C49.678,98.132,51.074,99.759,52.72,100.922z"/>
		<path fill="#F79A6C" imag="0"  d="M41.329,98.178c0.281-0.352,0.795-0.409,1.148-0.128c0.352,0.281,0.409,0.796,0.128,1.148
			c-1.889,2.361-2.834,5.085-2.715,7.818c0.114,2.622,1.214,5.274,3.403,7.648c0.306,0.333,0.285,0.852-0.048,1.158
			s-0.852,0.285-1.158-0.048c-2.463-2.673-3.701-5.687-3.833-8.688C38.119,103.957,39.189,100.854,41.329,98.178z"/>
		<path fill="#F79A6C" imag="0" d="M39.227,104.219c-0.411-0.191-0.589-0.68-0.397-1.091c0.191-0.41,0.68-0.589,1.09-0.397
			c1.962,0.916,3.725,1.948,5.413,3.135c1.676,1.177,3.277,2.506,4.925,4.02c0.333,0.306,0.354,0.825,0.048,1.157
			c-0.306,0.333-0.825,0.354-1.158,0.048c-1.599-1.468-3.146-2.752-4.758-3.885C42.788,106.08,41.108,105.095,39.227,104.219z"/>
	</g>
	<g>
		<path fill="#FCCCA1" imag="1" d="M166.258,101.7c3.58-2.592,6.048-6.203,9.166-9.259c0.933-1.17,2.494-1.208,4.167-0.648
			c1.388,0.71,2.501,2.068,3.611,4.537c5.695,15.987-5.198,26.659-15.277,29.35C167.369,117.687,166.813,109.694,166.258,101.7z"/>
		<path fill="#5F160A" d="M165.9,100.192c-0.618,0.435-0.767,1.288-0.332,1.906s1.288,0.767,1.906,0.332
			c1.843-1.302,3.288-2.986,4.788-4.733c1.012-1.179,2.054-2.393,3.234-3.489c0.591-0.549,1.154-0.901,1.678-1.079
			c0.538-0.183,1.047-0.18,1.516-0.025l-0.001,0.002c0.526,0.175,1.039,0.544,1.52,1.063c0.828,0.893,1.535,2.199,2.064,3.756
			c0.233,0.686,0.429,1.355,0.587,2.003c1.3,5.338,0.488,10.427-1.85,14.584c-2.335,4.153-6.202,7.388-11.007,9.022
			c-0.613,0.209-1.227,0.389-1.837,0.537c-0.733,0.177-1.183,0.916-1.006,1.649s0.916,1.183,1.649,1.007
			c0.722-0.175,1.415-0.378,2.074-0.601c5.456-1.856,9.852-5.54,12.515-10.275c2.663-4.734,3.591-10.516,2.117-16.564
			c-0.185-0.759-0.403-1.507-0.651-2.239c-0.649-1.91-1.557-3.558-2.653-4.739c-0.785-0.845-1.677-1.465-2.654-1.791l-0.001,0.002
			l-0.005-0.002c-1.032-0.344-2.128-0.359-3.256,0.023c-0.88,0.3-1.775,0.844-2.662,1.668c-1.29,1.197-2.385,2.472-3.449,3.713
			C168.803,97.531,167.471,99.083,165.9,100.192z"/>
		<path fill="#F79A6C" imag="0" d="M176.766,97.575c-0.268-0.336-0.759-0.39-1.095-0.122s-0.39,0.759-0.122,1.095
			c1.801,2.252,2.703,4.85,2.589,7.457c-0.109,2.501-1.157,5.03-3.246,7.295c-0.292,0.317-0.272,0.812,0.046,1.104
			c0.317,0.292,0.812,0.272,1.104-0.045c2.35-2.55,3.53-5.424,3.656-8.287C179.828,103.087,178.808,100.127,176.766,97.575z"/>
		<path fill="#F79A6C" imag="0"  d="M178.771,103.336c0.391-0.183,0.561-0.648,0.379-1.04c-0.183-0.391-0.648-0.561-1.04-0.379
			c-1.872,0.873-3.553,1.859-5.164,2.99c-1.599,1.123-3.126,2.39-4.698,3.835c-0.317,0.292-0.337,0.787-0.045,1.104
			s0.787,0.338,1.104,0.046c1.525-1.4,3-2.625,4.539-3.706C175.375,105.112,176.977,104.173,178.771,103.336z"/>
	</g>
</g>
<g>
	<path fill="none" d="M40.084,99.767c2.478-2.689,5.746-4.524,9.856-4.021c0.106,0.013,0.199,0.045,0.302,0.063
		c-0.15-0.483-0.302-0.965-0.449-1.449c-4.108-0.502-9.313,1.034-11.791,3.722c-2.817,7.937,0.544,20.444,4.901,25.341
		c0.292,0.134,0.692,0.203,1.154,0.229C39.896,118.555,37.339,107.496,40.084,99.767z"/>
	<path fill="none" d="M50.111,122.873c0.112-0.022,0.213-0.041,0.289-0.054c0.04-0.238,0.077-0.465,0.116-0.697
		C50.381,122.387,50.246,122.64,50.111,122.873z"/>
</g>
</svg>
