<?xml version="1.0" encoding="utf-8"?>
<!-- Generator: Adobe Illustrator 17.0.0, SVG Export Plug-In . SVG Version: 6.00 Build 0)  -->
<svg version="1.2" baseProfile="tiny" id="Capa_1" xmlns="http://www.w3.org/2000/svg" xmlns:xlink="http://www.w3.org/1999/xlink"
	 x="0px" y="0px" width="211px" height="228.77px" viewBox="0 0 211 228.77" xml:space="preserve">
<g>
	<path fill-rule="evenodd" fill="#F79A6C" d="M41.434,101.762c2.337-0.351,4.781,0.37,6.004,2.039
		c1.99,4.02,0.745,9.225-0.397,11.724C47.414,108.703,46.319,105.118,41.434,101.762z"/>
	<path fill-rule="evenodd" fill="#F79A6C" d="M176.83,101.762c-2.338-0.351-4.781,0.37-6.004,2.039
		c-1.99,4.02-0.745,9.225,0.396,11.724C170.849,108.703,171.944,105.118,176.83,101.762z"/>
	<g>
		<path fill-rule="evenodd" fill="#FCCCA1" d="M167.699,98.684c10.428-9.279,20.382-8.935,24.551-4.161
			c4.79,5.485,1.059,12.414-4.994,15.501c-3.509,1.79-7.576,1.13-10.403,3.745c-2.286,2.114-1.824,7.422-4.474,10.091
			c-1.051,1.058-2.702,1.461-4.473,1.769C167.491,116.855,167.595,106.833,167.699,98.684z"/>
		<path fill-rule="evenodd" fill="#5F160A" d="M167.091,97.371c-0.54,0.555-0.527,1.444,0.027,1.984
			c0.555,0.54,1.444,0.527,1.984-0.028c2.763-2.831,6.478-4.812,10.189-5.753c3.706-0.94,7.365-0.839,9.992,0.493
			c1.061,0.539,1.851,1.231,2.403,2.016c0.784,1.114,1.111,2.444,1.084,3.815v0.006c-0.027,1.435-0.444,2.924-1.131,4.279
			c-0.753,1.482-1.826,2.783-3.071,3.658c-1.416,0.996-3.457,1.43-5.474,1.858c-3.014,0.64-5.99,1.273-7.838,3.71
			c-1.113,1.469-1.571,3.182-2.025,4.898c-0.679,2.548-1.359,5.102-4.779,5.688c-0.764,0.13-1.279,0.857-1.149,1.621
			c0.13,0.764,0.857,1.279,1.621,1.149c5.195-0.889,6.11-4.321,7.02-7.744c0.385-1.451,0.772-2.901,1.543-3.918
			c1.211-1.598,3.684-2.124,6.188-2.656c2.299-0.489,4.623-0.982,6.508-2.308c1.621-1.14,3.005-2.807,3.961-4.692
			c0.858-1.692,1.381-3.583,1.425-5.449l0.002-0.045c0.039-1.945-0.442-3.855-1.589-5.485c-0.806-1.146-1.937-2.145-3.437-2.906
			c-3.244-1.646-7.609-1.81-11.937-0.712C174.428,91.91,170.231,94.154,167.091,97.371z"/>
		<path fill-rule="evenodd" fill="#F79A6C" d="M186.749,104.055c0.035,0.442,0.421,0.772,0.863,0.738
			c0.442-0.035,0.772-0.421,0.738-0.863c-0.153-1.883-0.692-3.456-1.53-4.66c-0.939-1.348-2.243-2.236-3.805-2.595
			c-1.518-0.349-3.267-0.189-5.135,0.54c-2.489,0.972-5.221,2.971-7.925,6.151c-0.286,0.338-0.244,0.845,0.094,1.131
			c0.337,0.286,0.845,0.244,1.131-0.094c2.52-2.964,5.027-4.812,7.283-5.693c1.558-0.609,2.985-0.748,4.192-0.471
			c1.164,0.268,2.141,0.934,2.845,1.947C186.181,101.162,186.62,102.465,186.749,104.055z"/>
		<path fill-rule="evenodd" fill="#F79A6C" d="M181.328,97.143c-0.171-0.407-0.642-0.598-1.049-0.427
			c-0.407,0.171-0.598,0.642-0.427,1.049c0.545,1.292,0.804,2.606,0.748,3.938c-0.056,1.336-0.43,2.706-1.149,4.106
			c-0.201,0.393-0.044,0.876,0.349,1.077c0.393,0.201,0.876,0.044,1.077-0.349c0.826-1.611,1.258-3.203,1.324-4.771
			C182.268,100.196,181.965,98.653,181.328,97.143z"/>
		<path fill-rule="evenodd" fill="#F79A6C" d="M177.232,98.796c-0.171-0.407-0.642-0.598-1.049-0.427
			c-0.407,0.171-0.598,0.642-0.427,1.049c0.545,1.292,0.804,2.606,0.748,3.938c-0.055,1.336-0.43,2.706-1.149,4.106
			c-0.201,0.393-0.044,0.876,0.349,1.077c0.393,0.201,0.876,0.044,1.077-0.349c0.826-1.612,1.258-3.203,1.324-4.771
			C178.172,101.849,177.87,100.307,177.232,98.796z"/>
	</g>
	<g>
		<path fill-rule="evenodd" fill="#FCCCA1" d="M52.283,100.696c-10.444-9.293-20.413-8.948-24.589-4.167
			c-4.798,5.493-1.061,12.432,5.001,15.524c3.515,1.793,7.588,1.132,10.418,3.75c2.289,2.117,1.827,7.433,4.481,10.107
			c1.052,1.06,2.705,1.463,4.48,1.771C52.491,118.895,52.386,108.858,52.283,100.696z"/>
		<path fill-rule="evenodd" fill="#5F160A" d="M52.891,99.382c0.541,0.555,0.528,1.446-0.028,1.987
			c-0.555,0.541-1.446,0.528-1.987-0.028c-2.767-2.835-6.488-4.819-10.204-5.762c-3.711-0.941-7.376-0.841-10.007,0.494
			c-1.063,0.54-1.854,1.233-2.407,2.019c-0.785,1.115-1.112,2.448-1.086,3.82v0.006c0.028,1.437,0.444,2.928,1.133,4.286
			c0.753,1.484,1.828,2.787,3.075,3.664c1.418,0.997,3.462,1.432,5.483,1.861c3.019,0.641,5.999,1.275,7.85,3.716
			c1.115,1.471,1.573,3.187,2.028,4.905c0.679,2.552,1.36,5.11,4.787,5.696c0.765,0.13,1.281,0.858,1.15,1.624
			c-0.13,0.766-0.858,1.281-1.624,1.15c-5.203-0.89-6.119-4.328-7.031-7.755c-0.386-1.453-0.773-2.905-1.545-3.924
			c-1.213-1.6-3.689-2.128-6.198-2.66c-2.302-0.489-4.63-0.984-6.518-2.312c-1.623-1.141-3.009-2.812-3.967-4.699
			c-0.859-1.695-1.383-3.588-1.427-5.457l-0.002-0.045c-0.039-1.948,0.443-3.861,1.591-5.493c0.807-1.148,1.94-2.149,3.442-2.911
			c3.249-1.649,7.62-1.813,11.955-0.713C45.543,93.913,49.747,96.16,52.891,99.382z"/>
		<path fill-rule="evenodd" fill="#F79A6C" d="M33.204,106.075c-0.035,0.443-0.422,0.774-0.865,0.739
			c-0.443-0.035-0.774-0.422-0.739-0.864c0.153-1.886,0.693-3.461,1.532-4.667c0.94-1.35,2.247-2.239,3.811-2.598
			c1.52-0.349,3.272-0.189,5.142,0.541c2.493,0.973,5.228,2.975,7.936,6.16c0.287,0.338,0.244,0.846-0.094,1.133
			c-0.338,0.287-0.846,0.244-1.133-0.094c-2.523-2.969-5.034-4.819-7.294-5.702c-1.56-0.609-2.989-0.749-4.199-0.472
			c-1.166,0.268-2.144,0.935-2.85,1.95C33.773,103.178,33.333,104.484,33.204,106.075z"/>
		<path fill-rule="evenodd" fill="#F79A6C" d="M38.633,99.153c0.172-0.408,0.643-0.599,1.051-0.428
			c0.407,0.172,0.599,0.643,0.427,1.051c-0.546,1.294-0.805,2.61-0.749,3.944c0.055,1.338,0.431,2.71,1.15,4.112
			c0.201,0.394,0.044,0.878-0.35,1.079c-0.394,0.201-0.877,0.044-1.079-0.349c-0.828-1.614-1.26-3.208-1.326-4.778
			C37.692,102.211,37.995,100.666,38.633,99.153z"/>
		<path fill-rule="evenodd" fill="#F79A6C" d="M42.735,100.809c0.172-0.408,0.643-0.599,1.05-0.428
			c0.408,0.172,0.599,0.643,0.427,1.051c-0.546,1.294-0.805,2.61-0.749,3.944c0.056,1.338,0.431,2.71,1.15,4.112
			c0.201,0.394,0.044,0.877-0.349,1.079c-0.394,0.201-0.878,0.044-1.079-0.349c-0.828-1.614-1.26-3.208-1.326-4.779
			C41.794,103.867,42.096,102.322,42.735,100.809z"/>
	</g>
</g>
</svg>
