<?xml version="1.0" encoding="utf-8"?>
<!-- Generator: Adobe Illustrator 17.0.0, SVG Export Plug-In . SVG Version: 6.00 Build 0)  -->
<svg version="1.2" baseProfile="tiny" id="Capa_1" xmlns="http://www.w3.org/2000/svg" xmlns:xlink="http://www.w3.org/1999/xlink"
	 x="0px" y="0px" width="211px" height="228.77px" viewBox="0 0 211 228.77" xml:space="preserve">
<g>
	<g>
		<path fill-rule="evenodd" fill="#FCCCA1" d="M50.96,98.692c-7.881-10.151-15.334-7.588-17.157-0.727
			c-2.304,9.953-0.776,20.059,5.67,27.337c2.881,3.254,8.918,1.114,11.925-2.764C51.252,114.493,51.105,106.737,50.96,98.692z"/>
		<path fill-rule="evenodd" fill="#5F160A" d="M51.454,97.357c0.409,0.618,0.24,1.451-0.378,1.86
			c-0.618,0.409-1.451,0.24-1.86-0.378c-1.878-2.837-4.201-4.531-6.445-5.165c-0.961-0.271-1.899-0.347-2.769-0.236
			c-0.843,0.108-1.638,0.398-2.334,0.859c-1.129,0.747-2.019,1.969-2.49,3.638c-1.147,4.061-1.318,8.227-0.777,12.219
			c0.606,4.473,2.108,8.737,4.134,12.4c0.473,0.856,1.07,1.51,1.741,1.977c0.993,0.693,2.174,1.005,3.379,0.995
			c1.244-0.01,2.518-0.364,3.653-0.991l0.088-0.044c0.958-0.545,1.803-1.29,2.431-2.19c0.424-0.607,1.259-0.755,1.865-0.331
			c0.606,0.424,0.755,1.259,0.331,1.865c-0.86,1.232-2.015,2.247-3.318,2.988l-0.105,0.065c-1.508,0.833-3.225,1.303-4.924,1.317
			c-1.739,0.014-3.461-0.448-4.935-1.477c-1-0.698-1.88-1.652-2.56-2.882c-2.173-3.928-3.785-8.512-4.438-13.336
			c-0.588-4.34-0.401-8.875,0.849-13.301c0.656-2.325,1.942-4.058,3.594-5.151c1.037-0.687,2.22-1.118,3.479-1.279
			c1.233-0.158,2.532-0.058,3.831,0.308C46.321,91.885,49.197,93.946,51.454,97.357z"/>
		<path fill-rule="evenodd" fill="#F79A6C" d="M38.746,110.191c0.126,0.405-0.1,0.835-0.504,0.961
			c-0.404,0.126-0.835-0.1-0.961-0.504c-1.082-3.458-0.53-7.512,1.05-10.074c0.637-1.034,1.447-1.845,2.393-2.307
			c0.987-0.482,2.105-0.587,3.31-0.183c2.236,0.749,4.785,3.34,7.322,8.731c0.181,0.383,0.017,0.84-0.366,1.021
			c-0.383,0.181-0.84,0.017-1.021-0.366c-2.336-4.965-4.551-7.306-6.421-7.933c-0.79-0.265-1.516-0.199-2.151,0.111
			c-0.678,0.331-1.277,0.941-1.763,1.73C38.263,103.6,37.793,107.145,38.746,110.191z"/>
		<path fill-rule="evenodd" fill="#F79A6C" d="M48.821,103.455c0.407-0.112,0.831,0.127,0.943,0.534
			c0.112,0.407-0.127,0.831-0.534,0.943c-1.46,0.403-2.503,1.269-3.107,2.314c-0.422,0.732-0.633,1.557-0.626,2.374
			c0.008,0.805,0.234,1.608,0.684,2.309c0.613,0.954,1.655,1.724,3.146,2.07c0.413,0.095,0.671,0.507,0.576,0.919
			s-0.506,0.671-0.919,0.576c-1.917-0.445-3.276-1.464-4.094-2.737c-0.607-0.945-0.913-2.033-0.924-3.125
			c-0.01-1.083,0.27-2.177,0.83-3.148C45.591,105.106,46.944,103.972,48.821,103.455z"/>
	</g>
	<g>
		<path fill-rule="evenodd" fill="#FCCCA1" d="M168.476,100.992c7.519-9.686,14.631-7.24,16.371-0.694
			c2.198,9.497,0.741,19.139-5.41,26.084c-2.749,3.104-8.509,1.063-11.377-2.637C168.198,116.069,168.337,108.669,168.476,100.992z"
			/>
		<path fill-rule="evenodd" fill="#5F160A" d="M168.004,99.718c-0.39,0.59-0.229,1.385,0.361,1.775
			c0.59,0.39,1.385,0.229,1.775-0.361c1.792-2.707,4.008-4.324,6.15-4.928c0.917-0.258,1.812-0.331,2.642-0.225
			c0.805,0.103,1.563,0.38,2.227,0.82c1.077,0.713,1.927,1.879,2.376,3.472c1.094,3.874,1.258,7.85,0.741,11.658
			c-0.578,4.268-2.011,8.337-3.944,11.832c-0.452,0.817-1.022,1.441-1.661,1.887c-0.947,0.661-2.075,0.958-3.224,0.949
			c-1.186-0.01-2.402-0.347-3.485-0.945l-0.084-0.042c-0.914-0.52-1.72-1.231-2.32-2.089c-0.404-0.579-1.201-0.72-1.78-0.316
			c-0.579,0.404-0.72,1.201-0.316,1.78c0.821,1.176,1.922,2.144,3.166,2.851l0.1,0.062c1.439,0.795,3.077,1.243,4.699,1.256
			c1.659,0.013,3.302-0.428,4.709-1.409c0.955-0.666,1.794-1.576,2.443-2.749c2.073-3.748,3.612-8.121,4.235-12.724
			c0.561-4.141,0.383-8.468-0.81-12.691c-0.626-2.218-1.853-3.872-3.429-4.915c-0.989-0.656-2.118-1.066-3.32-1.22
			c-1.176-0.151-2.416-0.055-3.656,0.294C172.902,94.498,170.158,96.464,168.004,99.718z"/>
		<path fill-rule="evenodd" fill="#F79A6C" d="M180.13,111.964c-0.12,0.386,0.095,0.797,0.481,0.917
			c0.386,0.12,0.796-0.095,0.917-0.481c1.032-3.299,0.506-7.168-1.002-9.612c-0.608-0.986-1.381-1.76-2.284-2.201
			c-0.942-0.46-2.009-0.56-3.158-0.175c-2.133,0.715-4.566,3.187-6.986,8.331c-0.172,0.365-0.016,0.801,0.349,0.974
			c0.365,0.172,0.801,0.016,0.974-0.349c2.229-4.737,4.343-6.971,6.127-7.569c0.754-0.253,1.447-0.19,2.053,0.106
			c0.647,0.315,1.218,0.898,1.682,1.651C180.59,105.676,181.039,109.058,180.13,111.964z"/>
		<path fill-rule="evenodd" fill="#F79A6C" d="M170.518,105.537c-0.389-0.107-0.793,0.121-0.9,0.51
			c-0.107,0.389,0.121,0.793,0.51,0.9c1.393,0.385,2.388,1.211,2.964,2.208c0.403,0.698,0.604,1.486,0.597,2.265
			c-0.008,0.768-0.224,1.535-0.653,2.203c-0.585,0.91-1.579,1.645-3.001,1.975c-0.394,0.09-0.64,0.484-0.55,0.877
			c0.09,0.394,0.483,0.64,0.877,0.55c1.829-0.425,3.125-1.397,3.906-2.611c0.579-0.902,0.871-1.94,0.881-2.982
			c0.01-1.033-0.257-2.077-0.792-3.004C173.599,107.112,172.308,106.031,170.518,105.537z"/>
	</g>
</g>
</svg>
