<?xml version="1.0" encoding="utf-8"?>
<!-- Generator: Adobe Illustrator 17.0.0, SVG Export Plug-In . SVG Version: 6.00 Build 0)  -->
<svg version="1.2" baseProfile="tiny" id="Capa_1" xmlns="http://www.w3.org/2000/svg" xmlns:xlink="http://www.w3.org/1999/xlink"
	 x="0px" y="0px" width="211px" height="228.77px" viewBox="0 0 211 228.77" xml:space="preserve">
<g>
	<g>
		<path fill-rule="evenodd" fill="#FCCCA1" d="M165.714,107.222c4.88-8.316,10.107-15.779,15.615-16.982
			c5.995-1.309,8.345,4.265,9.761,8.98c2.645,8.806-6.776,17.061-14.25,22.642c-2.327,1.739-5.688,0.614-9.37-2.342
			C166.755,115.031,166.431,111.712,165.714,107.222z"/>
		<path fill-rule="evenodd" fill="#5F160A" d="M164.596,104.711c-0.537,0.837-0.293,1.953,0.543,2.49
			c0.837,0.537,1.953,0.293,2.49-0.544c1.988-3.092,4.276-6.274,6.745-8.876c2.36-2.489,4.874-4.442,7.41-5.231l0.126-0.037
			l0.072-0.023c1.592-0.432,3.056,0.022,4.271,1.038c1.412,1.179,2.531,3.08,3.216,5.288l-0.002,0.001l0.091,0.305l0.028,0.087
			c0.363,1.31,0.434,2.671,0.28,3.955c-0.169,1.407-0.611,2.697-1.229,3.706c-1.534,2.504-3.173,4.712-5.033,6.773
			c-1.872,2.074-3.958,3.989-6.372,5.897c-0.954,0.755-2.211,1.017-3.511,0.861c-1.455-0.177-2.947-0.87-4.17-1.99
			c-0.732-0.669-1.87-0.619-2.539,0.112c-0.67,0.732-0.619,1.87,0.112,2.539c1.791,1.638,3.999,2.656,6.174,2.92
			c2.207,0.268,4.405-0.232,6.163-1.622c2.607-2.06,4.84-4.108,6.824-6.306c1.998-2.212,3.765-4.596,5.427-7.309
			c0.88-1.438,1.504-3.236,1.737-5.159c0.206-1.713,0.106-3.553-0.398-5.357l-0.035-0.137l-0.091-0.305l-0.003,0.001l-0.004-0.015
			c-0.886-2.864-2.398-5.378-4.35-7.01c-2.109-1.763-4.698-2.532-7.569-1.733l-0.102,0.027l-0.126,0.037v0.001l-0.022,0.006
			c-3.206,0.989-6.23,3.295-8.984,6.198C169.109,98.096,166.687,101.46,164.596,104.711z"/>
		<path fill-rule="evenodd" fill="#F79A6C" d="M186.902,101.018c0.549-0.147,0.876-0.713,0.729-1.262
			c-0.147-0.549-0.713-0.876-1.262-0.729c-2.869,0.772-5.429,2.079-7.834,4.01c-2.369,1.903-4.583,4.412-6.799,7.623
			c-0.322,0.467-0.204,1.108,0.262,1.43c0.466,0.322,1.108,0.205,1.43-0.262c2.1-3.044,4.185-5.411,6.396-7.187
			C181.997,102.896,184.31,101.715,186.902,101.018z"/>
		<path fill-rule="evenodd" fill="#F79A6C" d="M183.834,101.019c-0.231-0.518-0.84-0.751-1.358-0.52s-0.751,0.84-0.52,1.358
			c1.056,2.348,1.212,4.483,0.504,6.404c-0.734,1.986-2.403,3.806-4.973,5.453c-0.478,0.306-0.617,0.945-0.31,1.423
			c0.306,0.478,0.945,0.617,1.423,0.31c2.957-1.895,4.903-4.055,5.797-6.477C185.295,106.533,185.121,103.883,183.834,101.019z"/>
	</g>
	<g>
		<path fill-rule="evenodd" fill="#FCCCA1" d="M52.709,110.025c-4.96-8.452-10.272-16.037-15.87-17.26
			c-6.093-1.331-8.482,4.335-9.921,9.127c-2.689,8.951,6.887,17.34,14.483,23.013c2.365,1.767,5.782,0.624,9.523-2.38
			C51.652,117.962,51.981,114.588,52.709,110.025z"/>
		<path fill-rule="evenodd" fill="#5F160A" d="M53.846,107.473c0.545,0.851,0.298,1.985-0.553,2.53
			c-0.851,0.545-1.985,0.298-2.53-0.553c-2.021-3.143-4.346-6.377-6.855-9.021c-2.399-2.529-4.954-4.514-7.531-5.317l-0.128-0.038
			l-0.074-0.023c-1.618-0.439-3.106,0.022-4.34,1.055c-1.435,1.199-2.573,3.13-3.269,5.375l0.002,0.001l-0.092,0.31l-0.028,0.088
			c-0.369,1.332-0.442,2.715-0.284,4.02c0.172,1.43,0.621,2.741,1.249,3.767c1.559,2.545,3.224,4.789,5.115,6.884
			c1.903,2.108,4.023,4.054,6.477,5.994c0.97,0.767,2.247,1.034,3.569,0.875c1.479-0.179,2.995-0.884,4.239-2.022
			c0.744-0.68,1.9-0.629,2.581,0.114c0.68,0.744,0.629,1.9-0.114,2.581c-1.821,1.664-4.065,2.7-6.275,2.968
			c-2.243,0.272-4.477-0.236-6.264-1.648c-2.649-2.094-4.919-4.176-6.936-6.409c-2.03-2.248-3.827-4.671-5.516-7.429
			c-0.895-1.462-1.529-3.288-1.765-5.243c-0.21-1.741-0.108-3.611,0.405-5.445l0.036-0.139l0.092-0.31l0.003,0.001l0.004-0.016
			c0.9-2.911,2.437-5.466,4.421-7.125c2.143-1.792,4.775-2.573,7.693-1.762l0.104,0.027l0.128,0.038v0.001l0.022,0.006
			c3.259,1.006,6.332,3.349,9.131,6.299C49.259,100.75,51.721,104.169,53.846,107.473z"/>
		<path fill-rule="evenodd" fill="#F79A6C" d="M31.174,103.72c-0.558-0.149-0.89-0.725-0.741-1.283
			c0.149-0.558,0.724-0.89,1.282-0.741c2.916,0.784,5.518,2.113,7.963,4.076c2.408,1.934,4.658,4.484,6.91,7.747
			c0.327,0.474,0.208,1.126-0.266,1.454c-0.474,0.327-1.126,0.208-1.454-0.266c-2.134-3.094-4.253-5.5-6.5-7.305
			C36.16,105.628,33.808,104.427,31.174,103.72z"/>
		<path fill-rule="evenodd" fill="#F79A6C" d="M34.293,103.721c0.235-0.526,0.853-0.764,1.38-0.529
			c0.526,0.235,0.764,0.853,0.529,1.38c-1.073,2.387-1.232,4.557-0.512,6.509c0.745,2.019,2.442,3.869,5.055,5.542
			c0.485,0.312,0.627,0.961,0.316,1.446c-0.311,0.485-0.961,0.627-1.446,0.316c-3.005-1.926-4.983-4.121-5.891-6.583
			C32.808,109.325,32.984,106.631,34.293,103.721z"/>
	</g>
</g>
</svg>
