<?xml version="1.0" encoding="utf-8"?>
<!-- Generator: Adobe Illustrator 17.0.0, SVG Export Plug-In . SVG Version: 6.00 Build 0)  -->
<svg version="1.2" baseProfile="tiny" id="Capa_1" xmlns="http://www.w3.org/2000/svg" xmlns:xlink="http://www.w3.org/1999/xlink"
	 x="0px" y="0px" width="211px" height="228.77px" viewBox="0 0 211 228.77" xml:space="preserve">
<g>
	<g>
		<path fill-rule="evenodd" fill="#FCCCA1" d="M52.795,104.597c-8.522-13.358-21.544-9.126-21.551,5.976
			c-0.003,8.314,5.242,13.325,11.047,15.032c2.417,0.711,5.132-0.663,6.52-3.44C50.139,116.309,51.467,110.453,52.795,104.597z"/>
		<path fill-rule="evenodd" fill="#FCCCA1" d="M52.795,104.597c-8.522-13.358-21.544-9.126-21.551,5.976
			c-0.003,8.314,5.242,13.325,11.047,15.032c2.417,0.711,5.132-0.663,6.52-3.44C50.139,116.309,51.467,110.453,52.795,104.597z"/>
		
			<path fill-rule="evenodd" fill="none" stroke="#5F160A" stroke-width="0.9921" stroke-linecap="round" stroke-linejoin="round" stroke-miterlimit="22.9256" d="
			M52.318,103.924c-7.998-13.556-20.673-6.527-20.99,4.997c-0.217,7.934,4.384,12.761,7.197,14.994
			c3.484,2.765,8.795,2.333,9.996-1.2"/>
		<path fill-rule="evenodd" fill="#5F160A" d="M53.758,103.073c0.469,0.795,0.206,1.822-0.589,2.291
			c-0.795,0.469-1.822,0.206-2.291-0.589c-1.976-3.348-4.208-5.286-6.405-6.116c-1.568-0.593-3.134-0.619-4.57-0.197
			c-1.467,0.432-2.827,1.337-3.943,2.592c-1.736,1.954-2.877,4.735-2.964,7.913v0.007c-0.096,3.603,0.896,6.494,2.226,8.731
			c1.34,2.25,3.046,3.873,4.342,4.901c0.613,0.485,1.299,0.85,2.005,1.089c1.029,0.35,2.089,0.437,3.017,0.263
			c0.821-0.153,1.523-0.512,1.964-1.068c0.162-0.204,0.295-0.443,0.386-0.712c0.296-0.874,1.246-1.342,2.12-1.046
			c0.874,0.296,1.342,1.246,1.046,2.12c-0.218,0.644-0.538,1.218-0.935,1.719c-0.965,1.216-2.378,1.975-3.967,2.272
			c-1.484,0.278-3.137,0.151-4.706-0.382c-1.058-0.359-2.088-0.906-3.012-1.639c-1.514-1.201-3.518-3.113-5.127-5.816
			c-1.609-2.705-2.809-6.181-2.699-10.487l0.001-0.045c0.109-4.005,1.571-7.537,3.8-10.046c1.524-1.715,3.42-2.962,5.501-3.574
			c2.114-0.621,4.406-0.588,6.69,0.276C48.524,96.616,51.364,99.015,53.758,103.073z"/>
		<path fill-rule="evenodd" fill="#F79A6C" d="M39.068,106.476c-0.526-0.03-0.928-0.483-0.897-1.01
			c0.03-0.526,0.483-0.928,1.01-0.897c2.081,0.127,4.018,0.656,5.784,1.537l0.073,0.04c1.774,0.899,3.38,2.163,4.793,3.738
			c0.35,0.391,0.317,0.996-0.075,1.346c-0.34,0.305-0.84,0.319-1.195,0.061l-0.002,0.003c-1.214-0.879-2.423-0.814-3.33-0.245
			c-0.53,0.331-0.972,0.834-1.268,1.422c-0.295,0.584-0.44,1.253-0.382,1.92c0.115,1.308,1.057,2.646,3.261,3.424
			c0.497,0.175,0.758,0.722,0.583,1.218s-0.722,0.758-1.219,0.583c-3.043-1.075-4.356-3.069-4.532-5.061
			c-0.09-1.026,0.132-2.052,0.583-2.945c0.448-0.888,1.133-1.656,1.965-2.178c0.476-0.298,0.996-0.517,1.546-0.634
			c-0.509-0.354-1.035-0.67-1.578-0.947l-0.075-0.033C42.568,107.049,40.878,106.587,39.068,106.476z"/>
	</g>
	<g>
		<path fill-rule="evenodd" fill="#FCCCA1" d="M165.924,104.571c8.499-13.323,21.487-9.102,21.494,5.961
			c0.003,8.292-5.228,13.29-11.018,14.992c-2.411,0.709-5.118-0.661-6.503-3.431C168.573,116.253,167.248,110.412,165.924,104.571z"
			/>
		<path fill-rule="evenodd" fill="#FCCCA1" d="M165.924,104.571c8.499-13.323,21.487-9.102,21.494,5.961
			c0.003,8.292-5.228,13.29-11.018,14.992c-2.411,0.709-5.118-0.661-6.503-3.431C168.573,116.253,167.248,110.412,165.924,104.571z"
			/>
		
			<path fill-rule="evenodd" fill="none" stroke="#5F160A" stroke-width="0.9921" stroke-linecap="round" stroke-linejoin="round" stroke-miterlimit="22.9256" d="
			M166.399,103.9c7.977-13.52,20.619-6.51,20.935,4.984c0.217,7.913-4.373,12.728-7.178,14.954c-3.475,2.758-8.772,2.327-9.97-1.196
			"/>
		<path fill-rule="evenodd" fill="#5F160A" d="M164.963,103.051c-0.468,0.793-0.205,1.817,0.587,2.285
			c0.793,0.468,1.817,0.205,2.285-0.587c1.97-3.34,4.197-5.272,6.388-6.1c1.564-0.591,3.126-0.618,4.558-0.197
			c1.463,0.43,2.819,1.334,3.933,2.585c1.732,1.948,2.869,4.722,2.956,7.892v0.007c0.095,3.594-0.894,6.477-2.221,8.708
			c-1.337,2.245-3.038,3.863-4.331,4.888c-0.611,0.484-1.296,0.848-1.999,1.087c-1.026,0.349-2.083,0.436-3.009,0.263
			c-0.818-0.153-1.519-0.511-1.959-1.066c-0.161-0.203-0.294-0.442-0.385-0.71c-0.295-0.872-1.243-1.338-2.115-1.043
			c-0.872,0.295-1.339,1.243-1.043,2.115c0.218,0.642,0.537,1.215,0.933,1.715c0.963,1.213,2.372,1.969,3.957,2.266
			c1.48,0.277,3.129,0.151,4.693-0.381c1.055-0.358,2.083-0.904,3.004-1.635c1.511-1.198,3.509-3.105,5.113-5.801
			c1.605-2.698,2.801-6.165,2.691-10.459l-0.001-0.045c-0.109-3.995-1.567-7.518-3.79-10.019c-1.52-1.71-3.41-2.954-5.487-3.565
			c-2.108-0.62-4.395-0.586-6.672,0.275C170.183,96.612,167.351,99.004,164.963,103.051z"/>
		<path fill-rule="evenodd" fill="#F79A6C" d="M179.615,106.445c0.525-0.03,0.925-0.482,0.895-1.007
			c-0.031-0.525-0.482-0.925-1.007-0.895c-2.075,0.127-4.007,0.654-5.769,1.533l-0.072,0.04c-1.769,0.897-3.371,2.157-4.78,3.729
			c-0.35,0.39-0.316,0.993,0.074,1.342c0.339,0.304,0.837,0.318,1.191,0.061l0.002,0.003c1.211-0.876,2.417-0.811,3.322-0.245
			c0.528,0.33,0.969,0.832,1.265,1.418c0.294,0.582,0.439,1.25,0.381,1.915c-0.115,1.304-1.054,2.639-3.252,3.415
			c-0.495,0.174-0.756,0.72-0.581,1.215c0.174,0.495,0.72,0.756,1.215,0.581c3.035-1.072,4.345-3.061,4.52-5.047
			c0.09-1.024-0.132-2.046-0.581-2.937c-0.447-0.886-1.129-1.652-1.96-2.172c-0.475-0.297-0.993-0.515-1.542-0.632
			c0.508-0.353,1.032-0.668,1.574-0.944l0.074-0.033C176.123,107.017,177.809,106.556,179.615,106.445z"/>
	</g>
</g>
</svg>
