<?xml version="1.0" encoding="utf-8"?>
<!-- Generator: Adobe Illustrator 17.0.0, SVG Export Plug-In . SVG Version: 6.00 Build 0)  -->
<svg version="1.2" baseProfile="tiny" id="Capa_1" xmlns="http://www.w3.org/2000/svg" xmlns:xlink="http://www.w3.org/1999/xlink"
	 x="0px" y="0px" width="211px" height="228.77px" viewBox="0 0 211 228.77" xml:space="preserve">
<g>
	<g>
		<path fill="#FCCCA1" imag="1" d="M169.961,92.908c6.442-4.338,13.16-7.844,20.046-10.85c-1.916,16.89-8.266,29.419-20.835,38.32
			c-4.234,2.951-6.01-0.524-4.361-6.506C166.528,106.885,168.244,99.896,169.961,92.908z"/>
		<path fill="#5F160A" d="M170.213,90.924c-0.822,0.447-1.125,1.477-0.678,2.299c0.447,0.821,1.478,1.124,2.299,0.677
			c1.744-0.946,3.396-1.93,5.118-2.954c3.278-1.951,6.818-4.057,10.8-5.857c-1.037,7.092-3.186,13.844-6.384,19.654
			c-3.369,6.125-7.903,11.195-13.516,14.497c-0.545,0.321-0.967,0.465-1.275,0.465c-0.102,0-0.175-0.029-0.219-0.078
			c-0.153-0.17-0.268-0.479-0.34-0.885c-0.186-1.037-0.032-2.455,0.448-3.95c0.286-0.892-0.205-1.847-1.096-2.133
			c-0.892-0.286-1.847,0.205-2.133,1.097c-0.646,2.014-0.836,4.018-0.555,5.585c0.181,1.015,0.564,1.891,1.151,2.546
			c0.696,0.776,1.613,1.221,2.744,1.221c0.881,0,1.882-0.29,2.99-0.943c6.174-3.631,11.127-9.151,14.778-15.786
			c3.834-6.966,6.243-15.182,7.133-23.738c0.044-0.286,0.016-0.588-0.097-0.877c-0.341-0.873-1.327-1.304-2.2-0.963
			c-5.36,2.107-9.856,4.782-13.956,7.222C173.448,89.079,171.744,90.093,170.213,90.924z"/>
		<path fill="#F79A6C" imag="0"  d="M183.287,92.764c0.478-0.238,0.671-0.821,0.433-1.299c-0.238-0.478-0.821-0.672-1.299-0.434
			c-3.518,1.763-6.322,3.772-8.598,5.955c-2.281,2.188-4.034,4.556-5.443,7.035c-0.263,0.465-0.1,1.058,0.365,1.321
			c0.181,0.102,0.381,0.139,0.574,0.121v0.001l4.462-0.446c-0.541,0.493-1.054,1.002-1.538,1.526
			c-1.201,1.3-2.224,2.688-3.082,4.152c-0.27,0.461-0.116,1.055,0.345,1.325s1.055,0.116,1.325-0.345
			c0.791-1.35,1.731-2.628,2.831-3.818c1.1-1.19,2.375-2.306,3.835-3.336l-0.001-0.001c0.275-0.194,0.442-0.528,0.407-0.887
			c-0.052-0.532-0.528-0.921-1.059-0.869l-5.782,0.577c1.132-1.732,2.475-3.393,4.105-4.957
			C177.311,96.327,179.959,94.432,183.287,92.764z"/>
	</g>
	<g>
		<path fill="#FCCCA1" imag="1"  d="M46.88,93.637c-6.826-4.597-13.944-8.312-21.24-11.497c2.03,17.897,8.759,31.173,22.077,40.605
			c4.486,3.127,6.368-0.555,4.62-6.894C50.518,108.447,48.699,101.042,46.88,93.637z"/>
		<path fill="#5F160A" d="M46.613,91.535c0.87,0.474,1.192,1.565,0.718,2.436c-0.474,0.87-1.566,1.191-2.436,0.718
			c-1.848-1.003-3.599-2.045-5.423-3.13c-3.473-2.067-7.224-4.299-11.444-6.206c1.099,7.515,3.376,14.669,6.765,20.825
			c3.57,6.49,8.374,11.862,14.322,15.361c0.578,0.34,1.025,0.492,1.351,0.492c0.108,0,0.185-0.031,0.232-0.082
			c0.162-0.18,0.284-0.508,0.36-0.938c0.197-1.099,0.034-2.601-0.475-4.186c-0.303-0.945,0.217-1.957,1.162-2.26
			c0.944-0.303,1.957,0.218,2.26,1.162c0.685,2.134,0.886,4.257,0.588,5.918c-0.192,1.075-0.597,2.004-1.22,2.698
			c-0.737,0.822-1.708,1.294-2.908,1.294c-0.933,0-1.994-0.308-3.168-0.999c-6.543-3.848-11.79-9.696-15.659-16.727
			c-4.063-7.381-6.616-16.088-7.558-25.153c-0.046-0.303-0.016-0.623,0.103-0.929c0.362-0.925,1.406-1.382,2.331-1.021
			c5.68,2.233,10.444,5.067,14.789,7.653C43.185,89.58,44.991,90.654,46.613,91.535z"/>
		<path fill="#F79A6C" imag="0" d="M32.76,93.485c-0.507-0.253-0.712-0.87-0.459-1.376c0.252-0.507,0.869-0.712,1.376-0.46
			c3.727,1.868,6.699,3.997,9.11,6.31c2.417,2.319,4.275,4.828,5.768,7.454c0.279,0.492,0.106,1.121-0.386,1.4
			c-0.191,0.108-0.404,0.147-0.608,0.128v0.001l-4.728-0.473c0.574,0.522,1.116,1.062,1.629,1.617
			c1.273,1.377,2.357,2.849,3.266,4.4c0.286,0.488,0.122,1.118-0.366,1.404c-0.488,0.286-1.117,0.122-1.404-0.366
			c-0.839-1.431-1.835-2.785-3-4.046c-1.166-1.26-2.517-2.444-4.065-3.535l0.001-0.001c-0.291-0.206-0.469-0.559-0.432-0.94
			c0.056-0.564,0.559-0.976,1.123-0.921l6.126,0.612c-1.199-1.835-2.622-3.595-4.349-5.253C39.091,97.26,36.285,95.252,32.76,93.485
			z"/>
	</g>
</g>
</svg>
