<?xml version="1.0" encoding="utf-8"?>
<!-- Generator: Adobe Illustrator 17.0.0, SVG Export Plug-In . SVG Version: 6.00 Build 0)  -->
<svg version="1.2" baseProfile="tiny" id="Capa_1" xmlns="http://www.w3.org/2000/svg" xmlns:xlink="http://www.w3.org/1999/xlink"
	 x="0px" y="0px" width="211px" height="228.77px" viewBox="0 0 211 228.77" xml:space="preserve">
<g>
	<path fill-rule="evenodd" fill="#44210C" d="M89.799,159.952c-2.362-2.728-2.313-6.189,0.579-9.274
		c3.116-3.325,19.327-1.704,25.424-1.19c6.105,0.167,13.749,5.259,15.622,11.772C116.979,158.001,103.003,157.888,89.799,159.952z"
		/>
	<path fill-rule="evenodd" fill="#FFFFFF" d="M91.818,157.924c-1.885-2.176-1.281-4.077,0.458-5.545
		c2.777-2.344,17.555-1.359,22.419-0.949c4.871,0.133,10.534,1.898,12.028,7.095C115.344,156.371,102.92,156.419,91.818,157.924z"/>
	<path fill-rule="evenodd" fill="#44210C" d="M101.305,171.061c5.067-0.463,14.014-1.633,12.696,5.158
		C110.468,172.203,107.387,171.929,101.305,171.061z"/>
</g>
</svg>
