<?xml version="1.0" encoding="utf-8"?>
<!-- Generator: Adobe Illustrator 17.0.0, SVG Export Plug-In . SVG Version: 6.00 Build 0)  -->
<svg version="1.2" baseProfile="tiny" id="Capa_1" xmlns="http://www.w3.org/2000/svg" xmlns:xlink="http://www.w3.org/1999/xlink"
	 x="0px" y="0px" width="211px" height="228.77px" viewBox="0 0 211 228.77" xml:space="preserve">
<g>
	<path fill-rule="evenodd" fill="#44210C" d="M84.033,153.661c8.624-1.846,16.908-0.88,25.727,0.987
		c12.352-3.12,23.567-7.044,36.505-8.112c-9.656,2.837-18.379,6.674-25.693,11.635c-8.792,5.964-11.218,4.272-17.001,1.981
		C97.018,157.557,91.034,155.239,84.033,153.661z"/>
	<g>
		<path fill-rule="evenodd" fill="#FFFFFF" d="M92.405,154.461c6.664-0.664,10.769,2.3,18.478,2.985
			c4.72-1.034,8.001-4.491,18.755-5.79c-6.671,2.299-12.189,5.901-14.387,7.285c-3.051,1.92-4.801,1.976-9.488,0.121
			C100.454,156.96,98.08,155.739,92.405,154.461z"/>
		<path fill-rule="evenodd" fill="#44210C" d="M110.287,168.329c2.917,2.095,5.832,1.921,8.749-0.825
			C116.433,172.595,113.627,173.693,110.287,168.329z"/>
		<path fill-rule="evenodd" fill="#44210C" d="M105.169,149.485c2.126-1.513,2.875-3.332,2.783-5.257
			c0.732,1.598,1.128,3.814,0.619,5.412C107.386,149.795,106.355,149.331,105.169,149.485z"/>
	</g>
</g>
</svg>
