<?xml version="1.0" encoding="utf-8"?>
<!-- Generator: Adobe Illustrator 17.0.0, SVG Export Plug-In . SVG Version: 6.00 Build 0)  -->
<svg version="1.2" baseProfile="tiny" id="Capa_1" xmlns="http://www.w3.org/2000/svg" xmlns:xlink="http://www.w3.org/1999/xlink"
	 x="0px" y="0px" width="211px" height="228.77px" viewBox="0 0 211 228.77" xml:space="preserve">
<g>
	<path fill-rule="evenodd" fill="#44210C" d="M131.699,174.228c-3.38-9.957-7.262-19.503-12.751-27.74
		c-9.179,0.032-18.026,1.546-26.543,4.542c0.656,7.93,0.527,14.897,0.32,21.767C105.778,172.669,118.745,173.394,131.699,174.228z"
		/>
	<path fill-rule="evenodd" fill="#8D1842" d="M127.48,168.978c-2.063-5.702-4.276-10.64-7.263-16.135
		c-8.516-0.071-16.72,0.712-24.493,2.223c0.362,4.294,0.484,7.867,0.105,12.084C106.403,167.166,116.85,168.057,127.48,168.978z"/>
	<g>
		<path fill="none" d="M104.66,167.354c2.178-2.477,5.745-5.161,7.847-5.308c1.604-0.111,3.05,1.81,4.654,1.906
			c1.795,0.107,3.529-1.763,5.245-2.072c0.754-0.136,1.503-0.126,2.241-0.016c-1.306-2.988-2.742-5.917-4.43-9.023
			c-8.516-0.07-16.72,0.712-24.493,2.223c0.362,4.294,0.484,7.867,0.105,12.084C98.78,167.154,101.722,167.232,104.66,167.354z"/>
		<path fill="#5F090E" d="M122.406,161.881c-1.715,0.309-3.45,2.18-5.245,2.072c-1.604-0.097-3.05-2.018-4.654-1.906
			c-2.101,0.147-5.668,2.83-7.847,5.308c0.62,0.026,1.239,0.055,1.859,0.085c1.611-1.912,3.434-3.424,5.698-3.65
			c1.641-0.163,3.125,1.855,4.771,1.954c1.841,0.111,3.61-1.393,5.37-1.712c1.189-0.216,2.29-0.056,3.341,0.32
			c-0.341-0.836-0.693-1.664-1.052-2.487C123.909,161.755,123.16,161.745,122.406,161.881z"/>
		<path fill="#EC1C24" d="M122.359,164.031c-1.76,0.319-3.529,1.823-5.37,1.712c-1.645-0.099-3.129-2.117-4.771-1.954
			c-2.265,0.226-4.087,1.738-5.698,3.65c6.967,0.339,13.924,0.929,20.961,1.538c-0.576-1.593-1.167-3.123-1.781-4.626
			C124.649,163.976,123.548,163.816,122.359,164.031z"/>
	</g>
	<polygon fill-rule="evenodd" fill="#FFFFFF" points="115.463,151.88 114.836,148.716 117.728,148.617 119.646,151.841 	"/>
	<path fill-rule="evenodd" fill="#FFFFFF" d="M109.329,152.339l-0.259-3.123c1.735-0.302,3.107-0.454,4.817-0.491l0.564,3.2
		C112.637,151.979,111.164,152.108,109.329,152.339z"/>
	<path fill-rule="evenodd" fill="#FFFFFF" d="M108.238,149.216c-1.834,0.165-3.388,0.512-5.249,0.941l0.089,2.787
		c1.909-0.271,3.518-0.525,5.409-0.62L108.238,149.216z"/>
	<path fill-rule="evenodd" fill="#FFFFFF" d="M102.205,152.98l-0.052-2.73c-2.329,0.524-4.434,1.161-6.789,1.951l0.19,1.906
		C97.863,153.595,99.923,153.227,102.205,152.98z"/>
	<polygon fill-rule="evenodd" fill="#FFFFFF" points="124.156,171.762 123.903,169.488 127.759,169.902 128.87,172.058 	"/>
	<polygon fill-rule="evenodd" fill="#FFFFFF" points="117.522,168.887 117.57,171.407 123.285,171.772 123.23,169.32 	"/>
	<polygon fill-rule="evenodd" fill="#FFFFFF" points="110.597,168.314 110.697,171.114 116.664,171.437 116.629,168.781 	"/>
	<polygon fill-rule="evenodd" fill="#FFFFFF" points="104.24,168.046 104.224,170.985 109.877,171.131 109.79,168.281 	"/>
	<polygon fill-rule="evenodd" fill="#FFFFFF" points="98.702,170.959 98.852,167.921 103.4,167.975 103.398,170.994 	"/>
	<polygon fill-rule="evenodd" fill="#FFFFFF" points="95.741,167.931 98.047,167.839 97.991,170.938 95.432,170.882 	"/>
</g>
</svg>
