<?xml version="1.0" encoding="utf-8"?>
<!-- Generator: Adobe Illustrator 17.0.0, SVG Export Plug-In . SVG Version: 6.00 Build 0)  -->
<svg version="1.2" baseProfile="tiny" id="Capa_1" xmlns="http://www.w3.org/2000/svg" xmlns:xlink="http://www.w3.org/1999/xlink"
	 x="0px" y="0px" width="211px" height="228.77px" viewBox="0 0 211 228.77" xml:space="preserve">
<g>
	<path fill-rule="evenodd" fill="#44210C" d="M90.826,145.445c6.179,8.737,24.647,4.183,33.375,1.723
		c7.595-2.14,7.161,7.611,4.211,11.021c-4.053,4.684-16.017,11.141-27.039,9.965c-5.459-0.583-8.99-6.014-6.536-11.705
		C91.984,153.926,90.76,150.172,90.826,145.445z"/>
	<path fill-rule="evenodd" fill="#FFFFFF" d="M95.601,150.828c0.625,1.823,2.24,4.102,3.808,5.607
		c9.194,1.428,19.16-0.49,28.968-4.26c-0.492-1.782-0.39-2.976-3.404-3.592C115.505,151.727,105.111,153.823,95.601,150.828z"/>
	<path fill-rule="evenodd" fill="#EC1C24" d="M103.067,158.284c-4.195-0.287-6.709,0.495-5.943,4.191
		c1.966,3.418,5.072,4.089,10.124,3.192c8.438-1.498,20.592-7.231,21.271-12.021C120.025,156.831,111.304,158.942,103.067,158.284z"
		/>
</g>
</svg>
