<?xml version="1.0" encoding="utf-8"?>
<!-- Generator: Adobe Illustrator 17.0.0, SVG Export Plug-In . SVG Version: 6.00 Build 0)  -->
<svg version="1.2" baseProfile="tiny" id="Capa_1" xmlns="http://www.w3.org/2000/svg" xmlns:xlink="http://www.w3.org/1999/xlink"
	 x="0px" y="0px" width="211px" height="228.77px" viewBox="0 0 211 228.77" xml:space="preserve">
<g>
	<g>
		<path fill-rule="evenodd" fill="#44210C" d="M133.772,147.249c-15.793,4.034-31.9,5.87-48.502,4.244
			c5.985,5.028,11.38,10.711,16.976,16.066c3.912,3.744,9.408,2.7,12.428-0.91C120.927,159.18,127.05,152.647,133.772,147.249z"/>
		<path fill-rule="evenodd" fill="#FFFFFF" d="M123.882,150.779c-1.262,2.103-2.523,4.206-3.785,6.308
			c-6.969,2.526-14.42,3.362-22.351,2.524c-1.622-1.718-3.244-3.748-4.867-5.948C104.051,154.657,114.153,153.152,123.882,150.779z"
			/>
		<path fill-rule="evenodd" fill="#EC1C24" d="M119.376,159.611c-2.494,1.09-17.326,0.871-16.403,5.588
			c0.541,2.77,3.961,3.237,7.211,1.982C114.233,165.617,115.23,162.669,119.376,159.611z"/>
	</g>
	<g>
		<path fill-rule="evenodd" fill="#44210C" d="M133.772,147.249c-15.793,4.034-31.9,5.87-48.502,4.244
			c5.985,5.028,11.38,10.711,16.976,16.066c3.912,3.744,9.408,2.7,12.428-0.91C120.927,159.18,127.05,152.647,133.772,147.249z"/>
		<path fill-rule="evenodd" fill="#FFFFFF" d="M123.882,150.779c-1.262,2.103-2.523,4.206-3.785,6.308
			c-6.969,2.526-14.42,3.362-22.351,2.524c-1.622-1.718-3.244-3.748-4.867-5.948C104.051,154.657,114.153,153.152,123.882,150.779z"
			/>
		<path fill-rule="evenodd" fill="#EC1C24" d="M119.376,159.611c-2.494,1.09-17.326,0.871-16.403,5.588
			c0.541,2.77,3.961,3.237,7.211,1.982C114.233,165.617,115.23,162.669,119.376,159.611z"/>
	</g>
</g>
</svg>
