<?xml version="1.0" encoding="utf-8"?>
<!-- Generator: Adobe Illustrator 17.0.0, SVG Export Plug-In . SVG Version: 6.00 Build 0)  -->
<svg version="1.2" baseProfile="tiny" id="Capa_1" xmlns="http://www.w3.org/2000/svg" xmlns:xlink="http://www.w3.org/1999/xlink"
	 x="0px" y="0px" width="211px" height="228.77px" viewBox="0 0 211 228.77" xml:space="preserve">
<g>
	<path fill-rule="evenodd" fill="#44210C" d="M125.369,150.643c-9.981-0.062-19.963-0.123-29.944-0.184
		c-0.356,8.221,5.773,15.925,15.313,15.6C118.467,165.796,124.893,160.134,125.369,150.643z"/>
	<path fill-rule="evenodd" fill="#D66367" d="M123.954,151.56c-9.08,0.03-18.159,0.061-27.239,0.091
		c0.796,4.645,2.469,8.662,6.344,11.103c4.595-7.508,12.03-9.806,20.761-9.727C123.864,152.539,123.909,152.05,123.954,151.56z"/>
	<path fill-rule="evenodd" fill="#EC1C24" d="M123.641,154.221c-3.026,8.138-9.397,11.378-19.109,9.727
		C107.854,158.581,114.965,152.95,123.641,154.221z"/>
</g>
</svg>
