<?xml version="1.0" encoding="utf-8"?>
<!-- Generator: Adobe Illustrator 17.0.0, SVG Export Plug-In . SVG Version: 6.00 Build 0)  -->
<svg version="1.2" baseProfile="tiny" id="Capa_1" xmlns="http://www.w3.org/2000/svg" xmlns:xlink="http://www.w3.org/1999/xlink"
	 x="0px" y="0px" width="211px" height="228.77px" viewBox="0 0 211 228.77" xml:space="preserve">
<g>
	<path fill-rule="evenodd" fill="#B23B71" d="M90.168,151.393c4.412,0.442,9.032-0.166,13.444-1.654
		c1.413,1.378,3.241,2.034,5.171,2.792c1.896-0.621,3.689-1.448,5.068-2.896c3.672,1.945,7.774,2.642,12.72,2.068
		c-1.429,5.122-5.187,11.285-10.859,13.652c-4.165,1.737-8.668,1.077-12.823,0.206C96.391,164.2,91.704,159.507,90.168,151.393z"/>
	<path fill-rule="evenodd" fill="#F187B6" imag="1" d="M108.938,153.324c-1.863-0.378-3.982-1.346-5.328-2.138
		c-3.009,1.358-6.637,1.68-9.853,1.693c8.676,4.074,18.567,4.441,30.132-0.165c-4.609-0.094-6.29-0.608-9.83-1.529
		C112.44,151.978,110.869,152.843,108.938,153.324z"/>
	<path fill-rule="evenodd" fill="#F187B6" imag="1" d="M92.236,152.945c1.412,5.022,4.058,9.226,8.997,10.962
		c4.472,1.571,9.702,2.301,14.788,0c4.619-2.09,7.226-6.38,8.48-10.031C112.591,158.63,101.387,158.666,92.236,152.945z"/>
</g>
</svg>
