<?xml version="1.0" encoding="utf-8"?>
<!-- Generator: Adobe Illustrator 17.0.0, SVG Export Plug-In . SVG Version: 6.00 Build 0)  -->
<svg version="1.2" baseProfile="tiny" id="Capa_1" xmlns="http://www.w3.org/2000/svg" xmlns:xlink="http://www.w3.org/1999/xlink"
	 x="0px" y="0px" width="211px" height="228.77px" viewBox="0 0 211 228.77" xml:space="preserve">
<g>
	<path fill="#B23B71" d="M89.075,150.901c5.756-0.765,11.33-2.272,16.268-4.998c1.503,0.947,2.908,1.797,4.9,2.058
		c1.503-0.784,2.81-1.568,4.019-2.45c2.902,2.131,8.89,3.848,14.7,4.509c-1.721,4.723-4.013,9.718-10.486,12.74
		c-4.728,2.206-11.497,2.234-15.975,0.49C95.776,160.63,92.101,156.245,89.075,150.901z"/>
	<path fill="#F187B6" d="M92.506,151.121c4.537-0.754,9.099-1.465,12.934-3.62c1.329,0.794,3.003,1.279,4.593,1.552
		c1.466-0.386,2.737-1.161,4.202-2.069c3.342,2.174,8.183,2.852,12.934,3.621C115.615,152.092,104.01,152.104,92.506,151.121z"/>
	<path fill="#FFFFFF" d="M96.128,152.246c8.535,0.402,17.172,0.287,25.707,0C115.521,157.222,103.537,157.644,96.128,152.246z"/>
	<path fill="#F187B6" d="M91.377,151.879c2.425,4.698,6.917,8.879,12.594,10.488c4.426,1.256,9.212,1.313,13.427-0.49
		c5.059-2.164,7.876-6.749,9.797-10.345c-1.454,0.299-2.806,0.447-4.259,0.591c-3.214,2.974-7.535,4.753-12.74,4.801
		c-6.352,0.115-11.273-1.272-14.751-4.553C93.958,152.173,92.96,152.128,91.377,151.879z"/>
	<path fill="#B23B71" d="M105.997,165.924c2.81,0.785,5.773,0.784,8.887,0C112.443,168.119,108.366,168.324,105.997,165.924z"/>
</g>
</svg>
